<?xml version="1.0" encoding="UTF-8" standalone="no"?>
<svg
   xmlns:dc="http://purl.org/dc/elements/1.1/"
   xmlns:cc="http://creativecommons.org/ns#"
   xmlns:rdf="http://www.w3.org/1999/02/22-rdf-syntax-ns#"
   xmlns:svg="http://www.w3.org/2000/svg"
   xmlns="http://www.w3.org/2000/svg"
   xmlns:sodipodi="http://sodipodi.sourceforge.net/DTD/sodipodi-0.dtd"
   xmlns:inkscape="http://www.inkscape.org/namespaces/inkscape"
   width="210mm"
   height="297mm"
   viewBox="0 0 210 297"
   version="1.1"
   id="svg5"
   inkscape:version="1.0.1 (3bc2e813f5, 2020-09-07)"
   sodipodi:docname="bauhaus93-path.svg">
  <metadata
     id="metadata308">
    <rdf:RDF>
      <cc:Work
         rdf:about="">
        <dc:format>image/svg+xml</dc:format>
        <dc:type
           rdf:resource="http://purl.org/dc/dcmitype/StillImage" />
        <dc:title></dc:title>
      </cc:Work>
    </rdf:RDF>
  </metadata>
  <sodipodi:namedview
     id="namedview7"
     pagecolor="#ffffff"
     bordercolor="#666666"
     borderopacity="1.0"
     inkscape:showpageshadow="2"
     inkscape:pageopacity="0.0"
     inkscape:pagecheckerboard="0"
     inkscape:deskcolor="#d1d1d1"
     inkscape:document-units="mm"
     showgrid="false"
     inkscape:zoom="0.914906"
     inkscape:cx="297.8448"
     inkscape:cy="632.8519"
     inkscape:window-width="2560"
     inkscape:window-height="1377"
     inkscape:window-x="-8"
     inkscape:window-y="-8"
     inkscape:window-maximized="1"
     inkscape:current-layer="layer1"
     inkscape:document-rotation="0" />
  <defs
     id="defs2" />
  <g
     inkscape:label="Layer 1"
     inkscape:groupmode="layer"
     id="layer1">
    <g
       aria-label="Bauhaus 93 ABCDEabcde12345"
       id="text453"
       style="font-size:16.9333px;line-height:125%;font-family:'Bauhaus 93';-inkscape-font-specification:'Bauhaus 93, Normal';letter-spacing:0px;word-spacing:0px;stroke-width:0.264583px">
      <path
         id="path721"
         d="M 11.832869 12.138277 L 11.832869 23.42441 L 15.189771 23.42441 L 15.189771 15.164449 L 15.809888 15.164449 C 16.366612 15.164449 16.644979 15.360133 16.644979 15.751493 C 16.644979 16.175928 16.336297 16.388147 15.718937 16.388147 L 15.718937 19.397782 L 16.363859 19.397782 C 16.926096 19.397782 17.207218 19.579685 17.207218 19.943486 C 17.207218 20.158458 17.138317 20.310044 17.000513 20.398238 C 16.862709 20.48092 16.625685 20.522262 16.289445 20.522262 L 15.718937 20.522262 L 15.718937 23.42441 L 16.355591 23.42441 C 17.02807 23.42441 17.562755 23.366532 17.959627 23.250777 C 18.356501 23.135023 18.728574 22.931072 19.075838 22.638928 C 19.786904 22.027083 20.14244 21.205765 20.14244 20.174996 C 20.14244 18.830036 19.538853 17.895719 18.331698 17.372066 C 19.164029 16.743684 19.5802 15.955439 19.5802 15.007353 C 19.5802 13.094643 18.364761 12.138277 15.933911 12.138277 L 11.832869 12.138277 z " />
      <path
         d="m 25.847464,20.332226 v 3.199798 q -0.380338,0.06615 -0.69453,0.06615 -1.860348,0 -3.10058,-1.223695 -1.240232,-1.223696 -1.240232,-3.067507 0,-1.794203 1.2485,-3.042703 1.256769,-1.2485 3.050971,-1.2485 2.000907,0 3.150189,1.174086 1.15755,1.165818 1.15755,3.191531 v 4.043156 H 26.32702 v -3.819915 q 0,-0.653189 -0.32246,-1.041795 -0.314192,-0.388606 -0.851626,-0.388606 -0.487825,0 -0.843358,0.355534 -0.355533,0.355533 -0.355533,0.843357 0,0.51263 0.32246,0.843358 0.322461,0.330729 0.818554,0.330729 0.405142,0 0.752407,-0.214974 z"
         id="path718" />
      <path
         d="m 31.221801,15.296884 h 3.092312 v 4.655004 q 0,0.702798 0.587043,0.702798 0.578775,0 0.578775,-0.702798 v -4.655004 h 3.092312 v 4.597127 q 0,1.604033 -1.0666,2.711974 -1.066599,1.099672 -2.612755,1.099672 -1.761129,0 -2.835997,-1.281573 -0.83509,-1.000454 -0.83509,-2.77812 z"
         id="path715" />
      <path
         d="m 43.467025,12.138427 v 3.447845 q 0.78548,-0.570507 1.570961,-0.570507 1.190622,0 1.885152,0.859894 0.702798,0.859894 0.702798,2.323368 v 5.225511 h -3.092311 v -4.357349 q 0,-0.529165 -0.115755,-0.711066 -0.107487,-0.181901 -0.429947,-0.181901 -0.520898,0 -0.520898,0.768944 v 4.481372 H 40.374714 V 12.138427 Z"
         id="path712" />
      <path
         d="m 54.008995,20.332226 v 3.199798 q -0.380337,0.06615 -0.69453,0.06615 -1.860347,0 -3.100579,-1.223695 -1.240232,-1.223696 -1.240232,-3.067507 0,-1.794203 1.2485,-3.042703 1.256768,-1.2485 3.05097,-1.2485 2.000908,0 3.15019,1.174086 1.157549,1.165818 1.157549,3.191531 v 4.043156 h -3.092311 v -3.819915 q 0,-0.653189 -0.322461,-1.041795 -0.314192,-0.388606 -0.851626,-0.388606 -0.487824,0 -0.843357,0.355534 -0.355533,0.355533 -0.355533,0.843357 0,0.51263 0.32246,0.843358 0.32246,0.330729 0.818553,0.330729 0.405142,0 0.752407,-0.214974 z"
         id="path709" />
      <path
         d="m 59.383335,15.296884 h 3.092311 v 4.655004 q 0,0.702798 0.587043,0.702798 0.578775,0 0.578775,-0.702798 v -4.655004 h 3.092312 v 4.597127 q 0,1.604033 -1.066599,2.711974 -1.0666,1.099672 -2.612756,1.099672 -1.761129,0 -2.835997,-1.281573 -0.835089,-1.000454 -0.835089,-2.77812 z"
         id="path706" />
      <path
         d="m 73.70388,15.296884 v 3.257676 q -0.653189,0 -0.901235,0.248047 -0.239778,0.239778 -0.305924,0.959112 -0.214974,2.389514 -1.85208,3.373431 -0.868162,0.512629 -2.463927,0.512629 h -0.429947 v -3.274212 h 0.140559 q 0.744139,0 1.058332,-0.305924 0.32246,-0.314192 0.372069,-1.091404 0.06615,-1.265036 0.23151,-1.777666 0.173633,-0.512629 0.69453,-1.01699 0.909503,-0.884699 2.521805,-0.884699 z"
         id="path703" />
      <path
         d="m 84.667533,23.755266 -2.968288,-1.050063 2.199345,-6.168087 q 0.09095,-0.264582 0.09095,-0.479556 0,-0.446484 -0.330729,-0.768944 -0.330728,-0.32246 -0.78548,-0.32246 -0.454751,0 -0.777212,0.330728 -0.314192,0.322461 -0.314192,0.785481 0,0.471288 0.314192,0.793748 0.322461,0.32246 0.78548,0.32246 0.09922,0 0.314193,-0.03307 l -1.339451,3.24114 Q 80.095212,19.637696 79.318,18.653779 78.549056,17.669861 78.549056,16.19812 q 0,-1.827275 1.2485,-3.084044 1.256768,-1.256768 3.075775,-1.256768 1.719789,0 3.001362,1.265036 1.289841,1.256769 1.289841,2.943484 0,0.78548 -0.60358,2.447391 z"
         id="path700" />
      <path
         d="m 89.487901,12.138427 h 5.977918 l -1.843812,4.340812 q 0.992186,0.669725 1.438669,1.471742 0.454752,0.793748 0.454752,1.885152 0,1.628838 -1.198891,2.753315 -1.198891,1.116209 -2.951752,1.116209 -0.967381,0 -1.918225,-0.363801 v -3.191531 q 0.719334,0.446484 1.2485,0.446484 0.578775,0 0.967381,-0.413411 0.396874,-0.41341 0.396874,-1.025258 0,-0.702798 -0.587043,-1.116209 -0.587043,-0.421679 -1.570961,-0.421679 l 0.83509,-2.224149 h -1.2485 z"
         id="path697" />
      <path
         d="m 15.925609,38.927437 v 2.976556 h -0.967381 v 2.68717 h -3.356895 v -7.176809 q 0,-2.08359 1.132745,-3.232871 1.141014,-1.15755 3.199799,-1.15755 1.984371,0 2.935215,1.050063 0.950845,1.041795 0.950845,3.224603 v 7.292564 h -3.356895 v -7.069322 q 0,-0.661457 -0.157096,-0.917772 -0.157096,-0.256315 -0.562238,-0.256315 -0.78548,0 -0.78548,1.174087 v 1.405596 z"
         id="path694" />
      <path
         d="m 21.853918,33.305052 h 4.101033 q 3.646282,0 3.646282,2.86907 0,1.422133 -1.2485,2.364709 1.810738,0.78548 1.810738,2.802924 0,1.546156 -1.066599,2.463927 -0.520897,0.438216 -1.116209,0.611848 -0.595311,0.173633 -1.604033,0.173633 H 25.739978 V 41.68902 h 0.570506 q 0.504361,0 0.711067,-0.124023 0.206705,-0.132292 0.206705,-0.454752 0,-0.545702 -0.843358,-0.545702 h -0.64492 v -3.009629 q 0.926039,0 0.926039,-0.636653 0,-0.587043 -0.835089,-0.587043 h -0.620116 v 8.259945 h -3.356894 z"
         id="path691" />
      <path
         d="m 39.151019,39.076265 3.51399,0.09095 q -0.347265,2.72851 -1.893421,4.216789 -1.537887,1.488278 -4.018351,1.488278 -2.521805,0 -4.225057,-1.686716 -1.694983,-1.694983 -1.694983,-4.200252 0,-2.521805 1.728056,-4.241593 1.736325,-1.719788 4.274666,-1.719788 2.497,0 4.167179,1.686715 1.15755,1.165818 1.637107,3.249408 l -3.596673,0.239778 q -0.60358,-1.85208 -2.290295,-1.85208 -1.074868,0 -1.777666,0.74414 -0.69453,0.744139 -0.69453,1.89342 0,1.107941 0.686262,1.835544 0.686262,0.719334 1.736325,0.719334 1.066599,0 1.694983,-0.636652 0.636653,-0.636653 0.752408,-1.827275 z"
         id="path688" />
      <path
         d="m 47.6094,36.546192 v 8.044971 H 44.252506 V 33.305052 h 4.373884 q 2.877338,0 4.506176,1.306378 1.934762,1.562692 1.934762,4.241593 0,2.563146 -1.653642,4.183716 -1.653643,1.620569 -4.25813,1.620569 -0.305924,0 -1.000454,-0.03307 v -3.315554 h 0.537434 q 2.935216,0 2.935216,-2.455659 0,-2.306831 -2.885607,-2.306831 z"
         id="path685" />
      <path
         d="m 62.665815,37.695473 v 2.513537 h -2.191076 q -0.446484,0 -0.636653,0.132291 -0.1819,0.132292 -0.1819,0.446484 0,0.355533 0.190169,0.471288 0.190169,0.107487 0.777212,0.107487 h 2.257222 v 3.224603 h -2.63756 q -1.860348,0 -2.844265,-0.884699 -0.983918,-0.892967 -0.983918,-2.571414 v -4.423494 q 0,-1.62057 0.92604,-2.513537 0.934308,-0.892967 2.621024,-0.892967 h 2.918679 v 3.24114 h -2.141467 q -0.868163,0 -0.868163,0.562238 0,0.330729 0.206706,0.46302 0.206705,0.124023 0.735871,0.124023 z"
         id="path682" />
      <path
         d="m 69.156365,41.498851 v 3.199798 q -0.380338,0.06615 -0.69453,0.06615 -1.860348,0 -3.10058,-1.223695 -1.240232,-1.223696 -1.240232,-3.067507 0,-1.794203 1.2485,-3.042703 1.256769,-1.2485 3.050971,-1.2485 2.000907,0 3.150189,1.174086 1.15755,1.165818 1.15755,3.191531 v 4.043156 h -3.092312 v -3.819915 q 0,-0.653188 -0.32246,-1.041795 -0.314192,-0.388606 -0.851626,-0.388606 -0.487825,0 -0.843358,0.355534 -0.355533,0.355533 -0.355533,0.843357 0,0.51263 0.32246,0.843358 0.322461,0.330729 0.818553,0.330729 0.405143,0 0.752408,-0.214974 z"
         id="path679" />
      <path
         d="m 77.441111,33.305052 v 6.75513 q 0,1.645374 1.182355,1.645374 0.504361,0 0.851626,-0.338996 0.355533,-0.347265 0.355533,-0.83509 0,-0.504361 -0.330729,-0.843358 -0.330728,-0.347265 -0.810285,-0.347265 -0.338996,0 -0.777212,0.297656 v -3.406504 q 0.545702,-0.04961 0.826822,-0.04961 1.744593,0 2.984825,1.256769 1.2485,1.256768 1.2485,3.026165 0,1.810739 -1.265037,3.050971 -1.265036,1.240232 -3.108848,1.240232 -0.92604,0 -1.810739,-0.405142 Q 75.911492,43.946242 75.340985,43.25998 74.3488,42.069358 74.3488,40.175937 v -6.870885 z"
         id="path676" />
      <path
         d="m 89.388683,40.796053 3.067507,-0.115755 q -0.132292,1.785934 -1.331182,2.935216 -1.198891,1.149281 -2.91868,1.149281 -1.819006,0 -3.075775,-1.265036 -1.2485,-1.265037 -1.2485,-3.10058 0,-1.744593 1.265037,-2.984825 1.265036,-1.240232 3.034434,-1.240232 1.546156,0 2.72851,0.975649 1.182355,0.975649 1.471742,2.488732 l -3.133653,0.115755 q -0.405142,-0.529165 -1.025258,-0.529165 -0.529166,0 -0.868162,0.347264 -0.338997,0.347265 -0.338997,0.876431 0,0.537434 0.355533,0.901235 0.363801,0.363802 0.901235,0.363802 0.78548,0 1.116209,-0.917772 z"
         id="path673" />
      <path
         d="m 98.880592,33.305052 h 3.092308 v 6.870885 q 0,1.893421 -0.99218,3.084043 -0.57051,0.686262 -1.455208,1.091405 -0.87643,0.405142 -1.80247,0.405142 -1.843812,0 -3.108848,-1.240232 -1.265037,-1.240232 -1.265037,-3.042702 0,-1.744593 1.256769,-3.017898 1.256768,-1.273305 2.976556,-1.273305 0.272851,0 0.826822,0.04961 v 3.406504 q -0.380338,-0.297656 -0.760676,-0.297656 -0.479556,0 -0.826821,0.355534 -0.338997,0.347265 -0.338997,0.843357 0,0.479557 0.355533,0.826822 0.355533,0.338996 0.851626,0.338996 1.190623,0 1.190623,-1.645374 z"
         id="path670" />
      <path
         d="m 111.70459,40.969685 h -4.68808 q -0.10749,-0.355533 -0.10749,-0.653188 0,-0.413411 0.14883,-0.810285 h 1.57096 q -0.16536,-0.917772 -1.03353,-0.917772 -0.57877,0 -0.94257,0.496093 -0.3638,0.487824 -0.3638,1.256768 0,0.802017 0.34726,1.29811 0.35553,0.496092 0.92604,0.496092 0.46302,0 0.89297,-0.463019 l 1.76113,2.116662 q -1.23197,0.967381 -2.73678,0.967381 -1.83554,0 -3.08404,-1.231964 -1.2485,-1.231964 -1.2485,-3.05097 0,-1.810739 1.25676,-3.059239 1.26504,-1.2485 3.10058,-1.2485 1.79421,0 3.00963,1.223695 1.2237,1.215428 1.2237,3.001362 0,0.1819 -0.0331,0.578774 z"
         id="path667" />
      <path
         d="m 118.50106,33.305052 v 11.286111 h -3.1998 V 33.305052 Z"
         id="path664" />
      <path
         d="m 130.51477,41.325219 v 3.265944 h -7.29256 l 3.62147,-6.796471 0.12403,-0.23151 q 0.14882,-0.272851 0.14882,-0.537434 0,-0.669725 -0.78548,-0.669725 -0.30592,0 -0.53743,0.23151 -0.22324,0.223241 -0.22324,0.529165 0,0.347265 0.29765,0.628384 l -1.44693,2.579683 q -0.90951,-0.562239 -1.39733,-1.430401 -0.48783,-0.868162 -0.48783,-1.918225 0,-1.628838 1.14929,-2.786388 1.14928,-1.165818 2.77812,-1.165818 1.6371,0 2.77812,1.149281 1.14928,1.149282 1.14928,2.794656 0,0.942577 -0.42168,1.752862 l -1.33945,2.604487 z"
         id="path661" />
      <path
         d="m 133.15233,33.305052 h 5.97792 l -1.84381,4.340812 q 0.99218,0.669725 1.43866,1.471742 0.45476,0.793748 0.45476,1.885152 0,1.628838 -1.19889,2.753315 -1.1989,1.116209 -2.95176,1.116209 -0.96738,0 -1.91822,-0.363801 V 41.31695 q 0.71933,0.446484 1.2485,0.446484 0.57877,0 0.96738,-0.413411 0.39687,-0.41341 0.39687,-1.025258 0,-0.702798 -0.58704,-1.116209 -0.58704,-0.421679 -1.57096,-0.421679 l 0.83509,-2.224149 h -1.2485 z"
         id="path658" />
      <path
         d="m 149.92027,33.305052 v 11.286111 h -3.17499 v -8.615478 l -1.4056,2.794656 h 0.69453 V 41.226 h -4.40696 l 3.34036,-7.920948 z"
         id="path655" />
      <path
         d="m 158.46133,33.305052 v 3.24114 h -2.77812 l -0.14883,0.512629 q 1.52135,0.438215 2.24895,1.265036 1.00046,1.124477 1.00046,2.695438 0,1.661911 -1.2237,2.761583 -1.21543,1.091404 -3.0675,1.091404 -1.24851,0 -2.46393,-0.653189 v -2.778119 q 0.96738,0.471288 1.70325,0.471288 0.76068,0 1.19889,-0.347265 0.44648,-0.347265 0.44648,-0.942577 0,-0.669725 -0.68626,-1.132745 -0.67799,-0.46302 -1.67845,-0.46302 -0.38033,0 -1.00872,0.14056 l 1.21543,-5.862163 z"
         id="path652" />
    </g>
  </g>
</svg>
