<?xml version="1.0" encoding="UTF-8" standalone="no"?>
<svg
   xmlns:dc="http://purl.org/dc/elements/1.1/"
   xmlns:cc="http://creativecommons.org/ns#"
   xmlns:rdf="http://www.w3.org/1999/02/22-rdf-syntax-ns#"
   xmlns:svg="http://www.w3.org/2000/svg"
   xmlns="http://www.w3.org/2000/svg"
   xmlns:sodipodi="http://sodipodi.sourceforge.net/DTD/sodipodi-0.dtd"
   xmlns:inkscape="http://www.inkscape.org/namespaces/inkscape"
   width="210mm"
   height="297mm"
   viewBox="0 0 210 297"
   version="1.1"
   id="svg5"
   inkscape:version="1.0.1 (3bc2e813f5, 2020-09-07)"
   sodipodi:docname="esitc-path.svg">
  <metadata
     id="metadata458">
    <rdf:RDF>
      <cc:Work
         rdf:about="">
        <dc:format>image/svg+xml</dc:format>
        <dc:type
           rdf:resource="http://purl.org/dc/dcmitype/StillImage" />
        <dc:title></dc:title>
      </cc:Work>
    </rdf:RDF>
  </metadata>
  <sodipodi:namedview
     id="namedview7"
     pagecolor="#ffffff"
     bordercolor="#666666"
     borderopacity="1.0"
     inkscape:showpageshadow="2"
     inkscape:pageopacity="0.0"
     inkscape:pagecheckerboard="0"
     inkscape:deskcolor="#d1d1d1"
     inkscape:document-units="mm"
     showgrid="false"
     inkscape:zoom="0.914906"
     inkscape:cx="297.8448"
     inkscape:cy="632.8519"
     inkscape:window-width="2560"
     inkscape:window-height="1377"
     inkscape:window-x="-8"
     inkscape:window-y="-8"
     inkscape:window-maximized="1"
     inkscape:current-layer="layer1"
     inkscape:document-rotation="0" />
  <defs
     id="defs2" />
  <g
     inkscape:label="Layer 1"
     inkscape:groupmode="layer"
     id="layer1">
    <g
       aria-label="Edwardian Script ITC ABCDEabcde12345"
       id="text515"
       style="font-stretch:semi-expanded;font-size:16.9333px;line-height:125%;font-family:'Edwardian Script ITC';-inkscape-font-specification:'Edwardian Script ITC, Semi-Expanded';letter-spacing:0px;word-spacing:0px;stroke-width:0.264583px"
       transform="translate(1.1567673,-96.300877)">
      <path
         d="m 25.369864,106.70553 q 0,0.55397 -1.016991,0.55397 -0.802016,0 -3.811646,-0.74414 -1.405596,0.80202 -1.405596,2.01744 0,0.58705 0.405142,0.81029 0.587044,-0.0496 0.884699,-0.0496 0.859894,0 0.859894,0.2067 0,0.1323 -0.454751,0.1323 -0.578775,0 -1.256769,-0.16537 -0.917771,0.13229 -2.133199,0.71107 -3.092311,1.48001 -3.092311,3.83645 0,1.56269 1.686715,1.98437 -0.305924,-0.50436 -0.305924,-1.16582 0,-1.62884 1.661911,-3.00136 1.661911,-1.37252 3.638014,-1.37252 0.909503,0 1.446937,0.44648 0.537434,0.44648 0.537434,1.19889 0,1.6123 -1.769398,2.91041 -1.769397,1.28984 -3.985278,1.28984 -0.446484,0 -0.83509,-0.0496 0.793749,1.0666 2.356441,1.0666 0.967381,0 1.579229,-0.28938 l 0.09922,-0.0165 q 0.04961,0.0165 0.04961,0.0661 0,0.11575 -0.611847,0.23977 -0.611848,0.1323 -1.116209,0.1323 -1.728057,0 -2.63756,-1.2485 -1.265037,-0.28112 -1.984371,-0.95085 -0.711066,-0.67799 -0.711066,-1.57096 0,-1.19889 0.992185,-2.24069 0.992186,-1.05006 2.645828,-1.58749 1.000454,-0.33073 2.290295,-0.47956 -0.917771,-0.3886 -0.917771,-1.23196 0,-1.08314 1.33945,-1.81074 -1.918225,-0.46302 -3.166725,-0.46302 -2.447391,0 -4.175448,1.22369 -1.719788,1.2237 -1.719788,2.96002 0,0.77722 0.454751,1.33119 0.454752,0.55397 1.091405,0.55397 0.438215,0 0.438215,-0.14056 0,-0.0744 -0.157096,-0.0496 -0.438215,0 -0.438215,-0.40514 0,-0.23151 0.190168,-0.39688 0.198438,-0.16536 0.471289,-0.16536 0.529165,0 0.529165,0.51263 0,0.33899 -0.305924,0.57877 -0.297655,0.23151 -0.727602,0.23151 -0.768944,0 -1.314646,-0.68626 -0.537434,-0.69453 -0.537434,-1.67018 0,-1.46347 1.273305,-2.68717 1.513083,-1.4552 4.249861,-1.4552 1.521351,0 4.051424,0.62011 1.141014,-0.55397 2.654097,-0.55397 1.124477,0 1.918225,0.30593 0.793749,0.29765 0.793749,0.7276 z m -0.173633,-0.0165 q 0,-0.32246 -0.686262,-0.5705 -0.677993,-0.24805 -1.562692,-0.24805 -1.215427,0 -2.215881,0.52916 2.191077,0.71107 3.687623,0.71107 0.777212,0 0.777212,-0.42168 z m -2.331636,5.34954 q 0,-0.59532 -0.471288,-0.98392 -0.471288,-0.38861 -1.190623,-0.38861 -1.777665,0 -3.472649,1.48001 -1.694984,1.47174 -1.694984,3.00963 0,0.44649 0.272851,0.90951 0.479557,0.0909 0.884699,0.0909 1.951298,0 3.811646,-1.34772 1.860348,-1.35599 1.860348,-2.76985 z"
         id="path831" />
      <path
         d="m 31.091467,107.5985 q -3.10058,4.92785 -3.910865,6.30037 -0.818553,1.39733 -0.818553,1.76113 0,0.37207 0.338997,0.37207 0.752407,0 2.554878,-2.62102 0.04961,-0.0827 0.09095,-0.0827 0.04961,0 0.04961,0.0496 -0.0083,0.0248 -0.08268,0.13229 l -0.355533,0.48782 q -1.562692,2.15801 -2.306831,2.15801 -0.380338,0 -0.620116,-0.28112 -0.239779,-0.28939 -0.239779,-0.73587 0,-0.44649 0.297656,-1.03353 -1.446937,2.05052 -2.149735,2.05052 -0.438216,0 -0.735871,-0.37207 -0.297656,-0.38034 -0.297656,-0.95085 0,-1.36425 1.694984,-2.47219 1.347718,-0.8847 2.116662,-0.8847 0.512629,0 0.512629,0.49609 0,0.23151 -0.140559,0.5209 l 2.951752,-4.94439 q 0.272851,0.0827 0.537434,0.0827 0.06614,0 0.512629,-0.0331 z m -3.985279,4.44003 q 0,-0.43822 -0.405142,-0.43822 -0.744139,0 -1.967835,1.48828 -1.215427,1.48001 -1.215427,2.38951 0,0.55397 0.454752,0.55397 0.661457,0 2.273758,-2.29856 0.859894,-1.24023 0.859894,-1.69498 z"
         id="path833" />
      <path
         d="m 36.598096,113.36144 q 0,0.0909 -0.529166,0.63665 -0.711066,0.75241 -1.2485,0.75241 -0.363801,0 -0.611848,-0.39687 -0.735871,1.01699 -1.198891,1.41386 -0.46302,0.38861 -0.934308,0.38861 -0.421679,0 -0.702798,-0.28112 -0.281119,-0.28939 -0.281119,-0.7028 0,-0.34727 0.223242,-0.83509 -1.240232,1.81901 -1.951299,1.81901 -0.355533,0 -0.603579,-0.28939 -0.239778,-0.28939 -0.239778,-0.69453 0,-0.47129 0.487824,-1.30638 l 1.372524,-2.32337 q 0.330728,0.0579 0.487824,0.0579 0.14056,0 0.545702,-0.0579 l -1.876884,3.06751 q -0.446484,0.71933 -0.446484,1.05006 0,0.37207 0.338997,0.37207 0.37207,0 1.107941,-0.82682 0.744139,-0.82682 1.471742,-2.06705 l 0.926039,-1.59577 q 0.446484,0.0413 0.562239,0.0413 0.289387,0 0.471288,-0.0413 l -1.728056,2.79466 q -0.570507,0.93431 -0.570507,1.28984 0,0.40514 0.421679,0.40514 0.843357,0 2.050517,-1.77766 -0.04961,-0.30593 -0.04961,-0.45475 0,-0.73588 0.454752,-1.52962 0.46302,-0.79375 0.892967,-0.79375 0.190169,0 0.190169,0.25631 0,0.69453 -1.355987,2.53834 0.206705,0.37207 0.545702,0.37207 0.620116,0 1.521351,-1.11621 0.165364,-0.19843 0.223242,-0.19843 0.02481,0 0.03307,0.0331 z"
         id="path835" />
      <path
         d="m 42.402382,113.37798 q 0,0.17363 -1.207159,1.60403 -0.975649,1.17409 -1.537888,1.17409 -0.380338,0 -0.620116,-0.28112 -0.239778,-0.28939 -0.239778,-0.71934 0,-0.44648 0.264583,-0.96738 -0.826822,1.15755 -1.265037,1.56269 -0.438215,0.40515 -0.851626,0.40515 -0.438215,0 -0.735871,-0.37207 -0.297655,-0.38034 -0.297655,-0.95085 0,-1.58749 2.240685,-2.81119 0.983918,-0.5457 1.587497,-0.5457 0.512629,0 0.512629,0.49609 0,0.14056 -0.06614,0.37207 l 0.421679,-0.80202 q 0.248046,0.0579 0.438215,0.0579 0.223242,0 0.578775,-0.0579 l -1.463474,2.42259 q -0.760676,1.2733 -0.760676,1.67845 0,0.3886 0.322461,0.3886 0.330728,0 1.058331,-0.7524 0.727603,-0.76068 1.48001,-1.86862 0.04961,-0.0827 0.09095,-0.0827 0.04961,0 0.04961,0.0496 z m -2.273759,-1.37253 q 0,-0.40514 -0.372069,-0.40514 -0.760676,0 -2.000908,1.48828 -1.231964,1.48828 -1.231964,2.40605 0,0.53743 0.479557,0.53743 0.570506,0 1.976103,-1.89342 1.149281,-1.55442 1.149281,-2.1332 z"
         id="path837" />
      <path
         d="m 47.131801,113.37798 q 0,0.0661 -0.496092,0.60358 -0.628385,0.69453 -1.182355,0.69453 -0.628384,0 -0.628384,-0.72761 0,-0.23151 0.09922,-0.58704 -0.520898,0.45475 -0.851626,0.90124 -0.322461,0.44648 -1.124477,1.819 -0.438216,-0.0331 -0.51263,-0.0331 -0.03307,0 -0.50436,0.0331 l 1.355986,-2.19934 q 1.016991,-1.65365 1.016991,-2.05052 0,-0.23151 -0.190169,-0.23151 -0.46302,0 -1.678448,1.77767 -0.07441,0.11575 -0.132291,0.11575 -0.03307,-0.008 -0.03307,-0.0496 0.0083,-0.0413 0.03307,-0.0661 l 0.148828,-0.20671 q 1.273305,-1.69498 1.728056,-1.69498 0.661457,0 0.661457,0.85162 0,0.63666 -0.677993,1.68672 0.429947,-0.49609 0.818553,-0.81029 0.314192,-0.73587 0.777212,-1.23196 0.471288,-0.49609 0.843358,-0.49609 0.256314,0 0.256314,0.22324 0,0.39687 -1.149281,1.13274 -0.181901,0.11576 -0.545702,0.339 l -0.09922,0.0827 q -0.115755,0.38034 -0.115755,0.62839 0,0.69453 0.520898,0.69453 0.64492,0 1.405596,-1.0666 0.165364,-0.1819 0.206705,-0.1819 0.04961,0 0.04961,0.0496 z"
         id="path839" />
      <path
         d="m 54.63107,107.5985 q -3.10058,4.92785 -3.910865,6.30037 -0.818553,1.39733 -0.818553,1.76113 0,0.37207 0.338997,0.37207 0.752407,0 2.554878,-2.62102 0.04961,-0.0827 0.09095,-0.0827 0.04961,0 0.04961,0.0496 -0.0083,0.0248 -0.08268,0.13229 l -0.355533,0.48782 q -1.562692,2.15801 -2.306831,2.15801 -0.380338,0 -0.620116,-0.28112 -0.239778,-0.28939 -0.239778,-0.73587 0,-0.44649 0.297655,-1.03353 -1.446937,2.05052 -2.149735,2.05052 -0.438215,0 -0.735871,-0.37207 -0.297656,-0.38034 -0.297656,-0.95085 0,-1.36425 1.694984,-2.47219 1.347719,-0.8847 2.116662,-0.8847 0.51263,0 0.51263,0.49609 0,0.23151 -0.14056,0.5209 l 2.951752,-4.94439 q 0.272851,0.0827 0.537434,0.0827 0.06615,0 0.512629,-0.0331 z m -3.985279,4.44003 q 0,-0.43822 -0.405142,-0.43822 -0.744139,0 -1.967835,1.48828 -1.215427,1.48001 -1.215427,2.38951 0,0.55397 0.454752,0.55397 0.661457,0 2.273758,-2.29856 0.859894,-1.24023 0.859894,-1.69498 z"
         id="path841" />
      <path
         d="m 55.664597,109.95494 q 0,0.28938 -0.248047,0.5457 -0.239778,0.24804 -0.529165,0.24804 -0.37207,0 -0.37207,-0.37206 0,-0.27286 0.256315,-0.5209 0.256314,-0.25632 0.537434,-0.25632 0.355533,0 0.355533,0.35554 z m 0.115755,3.42304 q -0.0083,0.0248 -0.08268,0.13229 l -0.355534,0.48782 q -1.554424,2.15801 -2.372977,2.15801 -0.388606,0 -0.653188,-0.27286 -0.256315,-0.28111 -0.256315,-0.69452 0,-0.47956 0.570507,-1.45521 l 1.289841,-2.19108 q 0.256314,0.0579 0.405142,0.0579 0.223242,0 0.628384,-0.0579 l -1.876884,3.08405 q -0.405142,0.66972 -0.405142,1.03352 0,0.37207 0.388606,0.37207 0.735871,0 2.58795,-2.62102 0.04134,-0.0827 0.08268,-0.0827 0.04961,0 0.04961,0.0496 z"
         id="path843" />
      <path
         d="m 61.609442,113.37798 q 0,0.17363 -1.20716,1.60403 -0.975649,1.17409 -1.537887,1.17409 -0.380338,0 -0.620116,-0.28112 -0.239778,-0.28939 -0.239778,-0.71934 0,-0.44648 0.264583,-0.96738 -0.826822,1.15755 -1.265037,1.56269 -0.438215,0.40515 -0.851626,0.40515 -0.438215,0 -0.735871,-0.37207 -0.297656,-0.38034 -0.297656,-0.95085 0,-1.58749 2.240686,-2.81119 0.983917,-0.5457 1.587497,-0.5457 0.512629,0 0.512629,0.49609 0,0.14056 -0.06614,0.37207 l 0.421678,-0.80202 q 0.248047,0.0579 0.438216,0.0579 0.223241,0 0.578775,-0.0579 l -1.463474,2.42259 q -0.760676,1.2733 -0.760676,1.67845 0,0.3886 0.322461,0.3886 0.330728,0 1.058331,-0.7524 0.727603,-0.76068 1.48001,-1.86862 0.04961,-0.0827 0.09095,-0.0827 0.04961,0 0.04961,0.0496 z m -2.273759,-1.37253 q 0,-0.40514 -0.37207,-0.40514 -0.760675,0 -2.000907,1.48828 -1.231964,1.48828 -1.231964,2.40605 0,0.53743 0.479557,0.53743 0.570506,0 1.976102,-1.89342 1.149282,-1.55442 1.149282,-2.1332 z"
         id="path845" />
      <path
         d="m 68.248817,113.37798 q 0,0.17363 -1.198891,1.60403 -0.983918,1.17409 -1.546156,1.17409 -0.37207,0 -0.628384,-0.28939 -0.248047,-0.28939 -0.248047,-0.71107 0,-0.37207 0.148828,-0.68626 0.157096,-0.32246 0.802017,-1.26504 0.669725,-0.99218 0.669725,-1.26503 0,-0.339 -0.355533,-0.339 -1.207159,0 -3.720696,4.48137 -0.405142,-0.0331 -0.487824,-0.0331 -0.289388,0 -0.545703,0.0331 l 1.289842,-2.04225 q 1.099672,-1.75286 1.099672,-2.19107 0,-0.24805 -0.206705,-0.24805 -0.421679,0 -1.661911,1.77767 -0.07441,0.10748 -0.115755,0.11575 -0.04134,0 -0.04961,-0.0496 0.0083,-0.0413 0.03307,-0.0661 l 0.157097,-0.20671 q 1.265036,-1.69498 1.703251,-1.69498 0.28112,0 0.479557,0.25631 0.198437,0.25632 0.198437,0.61185 0,0.52917 -0.620116,1.47174 0.975649,-1.34772 1.496546,-1.84381 0.529166,-0.49609 0.97565,-0.49609 0.363801,0 0.611847,0.29765 0.248047,0.29766 0.248047,0.73587 0,0.55397 -0.760676,1.69499 -0.777212,1.16582 -0.777212,1.48828 0,0.33899 0.338997,0.33899 0.735871,0 2.538341,-2.62102 0.04134,-0.0827 0.08268,-0.0827 0.04961,0 0.04961,0.0496 z"
         id="path847" />
      <path
         d="m 86.538104,105.15937 q 0,0.39688 -0.802016,1.14928 -0.793749,0.74414 -1.94303,1.43041 -0.148828,0.47128 -0.438216,1.71152 -0.46302,1.94303 -0.851626,2.76158 -0.388606,0.81028 -1.281573,1.65364 -2.579682,2.43912 -5.77948,2.43912 -0.917772,0 -1.62057,-0.30592 -0.388606,0.76068 -0.388606,1.32291 0,0.71107 0.471288,1.30638 0.04961,0.0496 0.04961,0.11576 0,0.0661 -0.08268,0.0661 -0.190169,0 -0.41341,-0.51263 -0.214974,-0.51263 -0.214974,-0.95911 0,-0.64492 0.421679,-1.42213 -1.728057,-0.89297 -1.728057,-3.06751 0,-1.39733 0.826822,-2.77812 0.826821,-1.38079 2.323367,-2.48873 1.909958,-1.4056 3.778574,-1.4056 1.01699,0 1.612301,0.57051 0.60358,0.57051 0.60358,1.54616 0,0.52089 -0.148828,1.08313 1.215427,-0.81028 2.149735,-1.37252 0.595312,-1.29811 1.496547,-2.23242 0.901235,-0.93431 1.57096,-0.93431 0.388606,0 0.388606,0.32246 z m -0.157096,0.0165 q 0,-0.19844 -0.23151,-0.19844 -0.55397,0 -1.240232,0.76895 -0.677993,0.76067 -1.050063,1.78593 1.091404,-0.66973 1.802471,-1.33945 0.719334,-0.66973 0.719334,-1.01699 z m -5.738139,4.57232 -0.545703,0.37207 q -3.117116,2.14974 -4.497907,3.58014 0.347265,0.1819 0.744139,0.1819 1.15755,0 2.422586,-1.21543 1.265037,-1.21543 1.876885,-2.91868 z m 2.339904,-1.52135 q -0.967381,0.61185 -2.116663,1.38906 -0.545702,1.75286 -1.918225,3.07577 -1.364255,1.32292 -2.621024,1.32292 -0.380337,0 -0.835089,-0.19844 -0.934308,0.96738 -1.587497,2.03398 0.677993,0.30593 1.537888,0.30593 1.554424,0 3.009629,-0.87643 1.455206,-0.8847 2.497,-2.4474 0.487825,-0.7276 0.768944,-1.34771 0.281119,-0.62839 0.909504,-2.35644 0.148827,-0.42995 0.355533,-0.90124 z m -2.050517,0.0331 q 0,-0.86816 -0.55397,-1.39733 -0.545702,-0.52916 -1.446938,-0.52916 -2.224149,0 -4.307738,2.3151 -2.075322,2.3151 -2.075322,4.79556 0,1.62884 1.198891,2.3151 0.562238,-0.92604 1.612302,-2.02571 -0.545703,-0.47129 -0.545703,-1.12448 0,-0.49609 0.314193,-0.84336 0.314192,-0.35553 0.760675,-0.35553 0.55397,0 0.55397,0.51263 0,0.26458 -0.206705,0.46302 -0.206705,0.19017 -0.487824,0.19017 -0.405143,0 -0.405143,-0.38861 0,-0.12402 0.08268,-0.26458 0.03307,-0.10749 0.03307,-0.12402 0,-0.0496 -0.04961,-0.0496 -0.14056,0 -0.289388,0.29765 -0.148827,0.29766 -0.148827,0.58705 0,0.5457 0.50436,0.97565 1.661911,-1.75286 5.250316,-4.09277 0.206705,-0.7276 0.206705,-1.25677 z"
         id="path849" />
      <path
         d="m 87.315318,113.37798 q 0,0.10748 -1.165818,1.38906 -1.273305,1.38906 -2.166272,1.38906 -0.578775,0 -0.992185,-0.43822 -0.413411,-0.44648 -0.413411,-1.05833 0,-0.69453 0.562239,-1.43867 0.562238,-0.74414 1.513082,-1.28157 0.802017,-0.46302 1.306378,-0.46302 0.611848,0 0.611848,0.7276 0,0.57051 -0.388606,1.14101 -0.380338,0.57051 -0.760676,0.57051 -0.372069,0 -0.372069,-0.37207 0,-0.43821 0.760675,-0.81028 0.587043,-0.28939 0.587043,-0.76068 0,-0.37207 -0.405142,-0.37207 -0.686262,0 -1.686715,1.36426 -1.000454,1.36425 -1.000454,2.29029 0,0.77721 0.727603,0.77721 1.141013,0 3.092311,-2.57141 0.107487,-0.13229 0.157096,-0.13229 0.03307,0.008 0.03307,0.0496 z"
         id="path851" />
      <path
         d="m 92.028194,113.37798 q 0,0.0661 -0.496093,0.60358 -0.628384,0.69453 -1.182354,0.69453 -0.628384,0 -0.628384,-0.72761 0,-0.23151 0.09922,-0.58704 -0.520897,0.45475 -0.851626,0.90124 -0.32246,0.44648 -1.124476,1.819 -0.438216,-0.0331 -0.51263,-0.0331 -0.03307,0 -0.504361,0.0331 l 1.355987,-2.19934 q 1.01699,-1.65365 1.01699,-2.05052 0,-0.23151 -0.190168,-0.23151 -0.46302,0 -1.678448,1.77767 -0.07441,0.11575 -0.132291,0.11575 -0.03307,-0.008 -0.03307,-0.0496 0.0083,-0.0413 0.03307,-0.0661 l 0.148828,-0.20671 q 1.273305,-1.69498 1.728056,-1.69498 0.661457,0 0.661457,0.85162 0,0.63666 -0.677993,1.68672 0.429947,-0.49609 0.818553,-0.81029 0.314192,-0.73587 0.777212,-1.23196 0.471288,-0.49609 0.843358,-0.49609 0.256314,0 0.256314,0.22324 0,0.39687 -1.149281,1.13274 -0.181901,0.11576 -0.545702,0.339 l -0.09922,0.0827 q -0.115755,0.38034 -0.115755,0.62839 0,0.69453 0.520897,0.69453 0.644921,0 1.405597,-1.0666 0.165364,-0.1819 0.206705,-0.1819 0.04961,0 0.04961,0.0496 z"
         id="path853" />
      <path
         d="m 94.731899,109.95494 q 0,0.28938 -0.248046,0.5457 -0.239778,0.24804 -0.529166,0.24804 -0.372069,0 -0.372069,-0.37206 0,-0.27286 0.256314,-0.5209 0.256315,-0.25632 0.537434,-0.25632 0.355533,0 0.355533,0.35554 z m 0.115755,3.42304 q -0.0083,0.0248 -0.08268,0.13229 l -0.355533,0.48782 q -1.554424,2.15801 -2.372977,2.15801 -0.388606,0 -0.653189,-0.27286 -0.256314,-0.28111 -0.256314,-0.69452 0,-0.47956 0.570506,-1.45521 l 1.289842,-2.19108 q 0.256314,0.0579 0.405142,0.0579 0.223242,0 0.628384,-0.0579 l -1.876884,3.08405 q -0.405143,0.66972 -0.405143,1.03352 0,0.37207 0.388606,0.37207 0.735871,0 2.587951,-2.62102 0.04134,-0.0827 0.08268,-0.0827 0.04961,0 0.04961,0.0496 z"
         id="path855" />
      <path
         d="m 98.799864,112.7992 q 0,1.34772 -1.678447,2.45566 -1.364256,0.90124 -2.133199,0.90124 -0.529166,0 -0.529166,-0.4961 0,-0.14882 0.08268,-0.40514 l -3.166725,5.28339 q -0.289388,-0.0662 -0.471289,-0.0662 -0.272851,0 -0.537433,0.0992 l 6.788202,-11.16209 q 0.223242,0.0744 0.438216,0.0744 0.223241,0 0.545702,-0.0744 l -2.45566,3.96875 q 0.884699,-1.17409 1.281573,-1.53789 0.405143,-0.3638 0.802017,-0.3638 0.438215,0 0.735871,0.38034 0.297656,0.38033 0.297656,0.94257 z m -0.611848,-0.66146 q 0,-0.53743 -0.479556,-0.53743 -0.60358,0 -2.025713,1.94303 -1.099672,1.50482 -1.099672,2.06705 0,0.42168 0.388606,0.42168 0.760676,0 1.984371,-1.48001 1.231964,-1.48828 1.231964,-2.41432 z"
         id="path857" />
      <path
         d="m 102.4048,111.47629 -0.0661,0.12402 h -1.08314 l -1.843809,3.15019 q -0.338997,0.57051 -0.338997,0.9095 0,0.37207 0.388606,0.37207 0.75241,0 2.53834,-2.62102 0.0579,-0.0827 0.0992,-0.0827 0.0496,0 0.0496,0.0496 -0.008,0.0248 -0.0827,0.13229 l -0.35554,0.48782 q -1.55442,2.15801 -2.3399,2.15801 -0.388606,0 -0.653189,-0.28112 -0.256314,-0.28112 -0.256314,-0.7028 0,-0.49609 0.438215,-1.24023 l 1.389058,-2.33164 h -0.843356 l 0.08268,-0.12402 h 0.826826 l 0.96738,-1.60404 q 0.24804,0.0662 0.47129,0.0662 0.23151,0 0.47955,-0.0662 l -0.95084,1.60404 z"
         id="path859" />
      <path
         d="m 120.82638,105.02708 q 0,0.14056 -0.68626,0.44648 -0.67799,0.29766 -1.55442,0.53744 -2.05879,1.47174 -4.07623,5.25031 l -0.13229,0.24805 q 0.0992,0.0165 0.23151,0.0165 1.00872,0 1.86035,-0.62012 0.85162,-0.62012 1.03352,-1.49655 0.0331,-0.13229 0.0909,-0.13229 0.0496,0 0.0496,0.0662 0,0.50436 -0.5457,1.14928 -0.97565,1.17409 -2.52181,1.17409 -0.14882,0 -0.28938,-0.0165 l -0.23151,0.45475 q -0.60358,1.15755 -1.0666,1.71979 -0.42995,0.52917 -1.17409,1.05833 -2.07532,1.47174 -4.24986,1.47174 -1.21543,0 -2.00918,-0.51263 -0.78548,-0.51263 -0.78548,-1.31464 0,-0.42995 0.23978,-0.7276 0.24805,-0.30593 0.59531,-0.30593 0.53744,0 0.53744,0.56224 0,0.27285 -0.1819,0.46302 -0.17364,0.19017 -0.42995,0.19017 -0.38861,0 -0.38861,-0.37207 v -0.16537 q 0,-0.0744 -0.0496,-0.0827 -0.14882,0 -0.14882,0.42168 0,0.71107 0.69453,1.19889 0.69453,0.47956 1.72805,0.47956 2.48874,0 4.48137,-2.48873 0.58705,-0.73587 1.57923,-2.27376 -1.40559,-0.61185 -1.40559,-1.9761 0,-1.65365 1.86034,-2.45566 0.94258,-0.41341 2.96829,-0.75241 l 0.90951,-0.14883 0.77721,-0.16536 q 0.44648,-0.33073 1.15755,-0.65319 0.71933,-0.33073 0.99218,-0.33073 0.14056,0 0.14056,0.0827 z m -2.48873,1.05006 q -0.19017,0.0413 -0.56224,0.1323 -0.30592,0.0827 -0.89296,0.22324 -2.01745,0.47955 -3.21634,1.41386 -1.19062,0.92604 -1.19062,2.00918 0,1.04179 1.01699,1.47174 2.19108,-3.49745 4.84517,-5.25032 z"
         id="path861" />
      <path
         d="m 135.33709,105.82083 q 0,0.44648 -0.89296,0.76068 -0.89297,0.30592 -2.18281,0.30592 -1.29811,0 -3.22461,-0.35553 -1.01699,0.52916 -1.86034,1.57096 -0.84336,1.03352 -1.81074,2.93521 -0.96738,1.90169 -1.42214,2.53834 -0.44648,0.62839 -1.23196,1.2237 -2.07532,1.53789 -4.30774,1.53789 -1.19062,0 -1.9513,-0.50436 -0.7524,-0.50437 -0.7524,-1.30638 0,-0.40514 0.23977,-0.69453 0.23978,-0.28939 0.57051,-0.28939 0.53744,0 0.53744,0.56224 0,0.26458 -0.16537,0.45475 -0.16536,0.19017 -0.40514,0.19017 -0.38861,0 -0.38861,-0.38034 0,-0.19844 -0.0661,-0.19844 -0.14056,0 -0.14056,0.40515 0,0.66972 0.68626,1.13274 0.69453,0.46302 1.70325,0.46302 2.21588,0 3.97701,-2.00091 0.82682,-0.9343 2.1332,-3.08404 2.1332,-3.48918 4.45657,-4.58886 -0.44649,-0.0744 -1.33945,-0.27285 -2.10013,-0.45475 -3.21634,-0.45475 -0.11575,0 -0.69453,0.0331 0.38861,0.72761 0.38861,1.66191 0,1.81901 -1.38079,3.41478 -1.3808,1.59576 -2.95176,1.59576 -0.65318,0 -1.0666,-0.42995 -0.40514,-0.43821 -0.40514,-1.12447 0,-0.94258 0.71107,-2.08359 0.71933,-1.14928 1.85208,-2.00091 1.14101,-0.85989 2.497,-1.19889 -0.65319,-0.8847 -1.86035,-0.8847 -1.01699,0 -2.05878,0.59531 -1.03353,0.58704 -1.81901,1.60404 -0.11576,0.15709 -0.1571,0.15709 -0.0496,0 -0.0661,-0.0496 0,-0.14056 0.67799,-0.81855 1.62884,-1.62057 3.4065,-1.62057 1.3808,0 2.10013,0.96738 1.00045,-0.28939 2.29856,-0.28939 0.66973,0 1.2237,0.0827 0.58704,0.091 2.87734,0.56224 1.90995,-0.83509 3.67108,-0.83509 1.81074,0 1.81074,0.71107 z m -0.13229,0.0165 q 0,-0.23978 -0.47129,-0.40515 -0.46302,-0.16536 -1.17408,-0.16536 -1.7694,0 -3.43131,0.74414 0.2067,0.0331 1.09967,0.19844 1.32291,0.25631 2.34817,0.25631 0.66973,0 1.14928,-0.1819 0.47956,-0.19017 0.47956,-0.44648 z m -11.55069,1.22369 q 0,-0.66146 -0.30593,-1.22369 -1.85208,0.30592 -3.44784,1.90995 -1.59577,1.60404 -1.59577,3.15846 0,0.59531 0.36381,1.00045 0.37206,0.40515 0.9095,0.40515 1.39733,0 2.73678,-1.71979 1.33945,-1.72806 1.33945,-3.53053 z"
         id="path863" />
      <path
         d="m 140.1988,106.78821 q 0,0.53743 -0.74414,1.11621 0.678,1.00045 0.678,1.84381 0,0.20671 -0.12403,0.20671 -0.0992,0 -0.0992,-0.27285 0,-0.82683 -0.57877,-1.67845 -1.19889,0.89297 -3.26594,1.54615 -2.05879,0.64492 -3.65455,0.64492 -0.22325,0 -0.38861,-0.0165 -1.32291,1.84381 -1.32291,3.55533 0,1.16582 0.71933,1.84381 0.7276,0.67799 1.9761,0.67799 2.35644,0 4.20026,-2.25722 1.1162,-1.36425 1.1162,-2.58795 0,-0.64492 -0.3886,-1.02526 -0.38861,-0.38033 -1.03353,-0.38033 -1.03353,0 -2.22415,1.0914 -1.18235,1.08314 -1.18235,2.02571 0,0.0827 0.0496,0.0827 0.0413,-0.008 0.0661,-0.0331 0.22324,-0.19844 0.41341,-0.19844 0.42168,0 0.42168,0.45476 0,0.61184 -0.59531,0.61184 -0.5457,0 -0.5457,-0.66145 0,-1.18236 1.19889,-2.33991 1.19889,-1.16582 2.43085,-1.16582 1.5875,0 1.5875,1.7446 0,1.80247 -1.72806,3.29075 -1.71978,1.48001 -3.81991,1.48001 -1.46347,0 -2.46393,-0.98392 -0.99218,-0.98392 -0.99218,-2.43086 0,-1.40559 0.98391,-2.8856 -3.58013,-0.66146 -3.58013,-2.82773 0,-1.28984 1.33118,-2.158 1.33118,-0.86817 3.31555,-0.86817 2.76986,0 5.59758,1.84381 0.48783,-0.0992 1.00046,-0.0992 1.64537,0 1.64537,0.81028 z m -0.13229,0 q 0,-0.67799 -1.32291,-0.67799 -0.41341,0 -0.98392,0.11575 0.98392,0.678 1.62884,1.57923 0.67799,-0.57877 0.67799,-1.01699 z m -0.80202,1.09967 q -0.63665,-0.91777 -1.71152,-1.62883 -1.54615,0.42167 -3.01789,1.4552 -1.47175,1.02526 -2.41432,2.3399 1.72805,0 3.81991,-0.62838 2.10013,-0.63665 3.32382,-1.53789 z m -1.94303,-1.77766 q -2.51353,-1.45521 -5.34953,-1.45521 -1.75286,0 -3.06751,0.82682 -1.30637,0.82682 -1.30637,1.93476 0,1.97611 3.35689,2.55488 2.08359,-2.90214 6.36652,-3.86125 z"
         id="path865" />
      <path
         d="m 22.575208,128.73205 q 0,0.091 -0.305924,0.43821 -0.843358,0.96738 -1.595765,0.96738 -0.479557,0 -0.785481,-0.33072 -0.297655,-0.339 -0.297655,-0.8847 0,-0.46302 0.545702,-1.49655 0.256314,-0.47956 0.256314,-0.79375 0,-0.41341 -0.46302,-0.7028 -0.454751,-0.29765 -1.116208,-0.29765 -1.893421,0 -3.513991,1.4552 -1.612301,1.45521 -1.612301,3.15019 0,0.8599 0.537434,1.4056 0.545702,0.5457 1.405596,0.5457 0.934308,0 1.876884,-0.67799 0.950845,-0.68626 1.339451,-1.64538 0.0248,-0.0827 0.06615,-0.0827 0.07441,0 0.07441,0.0827 0,0.17364 -0.289387,0.62012 -0.289388,0.43821 -0.595312,0.73587 -1.116208,1.09967 -2.505268,1.09967 -0.942576,0 -1.513083,-0.57877 -0.570507,-0.57878 -0.570507,-1.53789 0,-1.74459 1.678447,-3.23287 1.686716,-1.48828 3.654551,-1.48828 0.868162,0 1.355987,0.42995 0.496092,0.42994 0.496092,1.18235 0,0.56224 -0.396874,1.33118 -0.355533,0.7028 -0.355533,0.95085 0,0.61185 0.727603,0.61185 0.826821,0 1.71152,-1.2237 0.07441,-0.0992 0.124023,-0.0992 0.06615,0 0.06615,0.0661 z m 8.855256,-1.50482 q 0,0.14883 -0.173633,0.14883 -0.07441,0 -0.55397,-0.0992 -0.884699,-0.1819 -1.471742,-0.1819 -1.331182,0.40514 -2.356441,1.57096 -1.01699,1.16582 -2.323367,3.77858 -2.000908,4.01008 -5.126292,4.73768 0.653188,0.0992 1.132745,0.0992 1.521351,0 2.554877,-0.97565 1.000454,-0.94258 1.661911,-2.00091 0.07441,-0.11575 0.115755,-0.11575 0.04961,0 0.05788,0.0331 0,0.12402 -0.950845,1.28157 -0.884699,1.08314 -1.612301,1.49655 -0.727603,0.40514 -1.777666,0.40514 -0.60358,0 -1.471742,-0.17363 -0.529166,0.17363 -1.215427,0.17363 -0.479557,0 -0.479557,-0.17363 0,-0.19844 0.644921,-0.19844 0.454752,0 1.050063,0.0827 1.281573,-0.30593 1.934762,-1.00873 0.661457,-0.70279 2.538341,-3.80337 h -3.183262 q -2.025712,2.13319 -3.133652,3.03443 -2.587951,2.10013 -4.878246,2.10013 -1.306378,0 -2.224149,-0.61185 -0.9095037,-0.61185 -0.9095037,-1.48828 0,-0.45475 0.272851,-0.77721 0.2811192,-0.32246 0.6779937,-0.32246 0.537434,0 0.537434,0.5209 0,0.27285 -0.190169,0.47128 -0.181901,0.19017 -0.429947,0.19017 -0.3886064,0 -0.3886064,-0.37207 l 0.016536,-0.16536 q 0.016537,-0.0331 0.016537,-0.0909 0,-0.0827 -0.074414,-0.0827 -0.082682,0 -0.1653643,0.2067 -0.082682,0.20671 -0.082682,0.42168 0,0.81028 0.8516257,1.37252 0.851626,0.55397 2.091858,0.55397 1.777666,0 3.910865,-1.74459 0.487824,-0.38861 1.083136,-1.02526 1.182354,-1.24023 1.885152,-1.93476 l 0.248046,-0.25631 H 17.93674 l 0.09922,-0.14883 q 0.793748,0 1.628838,0.0165 2.422586,-2.69543 4.696345,-3.93566 2.282026,-1.24851 4.820368,-1.26504 0.587043,-0.11576 1.099672,-0.11576 1.149282,0 1.149282,0.37207 z m -2.621024,-0.0992 q -2.158003,0.10749 -4.001815,1.24024 -1.843811,1.13274 -4.249861,3.80337 h 3.133652 q 1.058332,-1.84381 2.554878,-3.30728 1.471742,-1.45521 2.563146,-1.73633 z"
         id="path867" />
      <path
         d="m 43.758369,128.53361 q 0,0.42995 -0.115755,0.94258 -0.115755,0.51263 -0.223242,0.51263 -0.08268,0 -0.08268,-0.0827 0,-0.0248 0.01654,-0.0744 0.223242,-0.57877 0.223242,-1.2485 0,-1.04179 -0.620116,-1.67018 -0.620116,-0.63665 -1.637106,-0.63665 -1.364255,0 -2.811192,0.90123 1.157549,0.8599 1.157549,2.00918 0,1.84381 -2.505268,2.19108 2.058785,0.71933 2.058785,2.63756 0,1.42213 -1.215427,2.48873 -1.207159,1.0666 -2.827729,1.0666 -0.777212,0 -1.240232,-0.40515 -0.454752,-0.39687 -0.454752,-1.08313 0,-1.05833 0.967381,-2.09186 0.975649,-1.04179 1.959567,-1.04179 0.545702,0 0.892967,0.34726 0.347264,0.339 0.347264,0.87643 0,0.32246 -0.198437,0.80202 -0.198437,0.47955 -0.32246,0.47955 -0.09095,0 -0.09095,-0.0661 0,-0.0331 0.03307,-0.0992 0.429947,-0.62838 0.429947,-1.13274 0,-0.47129 -0.305924,-0.76068 -0.305924,-0.28939 -0.802017,-0.28939 -0.934308,0 -1.827275,0.98392 -0.892967,0.98392 -0.892967,2.00918 0,0.5457 0.37207,0.9095 0.372069,0.3638 0.926039,0.3638 1.265037,0 2.3151,-1.2237 1.058331,-1.23196 1.058331,-2.7037 0,-1.37252 -1.322914,-2.01744 l -0.479556,0.0579 q -0.198437,0.0248 -0.396874,0.0248 -0.628384,0 -0.628384,-0.20671 0,-0.14883 0.520897,-0.14883 0.37207,0 0.983917,0.14883 0.859894,-0.26458 1.355987,-0.92604 0.504361,-0.66145 0.504361,-1.52135 0,-0.82682 -0.636652,-1.49655 -1.810739,1.38906 -3.406504,4.71289 -0.983917,2.04224 -1.80247,2.96002 -0.793749,0.88469 -2.257222,1.6123 -1.728057,0.84336 -3.084044,0.84336 -1.10794,0 -1.843811,-0.50437 -0.735871,-0.51262 -0.735871,-1.2733 0,-0.42168 0.248046,-0.7276 0.256315,-0.30593 0.60358,-0.30593 0.504361,0 0.504361,0.56224 0,0.28112 -0.173633,0.47956 -0.165364,0.19843 -0.41341,0.19843 -0.429948,0 -0.413411,-0.44648 0.0083,-0.1819 -0.03307,-0.1819 -0.132291,0 -0.132291,0.43822 0,0.68626 0.669725,1.14101 0.677993,0.45475 1.703252,0.45475 1.810738,0 3.28248,-1.33945 0.636653,-0.57877 1.107941,-1.20716 0.471288,-0.63665 2.158003,-3.21633 0.818553,-1.23197 1.967835,-2.50527 1.149282,-1.27331 1.926494,-1.81074 -1.306378,-1.09967 -3.786842,-1.09967 -3.489186,0 -6.068868,2.5218 -2.116663,2.06706 -2.116663,3.89433 0,0.92604 0.595312,1.47174 0.595311,0.5457 1.612301,0.5457 1.661911,0 3.431309,-1.59576 1.777665,-1.59577 1.777665,-3.10058 0,-1.19889 -1.231963,-1.19889 -1.231964,0 -2.645829,1.37252 -1.405596,1.36426 -1.405596,2.57142 0,0.29765 0.198437,0.51263 0.198437,0.21497 0.46302,0.21497 0.14056,0.0248 0.14056,0.0661 0,0.0744 -0.157096,0.0744 -0.396874,0 -0.669725,-0.35553 -0.272851,-0.36381 -0.272851,-0.8847 0,-1.28158 1.413864,-2.497 1.413864,-1.2237 2.902143,-1.2237 1.422132,0 1.422132,1.31465 0,1.60403 -1.810738,3.24114 -1.810739,1.6371 -3.571868,1.6371 -1.149282,0 -1.843812,-0.68626 -0.686261,-0.69453 -0.686261,-1.85208 0,-2.3399 2.63756,-4.2664 2.645828,-1.93476 5.845626,-1.93476 2.40605,0 4.084497,1.08314 1.513083,-0.94258 2.926948,-0.94258 1.10794,0 1.777665,0.66146 0.677994,0.66145 0.677994,1.74459 z"
         id="path869" />
      <path
         d="m 54.771629,127.95484 q 0,0.53743 -0.74414,1.1162 0.677994,1.00046 0.677994,1.84382 0,0.2067 -0.124023,0.2067 -0.09922,0 -0.09922,-0.27285 0,-0.82682 -0.578775,-1.67845 -1.198891,0.89297 -3.265944,1.54616 -2.058785,0.64492 -3.65455,0.64492 -0.223242,0 -0.388606,-0.0165 -1.322914,1.84381 -1.322914,3.55533 0,1.16582 0.719334,1.84382 0.727603,0.67799 1.976103,0.67799 2.356441,0 4.200253,-2.25722 1.116208,-1.36426 1.116208,-2.58795 0,-0.64492 -0.388606,-1.02526 -0.388606,-0.38034 -1.033526,-0.38034 -1.033527,0 -2.22415,1.0914 -1.182354,1.08314 -1.182354,2.02572 0,0.0827 0.04961,0.0827 0.04134,-0.008 0.06615,-0.0331 0.223242,-0.19844 0.413411,-0.19844 0.421678,0 0.421678,0.45475 0,0.61185 -0.595311,0.61185 -0.545702,0 -0.545702,-0.66146 0,-1.18235 1.198891,-2.3399 1.198891,-1.16582 2.430854,-1.16582 1.587497,0 1.587497,1.74459 0,1.80247 -1.728056,3.29075 -1.719788,1.48001 -3.819914,1.48001 -1.463474,0 -2.463928,-0.98392 -0.992185,-0.98391 -0.992185,-2.43085 0,-1.4056 0.983917,-2.88561 -3.580136,-0.66145 -3.580136,-2.82773 0,-1.28984 1.331182,-2.158 1.331182,-0.86816 3.315553,-0.86816 2.769852,0 5.59758,1.84381 0.487825,-0.0992 1.000454,-0.0992 1.645375,0 1.645375,0.81029 z m -0.132292,0 q 0,-0.678 -1.322914,-0.678 -0.413411,0 -0.983917,0.11576 0.983917,0.67799 1.628838,1.57923 0.677993,-0.57878 0.677993,-1.01699 z m -0.802016,1.09967 q -0.636653,-0.91777 -1.711521,-1.62884 -1.546155,0.42168 -3.017897,1.45521 -1.471742,1.02525 -2.414318,2.3399 1.728056,0 3.819914,-0.62838 2.100126,-0.63666 3.323822,-1.53789 z m -1.943031,-1.77767 q -2.513536,-1.4552 -5.349533,-1.4552 -1.752861,0 -3.067507,0.82682 -1.306378,0.82682 -1.306378,1.93476 0,1.9761 3.356895,2.55488 2.083589,-2.90214 6.366523,-3.86126 z"
         id="path871" />
      <path
         d="m 73.64796,128.63283 q 0,0.42168 -0.09922,0.89297 -0.09922,0.46302 -0.190168,0.46302 -0.04961,0 -0.04961,-0.0496 0,-0.0579 0.01654,-0.10749 0.190169,-0.50436 0.190169,-1.18235 0,-1.0418 -0.636653,-1.67018 -0.628384,-0.63666 -1.670179,-0.63666 -2.000907,0 -3.877792,1.90169 0.711067,1.32292 0.711067,2.79466 0,2.71197 -2.08359,4.59713 -2.075321,1.88515 -5.076683,1.88515 -0.92604,0 -2.538341,-0.25632 -1.397328,0.25632 -2.678901,0.25632 -2.182808,0 -2.182808,-0.43822 0,-0.21497 0.529165,-0.38033 0.537434,-0.16537 1.248501,-0.16537 0.859894,0 3.42304,0.56224 1.728056,-0.45475 2.720242,-1.4304 0.967381,-0.95085 2.968288,-4.14238 1.207159,-1.93476 2.654096,-3.29901 -1.207159,-2.03398 -3.910864,-2.03398 -2.794656,0 -5.126292,2.19934 -1.174086,1.10794 -1.876885,2.44739 -0.702798,1.33945 -0.702798,2.46393 0,0.89297 0.562239,1.4304 0.570507,0.53743 1.504815,0.53743 1.579228,0 3.274212,-1.70325 1.703252,-1.70325 1.703252,-3.27421 0,-0.59531 -0.330729,-0.95911 -0.330728,-0.3638 -0.868162,-0.3638 -0.611848,0 -0.611848,0.19843 0,0.0579 0.09095,0.0579 0.04961,0 0.08268,-0.0165 h 0.115755 q 0.405142,0 0.405142,0.37207 0,0.27285 -0.206705,0.47956 -0.206706,0.19844 -0.487825,0.19844 -0.504361,0 -0.504361,-0.5457 0,-0.37207 0.330729,-0.63666 0.330728,-0.26458 0.802016,-0.26458 0.60358,0 0.975649,0.40514 0.380338,0.39688 0.380338,1.0418 0,1.67018 -1.744593,3.41477 -1.736324,1.74459 -3.406503,1.74459 -1.149282,0 -1.893421,-0.76067 -0.744139,-0.76895 -0.744139,-1.96784 0,-2.57141 2.538341,-4.60539 2.538341,-2.04225 5.73814,-2.04225 2.720242,0 4.101033,2.00917 2.017444,-1.86034 4.101034,-1.86034 1.041795,0 1.686715,0.67799 0.644921,0.66973 0.644921,1.76113 z m -6.0606,1.7942 q 0,-1.05833 -0.438215,-1.98437 -1.116209,1.27331 -2.000908,3.1998 -1.165818,2.55488 -2.414318,3.67935 -1.289841,1.14929 -3.778573,1.84381 1.050063,0.22325 2.232417,0.22325 3.166726,0 5.126292,-3.06751 1.273305,-1.98437 1.273305,-3.89433 z m -9.53325,6.7882 q -2.282026,-0.32246 -3.406503,-0.32246 -0.992186,0 -0.992186,0.19017 0,0.28939 2.166272,0.28939 1.240232,0 2.232417,-0.1571 z"
         id="path873" />
      <path
         d="m 84.322222,127.87215 q 0,0.55397 -1.01699,0.55397 -0.802017,0 -3.811647,-0.74414 -1.405596,0.80202 -1.405596,2.01745 0,0.58704 0.405143,0.81028 0.587043,-0.0496 0.884699,-0.0496 0.859894,0 0.859894,0.20671 0,0.13229 -0.454752,0.13229 -0.578775,0 -1.256768,-0.16536 -0.917772,0.13229 -2.133199,0.71106 -3.092312,1.48001 -3.092312,3.83645 0,1.5627 1.686715,1.98437 -0.305923,-0.50436 -0.305923,-1.16581 0,-1.62884 1.66191,-3.00136 1.661911,-1.37253 3.638014,-1.37253 0.909503,0 1.446937,0.44649 0.537434,0.44648 0.537434,1.19889 0,1.6123 -1.769397,2.91041 -1.769398,1.28984 -3.985279,1.28984 -0.446484,0 -0.83509,-0.0496 0.793749,1.0666 2.356441,1.0666 0.967381,0 1.579229,-0.28939 l 0.09922,-0.0165 q 0.04961,0.0165 0.04961,0.0661 0,0.11576 -0.611848,0.23978 -0.611848,0.13229 -1.116209,0.13229 -1.728056,0 -2.63756,-1.2485 -1.265036,-0.28112 -1.984371,-0.95084 -0.711066,-0.678 -0.711066,-1.57096 0,-1.1989 0.992185,-2.24069 0.992186,-1.05006 2.645828,-1.5875 1.000454,-0.33073 2.290295,-0.47955 -0.917771,-0.38861 -0.917771,-1.23197 0,-1.08313 1.33945,-1.81074 -1.918225,-0.46302 -3.166725,-0.46302 -2.447391,0 -4.175448,1.2237 -1.719788,1.2237 -1.719788,2.96002 0,0.77721 0.454752,1.33118 0.454751,0.55397 1.091404,0.55397 0.438215,0 0.438215,-0.14056 0,-0.0744 -0.157096,-0.0496 -0.438215,0 -0.438215,-0.40514 0,-0.23151 0.190169,-0.39687 0.198437,-0.16537 0.471288,-0.16537 0.529165,0 0.529165,0.51263 0,0.339 -0.305923,0.57878 -0.297656,0.23151 -0.727603,0.23151 -0.768944,0 -1.314646,-0.68626 -0.537434,-0.69453 -0.537434,-1.67018 0,-1.46348 1.273305,-2.68717 1.513083,-1.45521 4.249861,-1.45521 1.521352,0 4.051425,0.62012 1.141013,-0.55397 2.654096,-0.55397 1.124477,0 1.918225,0.30592 0.793749,0.29766 0.793749,0.7276 z m -0.173633,-0.0165 q 0,-0.32246 -0.686261,-0.57051 -0.677994,-0.24805 -1.562693,-0.24805 -1.215427,0 -2.215881,0.52917 2.191077,0.71107 3.687623,0.71107 0.777212,0 0.777212,-0.42168 z m -2.331636,5.34953 q 0,-0.59531 -0.471288,-0.98392 -0.471288,-0.3886 -1.190622,-0.3886 -1.777666,0 -3.47265,1.48001 -1.694984,1.47174 -1.694984,3.00963 0,0.44648 0.272851,0.9095 0.479557,0.0909 0.884699,0.0909 1.951299,0 3.811646,-1.34772 1.860348,-1.35598 1.860348,-2.76985 z"
         id="path875" />
      <path
         d="m 88.348844,134.5446 q 0,0.17363 -1.207159,1.60403 -0.975649,1.17409 -1.537887,1.17409 -0.380338,0 -0.620116,-0.28112 -0.239778,-0.28939 -0.239778,-0.71933 0,-0.44649 0.264582,-0.96738 -0.826821,1.15755 -1.265036,1.56269 -0.438216,0.40514 -0.851626,0.40514 -0.438215,0 -0.735871,-0.37207 -0.297656,-0.38034 -0.297656,-0.95084 0,-1.5875 2.240686,-2.8112 0.983917,-0.5457 1.587497,-0.5457 0.512629,0 0.512629,0.4961 0,0.14055 -0.06615,0.37206 l 0.421679,-0.80201 q 0.248047,0.0579 0.438215,0.0579 0.223242,0 0.578775,-0.0579 l -1.463473,2.42258 q -0.760676,1.27331 -0.760676,1.67845 0,0.38861 0.32246,0.38861 0.330729,0 1.058332,-0.75241 0.727602,-0.76068 1.48001,-1.86862 0.04961,-0.0827 0.09095,-0.0827 0.04961,0 0.04961,0.0496 z m -2.273758,-1.37252 q 0,-0.40514 -0.37207,-0.40514 -0.760675,0 -2.000907,1.48827 -1.231964,1.48828 -1.231964,2.40605 0,0.53744 0.479556,0.53744 0.570507,0 1.976103,-1.89342 1.149282,-1.55443 1.149282,-2.1332 z"
         id="path877" />
      <path
         d="m 92.805407,128.78166 -3.712427,5.86216 q 0.868162,-1.19062 1.298109,-1.59577 0.429947,-0.40514 0.818553,-0.40514 0.46302,0 0.752408,0.38034 0.297655,0.37207 0.297655,0.94258 0,1.2485 -1.587497,2.45566 -1.182354,0.90123 -2.100126,0.90123 -0.429947,0 -0.702798,-0.32246 -0.264583,-0.33073 -0.264583,-0.85163 0,-0.62011 0.793749,-1.89342 l 3.42304,-5.49009 q 0.223242,0.0661 0.479556,0.0661 0.198437,0 0.504361,-0.0496 z m -1.149281,4.53925 q 0,-0.55397 -0.46302,-0.55397 -0.60358,0 -2.058785,1.99264 -1.091404,1.48827 -1.091404,2.0009 0,0.43822 0.429947,0.43822 0.744139,0 1.959566,-1.48001 1.223696,-1.48828 1.223696,-2.39778 z"
         id="path879" />
      <path
         d="m 96.922976,134.5446 q 0,0.10749 -1.165818,1.38906 -1.273304,1.38906 -2.166271,1.38906 -0.578775,0 -0.992186,-0.43821 -0.413411,-0.44649 -0.413411,-1.05834 0,-0.69453 0.562239,-1.43866 0.562238,-0.74414 1.513083,-1.28158 0.802017,-0.46302 1.306378,-0.46302 0.611847,0 0.611847,0.72761 0,0.5705 -0.388606,1.14101 -0.380338,0.57051 -0.760675,0.57051 -0.37207,0 -0.37207,-0.37207 0,-0.43822 0.760676,-0.81029 0.587043,-0.28939 0.587043,-0.76067 0,-0.37207 -0.405143,-0.37207 -0.686261,0 -1.686715,1.36425 -1.000454,1.36426 -1.000454,2.2903 0,0.77721 0.727603,0.77721 1.141013,0 3.092312,-2.57142 0.107486,-0.13229 0.157096,-0.13229 0.03307,0.008 0.03307,0.0496 z"
         id="path881" />
      <path
         d="m 104.43052,128.76512 q -3.10058,4.92786 -3.91087,6.30038 -0.818552,1.39733 -0.818552,1.76113 0,0.37207 0.339002,0.37207 0.7524,0 2.55487,-2.62103 0.0496,-0.0827 0.0909,-0.0827 0.0496,0 0.0496,0.0496 -0.008,0.0248 -0.0827,0.13229 l -0.35553,0.48783 q -1.56269,2.158 -2.306834,2.158 -0.380338,0 -0.620116,-0.28112 -0.239778,-0.28939 -0.239778,-0.73587 0,-0.44648 0.297655,-1.03353 -1.446937,2.05052 -2.149735,2.05052 -0.438215,0 -0.735871,-0.37207 -0.297656,-0.38034 -0.297656,-0.95084 0,-1.36426 1.694984,-2.4722 1.347719,-0.8847 2.116661,-0.8847 0.51263,0 0.51263,0.4961 0,0.23151 -0.14056,0.52089 l 2.95175,-4.94439 q 0.27285,0.0827 0.53744,0.0827 0.0661,0 0.51263,-0.0331 z m -3.98528,4.44003 q 0,-0.43821 -0.40514,-0.43821 -0.744144,0 -1.96784,1.48827 -1.215427,1.48001 -1.215427,2.38952 0,0.55397 0.454752,0.55397 0.661457,0 2.273758,-2.29857 0.859897,-1.24023 0.859897,-1.69498 z"
         id="path883" />
      <path
         d="m 106.91924,134.5446 q 0,0.0248 -0.14882,0.21498 l -0.35554,0.44648 q -1.71152,2.11666 -2.93521,2.11666 -0.57878,0 -0.97565,-0.41341 -0.38861,-0.42168 -0.38861,-1.05006 0,-1.48828 2.07532,-2.62103 1.09141,-0.59531 1.77767,-0.59531 0.29766,0 0.50436,0.1819 0.21497,0.17364 0.21497,0.42995 0,0.59531 -0.77721,1.01699 -0.77721,0.41341 -2.59622,0.77721 -0.56223,0.85163 -0.56223,1.42214 0,0.71106 0.76894,0.71106 1.30638,0 3.1998,-2.55488 0.0992,-0.13229 0.16536,-0.13229 0.0331,0.008 0.0331,0.0496 z m -0.69453,-1.52962 q 0,-0.26458 -0.28938,-0.26458 -0.43822,0 -1.15755,0.61185 -0.71107,0.60358 -1.39733,1.57096 1.19062,-0.30593 2.01744,-0.8599 0.82682,-0.56224 0.82682,-1.05833 z"
         id="path885" />
      <path
         d="m 115.70836,128.55015 q 0,0.0744 -1.87689,2.97655 -1.50481,2.32337 -2.08359,3.43131 -0.5705,1.09967 -0.85989,2.22415 -0.29766,-0.0661 -0.51263,-0.0661 -0.23978,0 -0.89297,0.0992 0.56224,-1.64537 3.43131,-5.10975 1.76113,-2.12493 2.33991,-3.03444 -2.14974,2.54661 -4.31601,4.20026 -1.39733,1.0666 -1.67845,1.0666 -0.0661,0 -0.0661,-0.0496 0,-0.0579 0.0992,-0.0992 2.10012,-0.95085 6.09367,-5.39088 l 0.10748,-0.11575 q 0.1571,-0.16537 0.18191,-0.16537 0.0331,0 0.0331,0.0331 z"
         id="path887" />
      <path
         d="m 124.17501,130.10457 q 0,1.14101 -0.94258,2.03398 -0.67799,0.63665 -1.39732,1.02526 -0.71934,0.38034 -2.836,1.2237 -2.64583,1.05833 -3.64628,2.27375 0.73587,-0.57877 1.6123,-0.57877 0.68626,0 1.82727,0.35553 0.97565,0.30593 1.48828,0.30593 0.7028,0 1.29811,-0.57051 0.60358,-0.57051 0.81855,-1.44694 0.0248,-0.0992 0.091,-0.0992 0.0248,0.008 0.0331,0.0331 0,0.47128 -0.56224,1.25676 -1.03353,1.43867 -2.57142,1.43867 -0.5705,0 -1.69498,-0.33899 -1.34772,-0.40515 -1.71152,-0.40515 -0.85989,0 -0.95084,0.68627 -0.0165,0.19017 -0.11576,0.19017 -0.0661,0 -0.0661,-0.0661 0,-0.38861 0.66145,-1.0666 0.57051,-0.58704 1.15755,-0.95911 0.62839,-0.38034 2.28203,-1.15755 2.07532,-0.97565 3.24941,-2.24069 1.18235,-1.2733 1.18235,-2.5218 0,-0.5209 -0.3886,-0.82682 -0.38034,-0.30593 -1.03353,-0.30593 -1.45521,0 -3.15019,1.49655 -1.69498,1.48828 -1.69498,2.76985 0,0.93431 1.1162,0.93431 0.89297,0 1.98438,-0.86816 1.09967,-0.87644 1.50481,-1.89343 0.0248,-0.0827 0.0744,-0.0827 0.0496,0 0.0496,0.0496 0,0.35553 -0.71106,1.19889 -0.62012,0.73587 -1.4304,1.20716 -0.81029,0.47129 -1.44694,0.47129 -0.63665,0 -1.02526,-0.38034 -0.38034,-0.38034 -0.38034,-1.00872 0,-1.54616 2.04225,-2.89387 1.67018,-1.09968 3.10058,-1.09968 0.96738,0 1.57096,0.5209 0.61185,0.51263 0.61185,1.33945 z"
         id="path889" />
      <path
         d="m 131.78177,129.71597 q 0,1.95956 -3.40651,2.55487 2.00091,0.45475 2.00091,2.03398 0,1.19063 -1.36425,2.09186 -1.36426,0.90124 -3.15846,0.90124 -1.13275,0 -1.86035,-0.45476 -0.7276,-0.45475 -0.7276,-1.16581 0,-0.73587 0.71933,-1.25677 0.7276,-0.5209 1.75286,-0.5209 0.77722,0 0.77722,0.0992 0,0.0496 -0.0496,0.0496 h -0.0662 q -0.30592,-0.0496 -0.51263,-0.0496 -0.90123,0 -1.52962,0.5209 -0.62011,0.51263 -0.62011,1.25677 0,0.61184 0.48782,1.00045 0.49609,0.3886 1.2733,0.3886 1.51309,0 2.77812,-1.07486 1.27331,-1.07487 1.27331,-2.36471 0,-1.0666 -1.30638,-1.4056 -0.71106,0.10749 -1.16582,0.10749 -0.42994,0 -0.42994,-0.10749 0,-0.16536 0.61184,-0.16536 0.47129,0 0.98392,0.0827 1.25677,-0.42168 2.00091,-1.21543 0.74414,-0.79375 0.74414,-1.72805 0,-1.05007 -1.33945,-1.05007 -1.15755,0 -2.3151,0.80202 -1.15755,0.79375 -1.15755,1.60403 0,0.74414 0.95084,0.74414 0.57051,0 1.28984,-0.45475 0.71934,-0.46302 1.13275,-1.0914 0.0413,-0.0827 0.0992,-0.0827 0.0331,0.008 0.0331,0.0331 0,0.0909 -0.31419,0.43821 -0.31419,0.34727 -0.58704,0.56224 -0.87644,0.69453 -1.68672,0.69453 -0.48782,0 -0.79375,-0.28112 -0.30592,-0.28939 -0.30592,-0.73587 0,-0.83509 1.17408,-1.57923 1.17409,-0.75241 2.497,-0.75241 0.96739,0 1.53789,0.42995 0.57878,0.42168 0.57878,1.14102 z"
         id="path891" />
      <path
         d="m 142.91078,127.48355 q 0,0.0661 -0.0744,0.0661 -0.0248,0 -0.0827,-0.0165 -0.38034,-0.14056 -0.74414,-0.14056 -2.14974,0 -5.52317,3.48918 -1.65364,1.71152 -2.43912,2.37298 -0.77721,0.65319 -1.81074,1.19889 0.97565,-0.24805 2.56315,-0.24805 0.58704,0 0.97564,0.0331 0.45476,-0.69453 1.96784,-2.77812 1.29811,-1.7942 1.62884,-2.4722 0.0413,-0.0992 0.0992,-0.0992 0.0331,0.008 0.0331,0.0331 0,0.0165 -0.0165,0.0496 l -0.0827,0.16536 q -0.0992,0.19844 -1.19062,2.14974 -1.05007,1.90168 -1.57096,3.00136 0.50436,0.0331 0.94257,0.0331 0.86817,0 1.4056,-0.38034 0.5457,-0.38034 0.5457,-0.97565 0,-0.21497 -0.11575,-0.47129 -0.0165,-0.0331 -0.0165,-0.0827 0,-0.0579 0.0496,-0.0579 0.1819,0 0.1819,0.61184 0,1.66191 -3.16673,1.66191 -0.71933,1.57923 -0.87643,2.53834 -0.30592,-0.0992 -0.61184,-0.0992 -0.38034,0 -0.82683,0.0992 0.43822,-1.19062 1.37253,-2.53834 -0.1819,-0.008 -0.8847,-0.0661 -0.97565,-0.10749 -1.43867,-0.10749 -0.45475,0 -1.01699,0.0744 -0.98392,0.62011 -1.57096,0.62011 -0.14056,0 -0.14056,-0.0827 0,-0.28112 1.59577,-0.61185 1.14101,-0.66972 1.90168,-1.33118 0.71934,-0.61185 2.43086,-2.37298 3.43131,-3.52226 5.60585,-3.52226 0.30592,0 0.60358,0.0827 0.29765,0.0827 0.29765,0.17363 z"
         id="path893" />
      <path
         d="m 148.56624,128.03752 q 0,0.5209 -0.47956,0.92604 -0.47128,0.39687 -1.08313,0.39687 -0.46302,0 -0.98392,-0.19017 -0.80202,-0.28112 -1.16582,-0.28112 -0.47955,0 -0.69453,0.57051 -0.47128,1.26504 -1.21542,2.2903 0.68626,-0.32246 1.38906,-0.32246 1.1162,0 1.86034,0.63665 0.74414,0.62838 0.74414,1.57923 0,1.39732 -1.56269,2.5218 -1.55442,1.11621 -3.51399,1.11621 -1.03353,0 -1.68671,-0.46302 -0.65319,-0.47129 -0.65319,-1.20716 0,-0.85162 0.84335,-1.42213 0.84336,-0.57878 2.08359,-0.57878 0.71107,0 0.71107,0.0992 -0.008,0.0331 -0.0496,0.0331 -0.0992,0 -0.29765,-0.0165 -0.19017,-0.0165 -0.29766,-0.0165 -1.09967,0 -1.81074,0.57878 -0.71107,0.5705 -0.71107,1.4552 0,0.66146 0.46302,1.0418 0.46302,0.38033 1.26504,0.38033 1.51308,0 2.94348,-1.26503 1.43041,-1.26504 1.43041,-2.59622 0,-0.78548 -0.52917,-1.25677 -0.52917,-0.47129 -1.42213,-0.47129 -0.58705,0 -1.30638,0.27285 -0.86816,1.11621 -1.19889,1.11621 -0.0992,0 -0.0992,-0.0827 0,-0.33073 1.21543,-1.03353 1.4552,-1.95129 1.4552,-3.34862 0,-0.1571 -0.0165,-0.22324 -0.0165,-0.0331 -0.0165,-0.0827 0,-0.10748 0.0992,-0.10748 0.10749,0 0.10749,0.27285 0,0.24804 -0.10749,0.67799 0.47129,-0.81028 1.24023,-0.81028 0.29766,0 1.5875,0.43821 0.45475,0.14883 0.69453,0.14883 0.25631,0 0.44648,-0.1819 0.19844,-0.19017 0.19844,-0.43822 0,-0.0661 -0.0331,-0.15709 -0.0331,-0.091 -0.0331,-0.11576 0,-0.0992 0.0827,-0.0992 0.10749,0 0.10749,0.21498 z"
         id="path895" />
    </g>
  </g>
</svg>
