<?xml version="1.0" encoding="UTF-8" standalone="no"?>
<!-- Created with Inkscape (http://www.inkscape.org/) -->
<!-- asddds-->
<svg
   width="210mm"
   height="297mm"
   viewBox="0 0 210 297"
   version="1.1"
   id="svg1249"
   inkscape:version="1.2.2 (732a01da63, 2022-12-09)"
   sodipodi:docname="esitc-t-path.svg"
   xmlns:inkscape="http://www.inkscape.org/namespaces/inkscape"
   xmlns:sodipodi="http://sodipodi.sourceforge.net/DTD/sodipodi-0.dtd"
   xmlns="http://www.w3.org/2000/svg"
   xmlns:svg="http://www.w3.org/2000/svg">
  <sodipodi:namedview
     id="namedview1251"
     pagecolor="#ffffff"
     bordercolor="#666666"
     borderopacity="1.0"
     inkscape:showpageshadow="2"
     inkscape:pageopacity="0.0"
     inkscape:pagecheckerboard="0"
     inkscape:deskcolor="#d1d1d1"
     inkscape:document-units="mm"
     showgrid="false"
     inkscape:zoom="0.914906"
     inkscape:cx="396.76207"
     inkscape:cy="560.71334"
     inkscape:window-width="2560"
     inkscape:window-height="1387"
     inkscape:window-x="-8"
     inkscape:window-y="-8"
     inkscape:window-maximized="1"
     inkscape:current-layer="layer1" />
  <defs
     id="defs1246" />
  <g
     inkscape:label="Layer 1"
     inkscape:groupmode="layer"
     id="layer1">
    <path
       d="m 99.999597,6.105032 q 0,2.273655 -4.54732,3.873695 -4.54737,1.55787 -11.11576,1.55787 -6.6105,0 -16.42102,-1.81051 -5.17893,2.6947 -9.473611,7.99997 -4.294732,5.2631 -9.221024,14.94728 -4.926293,9.68417 -7.242116,12.92625 -2.273657,3.20002 -6.273641,6.23158 -10.568374,7.83156 -21.936765,7.83156 -6.063121,0 -9.936813,-2.56841 Q 0,54.525857 0,50.441697 q 0,-2.06313 1.221006,-3.53683 1.221058,-1.47369 2.905269,-1.47369 2.736864,0 2.736864,2.86316 0,1.34735 -0.842132,2.31577 -0.84208,0.96842 -2.063138,0.96842 -1.97896,0 -1.97896,-1.93684 0,-1.01054 -0.336608,-1.01054 -0.715789,0 -0.715789,2.06319 0,3.41048 3.494716,5.76837 3.536829,2.35789 8.673642,2.35789 11.284162,0 20.252552,-10.18945 4.210504,-4.75784 10.863123,-15.70517 10.863122,-17.76833 22.694662,-23.36834 -2.2737,-0.37888 -6.82102,-1.38947 -10.694716,-2.315769 -16.378911,-2.315769 -0.589446,0 -3.536829,0.168558 1.97896,3.705291 1.97896,8.463121 0,9.26314 -7.031545,17.38945 -7.031595,8.12624 -15.031562,8.12624 -3.326259,0 -5.431561,-2.18948 -2.063138,-2.23154 -2.063138,-5.72624 0,-4.8 3.621058,-10.61049 3.663121,-5.8526 9.431544,-10.18945 5.810488,-4.378905 12.71574,-6.105231 -3.326309,-4.505252 -9.473659,-4.505252 -5.178927,0 -10.484145,3.03156 -5.263155,2.989447 -9.263139,8.168423 -0.589497,0.79997 -0.800017,0.79997 -0.252583,0 -0.336608,-0.25259 0,-0.71578 3.452601,-4.16839 Q 19.747692,0 28.80026,0 q 7.031595,0 10.694716,4.926293 5.094698,-1.473692 11.705202,-1.473692 3.410538,0 6.231579,0.421142 2.98945,0.463409 14.65259,2.863155 9.72624,-4.252618 18.69463,-4.252618 9.22102,0 9.22102,3.621057 z m -0.67368,0.08402 q 0,-1.221058 -2.4,-2.063189 -2.35789,-0.84208 -5.97889,-0.84208 -9.01051,0 -17.47363,3.789464 1.0526,0.16856 5.59997,1.01054 6.73679,1.30524 11.95784,1.30524 3.41053,0 5.8526,-0.92631 2.44211,-0.96843 2.44211,-2.273665 z m -58.820811,6.231535 q 0,-3.36843 -1.55792,-6.231535 -9.431545,1.557865 -17.557804,9.726245 -8.12631,8.16843 -8.12631,16.08417 0,3.03155 1.852668,5.09467 1.894681,2.06319 4.631544,2.06319 7.115773,0 13.936797,-8.75785 6.821025,-8.79999 6.821025,-17.97889 z"
       id="path863"
       style="font-stretch:semi-expanded;font-size:16.9333px;line-height:125%;font-family:'Edwardian Script ITC';-inkscape-font-specification:'Edwardian Script ITC, Semi-Expanded';letter-spacing:0px;word-spacing:0px;stroke-width:1.34736px" />
  </g>
</svg>
