<?xml version="1.0" encoding="UTF-8" standalone="no"?>
<svg
   xmlns:dc="http://purl.org/dc/elements/1.1/"
   xmlns:cc="http://creativecommons.org/ns#"
   xmlns:rdf="http://www.w3.org/1999/02/22-rdf-syntax-ns#"
   xmlns:svg="http://www.w3.org/2000/svg"
   xmlns="http://www.w3.org/2000/svg"
   xmlns:sodipodi="http://sodipodi.sourceforge.net/DTD/sodipodi-0.dtd"
   xmlns:inkscape="http://www.inkscape.org/namespaces/inkscape"
   width="210mm"
   height="297mm"
   viewBox="0 0 210 297"
   version="1.1"
   id="svg466"
   sodipodi:docname="proverb3.svg"
   inkscape:version="1.0.1 (3bc2e813f5, 2020-09-07)">
  <defs
     id="defs460" />
  <sodipodi:namedview
     id="base"
     pagecolor="#ffffff"
     bordercolor="#666666"
     borderopacity="1.0"
     inkscape:pageopacity="0.0"
     inkscape:pageshadow="2"
     inkscape:zoom="1.4"
     inkscape:cx="402.734"
     inkscape:cy="331.42857"
     inkscape:document-units="mm"
     inkscape:current-layer="layer1"
     inkscape:document-rotation="0"
     showgrid="false"
     inkscape:window-width="2560"
     inkscape:window-height="1377"
     inkscape:window-x="-8"
     inkscape:window-y="-8"
     inkscape:window-maximized="1" />
  <metadata
     id="metadata463">
    <rdf:RDF>
      <cc:Work
         rdf:about="">
        <dc:format>image/svg+xml</dc:format>
        <dc:type
           rdf:resource="http://purl.org/dc/dcmitype/StillImage" />
        <dc:title></dc:title>
      </cc:Work>
    </rdf:RDF>
  </metadata>
  <g
     inkscape:label="Lager 1"
     inkscape:groupmode="layer"
     id="layer1">
    <g
       aria-label="NVMQVAM·NIMIS·SERO·CEDERE"
       id="text470"
       style="font-style:normal;font-weight:normal;font-size:14.9611px;line-height:1.25;font-family:sans-serif;letter-spacing:-1.05833px;fill:#000000;fill-opacity:1;stroke:none;stroke-width:0.374027">
      <path
         d="M 1.372379,4.5872082 H 4.0607015 L 10.116733,12.016621 V 6.303936 q 0,-0.9131531 -0.2045467,-1.1396151 Q 9.641893,4.8575015 9.057475,4.8575015 H 8.7141295 V 4.5872082 h 3.4480655 v 0.2702933 h -0.35065 q -0.62825,0 -0.891238,0.3798717 -0.160715,0.2337672 -0.160715,1.0665628 v 8.349871 H 10.496604 L 3.9657336,6.6765024 v 6.0998626 q 0,0.913153 0.1972411,1.139615 0.2775985,0.306819 0.8547112,0.306819 h 0.3506508 v 0.270294 H 1.9202708 v -0.270294 h 0.3433455 q 0.6355546,0 0.8985426,-0.379871 0.160715,-0.233768 0.160715,-1.066563 V 5.8875382 Q 2.8918656,5.3834777 2.6654037,5.2227627 2.4462469,5.0620478 2.0152387,4.9232485 1.8033872,4.8575015 1.372379,4.8575015 Z"
         style="font-style:normal;font-variant:normal;font-weight:normal;font-stretch:normal;font-family:'Times New Roman';-inkscape-font-specification:'Times New Roman, ';stroke-width:0.374027"
         id="path560" />
      <path
         d="m 21.937514,4.5872082 v 0.2702933 q -0.525976,0.094968 -0.79627,0.3360403 -0.387176,0.357956 -0.686691,1.0957837 L 16.999182,14.719554 H 16.728889 L 13.017835,6.1797471 Q 12.732931,5.5222769 12.616048,5.3761725 12.433417,5.1497105 12.163124,5.0255217 11.900136,4.8940276 11.447212,4.8575015 V 4.5872082 h 4.047094 v 0.2702933 q -0.686691,0.065747 -0.891237,0.2337672 -0.204547,0.1680202 -0.204547,0.4310082 0,0.3652613 0.336041,1.1396151 l 2.520302,5.807653 2.337672,-5.7346008 q 0.343345,-0.847406 0.343345,-1.1761411 0,-0.2118515 -0.211851,-0.4017874 -0.211852,-0.197241 -0.715912,-0.2775985 -0.03653,-0.00731 -0.124189,-0.021916 V 4.5872082 Z"
         style="font-style:normal;font-variant:normal;font-weight:normal;font-stretch:normal;font-family:'Times New Roman';-inkscape-font-specification:'Times New Roman, ';stroke-width:0.374027"
         id="path562" />
      <path
         d="M 27.183593,14.493093 23.355656,6.1578315 v 6.6185335 q 0,0.913153 0.197241,1.139615 0.270293,0.306819 0.854711,0.306819 h 0.350651 v 0.270294 h -3.448066 v -0.270294 h 0.350651 q 0.628249,0 0.891237,-0.379871 0.160715,-0.233768 0.160715,-1.066563 V 6.303936 q 0,-0.6574702 -0.146105,-0.9496792 Q 22.464418,5.1424053 22.18682,5.003606 21.916526,4.8575015 21.310193,4.8575015 V 4.5872082 h 2.805206 l 3.59417,7.7508428 3.535729,-7.7508428 h 2.805206 v 0.2702933 h -0.343345 q -0.635555,0 -0.898543,0.3798717 -0.160715,0.2337672 -0.160715,1.0665628 v 6.472429 q 0,0.913153 0.204546,1.139615 0.270294,0.306819 0.854712,0.306819 h 0.343345 v 0.270294 h -4.207809 v -0.270294 h 0.350651 q 0.635554,0 0.891237,-0.379871 0.160715,-0.233768 0.160715,-1.066563 V 6.1578315 l -3.820632,8.3352615 z"
         style="font-style:normal;font-variant:normal;font-weight:normal;font-stretch:normal;font-family:'Times New Roman';-inkscape-font-specification:'Times New Roman, ';stroke-width:0.374027"
         id="path564" />
      <path
         d="m 39.89561,14.602671 q 0.745133,1.285719 1.607149,1.892053 0.869322,0.606334 1.972411,0.693996 v 0.233768 q -1.008121,-0.03653 -2.155042,-0.409093 -1.14692,-0.365261 -2.176957,-1.022731 -1.022731,-0.650165 -1.767864,-1.387993 -1.051952,-0.423703 -1.665591,-0.898543 -0.891237,-0.708606 -1.387993,-1.738643 -0.48945,-1.037342 -0.48945,-2.4472503 0,-2.2207882 1.43913,-3.6891383 1.439129,-1.4683501 3.484592,-1.4683501 1.943189,0 3.360403,1.4756553 1.424519,1.4683501 1.424519,3.711054 0,1.8190004 -1.015427,3.1923834 -1.008121,1.373382 -2.62988,1.862832 z M 38.668332,4.9232485 q -1.329551,0 -2.140431,0.9496792 -1.022731,1.1907516 -1.022731,3.645307 0,2.4034193 1.037342,3.7037483 0.803574,1.000816 2.12582,1.000816 1.373382,0 2.213483,-1.000816 0.986205,-1.183446 0.986205,-3.4918968 0,-1.7751695 -0.540586,-2.9878368 Q 40.911036,5.8071807 40.217039,5.3688672 39.530348,4.9232485 38.668332,4.9232485 Z"
         style="font-style:normal;font-variant:normal;font-weight:normal;font-stretch:normal;font-family:'Times New Roman';-inkscape-font-specification:'Times New Roman, ';stroke-width:0.374027"
         id="path566" />
      <path
         d="m 53.674189,4.5872082 v 0.2702933 q -0.525976,0.094968 -0.796269,0.3360403 -0.387177,0.357956 -0.686691,1.0957837 L 48.735857,14.719554 H 48.465564 L 44.75451,6.1797471 Q 44.469606,5.5222769 44.352723,5.3761725 44.170092,5.1497105 43.899799,5.0255217 43.636811,4.8940276 43.183887,4.8575015 V 4.5872082 h 4.047094 v 0.2702933 q -0.686691,0.065747 -0.891237,0.2337672 -0.204546,0.1680202 -0.204546,0.4310082 0,0.3652613 0.33604,1.1396151 l 2.520302,5.807653 2.337672,-5.7346008 q 0.343346,-0.847406 0.343346,-1.1761411 0,-0.2118515 -0.211852,-0.4017874 -0.211851,-0.197241 -0.715912,-0.2775985 -0.03653,-0.00731 -0.124189,-0.021916 V 4.5872082 Z"
         style="font-style:normal;font-variant:normal;font-weight:normal;font-stretch:normal;font-family:'Times New Roman';-inkscape-font-specification:'Times New Roman, ';stroke-width:0.374027"
         id="path568" />
      <path
         d="m 57.714908,11.176521 h -3.835243 l -0.67208,1.563318 q -0.248378,0.577112 -0.248378,0.862016 0,0.226462 0.211852,0.401788 0.219156,0.16802 0.935068,0.219156 v 0.270294 h -3.11933 v -0.270294 q 0.620944,-0.109578 0.803574,-0.284904 0.372567,-0.35065 0.825491,-1.424518 l 3.484592,-8.1526307 h 0.255683 l 3.448065,8.2402927 q 0.416398,0.993511 0.752439,1.293025 0.343345,0.292209 0.949679,0.328735 v 0.270294 h -3.908295 v -0.270294 q 0.591723,-0.02922 0.796269,-0.197241 0.211852,-0.16802 0.211852,-0.409092 0,-0.32143 -0.292209,-1.015427 z M 57.510362,10.635934 55.83016,6.6326711 54.106127,10.635934 Z"
         style="font-style:normal;font-variant:normal;font-weight:normal;font-stretch:normal;font-family:'Times New Roman';-inkscape-font-specification:'Times New Roman, ';stroke-width:0.374027"
         id="path570" />
      <path
         d="M 66.737789,14.493093 62.909851,6.1578315 v 6.6185335 q 0,0.913153 0.197241,1.139615 0.270293,0.306819 0.854711,0.306819 h 0.350651 v 0.270294 h -3.448066 v -0.270294 h 0.350651 q 0.628249,0 0.891237,-0.379871 0.160715,-0.233768 0.160715,-1.066563 V 6.303936 q 0,-0.6574702 -0.146104,-0.9496792 Q 62.018614,5.1424053 61.741015,5.003606 61.470722,4.8575015 60.864388,4.8575015 V 4.5872082 h 2.805206 l 3.594171,7.7508428 3.535728,-7.7508428 H 73.6047 v 0.2702933 h -0.343346 q -0.635554,0 -0.898543,0.3798717 -0.160715,0.2337672 -0.160715,1.0665628 v 6.472429 q 0,0.913153 0.204547,1.139615 0.270293,0.306819 0.854711,0.306819 H 73.6047 v 0.270294 h -4.20781 v -0.270294 h 0.350651 q 0.635555,0 0.891237,-0.379871 0.160715,-0.233768 0.160715,-1.066563 V 6.1578315 l -3.820632,8.3352615 z"
         style="font-style:normal;font-variant:normal;font-weight:normal;font-stretch:normal;font-family:'Times New Roman';-inkscape-font-specification:'Times New Roman, ';stroke-width:0.374027"
         id="path572" />
      <path
         d="m 75.351572,8.5904712 q 0.32143,0 0.540587,0.226462 0.226462,0.2191567 0.226462,0.5405866 0,0.3141246 -0.226462,0.5405866 -0.226462,0.2264616 -0.540587,0.2264616 -0.314124,0 -0.540586,-0.2264616 -0.226462,-0.226462 -0.226462,-0.5405866 0,-0.3214299 0.219156,-0.5405866 0.226462,-0.226462 0.547892,-0.226462 z"
         style="font-style:normal;font-variant:normal;font-weight:normal;font-stretch:normal;font-family:'Times New Roman';-inkscape-font-specification:'Times New Roman, ';stroke-width:0.374027"
         id="path574" />
      <path
         d="m 76.587085,4.5872082 h 2.688323 l 6.056031,7.4294128 V 6.303936 q 0,-0.9131531 -0.204546,-1.1396151 Q 84.856599,4.8575015 84.272181,4.8575015 H 83.928836 V 4.5872082 h 3.448066 v 0.2702933 h -0.350651 q -0.628249,0 -0.891237,0.3798717 -0.160715,0.2337672 -0.160715,1.0665628 v 8.349871 H 85.711311 L 79.18044,6.6765024 v 6.0998626 q 0,0.913153 0.197241,1.139615 0.277599,0.306819 0.854711,0.306819 h 0.350651 v 0.270294 h -3.448066 v -0.270294 h 0.343346 q 0.635554,0 0.898542,-0.379871 0.160715,-0.233768 0.160715,-1.066563 V 5.8875382 Q 78.106572,5.3834777 77.88011,5.2227627 77.660953,5.0620478 77.229945,4.9232485 77.018094,4.8575015 76.587085,4.8575015 Z"
         style="font-style:normal;font-variant:normal;font-weight:normal;font-stretch:normal;font-family:'Times New Roman';-inkscape-font-specification:'Times New Roman, ';stroke-width:0.374027"
         id="path576" />
      <path
         d="m 91.147322,14.222799 v 0.270294 h -4.244335 v -0.270294 h 0.35065 q 0.613639,0 0.891238,-0.357956 Q 88.3202,13.631076 88.3202,12.739839 V 6.3404621 q 0,-0.7524381 -0.09497,-0.9935105 Q 88.15218,5.1643209 87.925718,5.0328269 87.604288,4.8575015 87.253637,4.8575015 h -0.35065 V 4.5872082 h 4.244335 v 0.2702933 h -0.357956 q -0.606334,0 -0.883932,0.357956 -0.182631,0.2337672 -0.182631,1.1250046 v 6.3993769 q 0,0.752438 0.09497,0.99351 0.07305,0.182631 0.30682,0.314125 0.314124,0.175325 0.664775,0.175325 z"
         style="font-style:normal;font-variant:normal;font-weight:normal;font-stretch:normal;font-family:'Times New Roman';-inkscape-font-specification:'Times New Roman, ';stroke-width:0.374027"
         id="path578" />
      <path
         d="M 96.576034,14.493093 92.748096,6.1578315 v 6.6185335 q 0,0.913153 0.197241,1.139615 0.270294,0.306819 0.854712,0.306819 h 0.35065 v 0.270294 h -3.448065 v -0.270294 h 0.35065 q 0.62825,0 0.891238,-0.379871 0.160715,-0.233768 0.160715,-1.066563 V 6.303936 q 0,-0.6574702 -0.146105,-0.9496792 Q 91.856859,5.1424053 91.579261,5.003606 91.308967,4.8575015 90.702634,4.8575015 V 4.5872082 h 2.805206 l 3.59417,7.7508428 3.53573,-7.7508428 h 2.8052 v 0.2702933 h -0.34334 q -0.63556,0 -0.89854,0.3798717 -0.16072,0.2337672 -0.16072,1.0665628 v 6.472429 q 0,0.913153 0.20455,1.139615 0.27029,0.306819 0.85471,0.306819 h 0.34334 v 0.270294 h -4.207804 v -0.270294 h 0.35065 q 0.635554,0 0.891234,-0.379871 0.16072,-0.233768 0.16072,-1.066563 V 6.1578315 l -3.820634,8.3352615 z"
         style="font-style:normal;font-variant:normal;font-weight:normal;font-stretch:normal;font-family:'Times New Roman';-inkscape-font-specification:'Times New Roman, ';stroke-width:0.374027"
         id="path580" />
      <path
         d="m 107.31564,14.222799 v 0.270294 h -4.24433 v -0.270294 h 0.35065 q 0.61364,0 0.89123,-0.357956 0.17533,-0.233767 0.17533,-1.125004 V 6.3404621 q 0,-0.7524381 -0.095,-0.9935105 -0.0731,-0.1826307 -0.29951,-0.3141247 -0.32143,-0.1753254 -0.67208,-0.1753254 h -0.35065 V 4.5872082 h 4.24433 v 0.2702933 h -0.35795 q -0.60634,0 -0.88394,0.357956 -0.18263,0.2337672 -0.18263,1.1250046 v 6.3993769 q 0,0.752438 0.095,0.99351 0.073,0.182631 0.30682,0.314125 0.31412,0.175325 0.66478,0.175325 z"
         style="font-style:normal;font-variant:normal;font-weight:normal;font-stretch:normal;font-family:'Times New Roman';-inkscape-font-specification:'Times New Roman, ';stroke-width:0.374027"
         id="path582" />
      <path
         d="m 113.48218,4.3607463 v 3.4261502 h -0.27029 q -0.1315,-0.9862053 -0.47484,-1.5706232 -0.33604,-0.584418 -0.96429,-0.9277635 -0.62825,-0.3433456 -1.30033,-0.3433456 -0.75974,0 -1.2565,0.4675344 -0.49675,0.4602291 -0.49675,1.0519523 0,0.4529239 0.31412,0.8254904 0.45292,0.5478918 2.15504,1.4610448 1.38799,0.7451329 1.89205,1.1469203 0.51137,0.3944816 0.78166,0.9350686 0.2776,0.540587 0.2776,1.13231 0,1.125004 -0.87663,1.94319 -0.86932,0.810879 -2.2427,0.810879 -0.43101,0 -0.81088,-0.06575 -0.22646,-0.03653 -0.94237,-0.262988 -0.70861,-0.233767 -0.89855,-0.233767 -0.18263,0 -0.2922,0.109579 -0.10228,0.109578 -0.15341,0.452923 h -0.2703 v -3.396929 h 0.2703 q 0.18993,1.066563 0.51136,1.599844 0.32143,0.525976 0.9789,0.876627 0.66478,0.350651 1.45374,0.350651 0.91315,0 1.43913,-0.482145 0.53328,-0.482145 0.53328,-1.139615 0,-0.365261 -0.20454,-0.737828 -0.19725,-0.372566 -0.62095,-0.693996 -0.2849,-0.219157 -1.55601,-0.927763 -1.27111,-0.7159123 -1.8117,-1.1396153 -0.53328,-0.4237031 -0.81088,-0.9350688 -0.2776,-0.5113657 -0.2776,-1.1250045 0,-1.0665628 0.81819,-1.8336114 0.81818,-0.7743537 2.08199,-0.7743537 0.78896,0 1.67289,0.3871769 0.4091,0.1826306 0.57712,0.1826306 0.18993,0 0.30682,-0.1095784 0.12419,-0.1168836 0.19724,-0.4602291 z"
         style="font-style:normal;font-variant:normal;font-weight:normal;font-stretch:normal;font-family:'Times New Roman';-inkscape-font-specification:'Times New Roman, ';stroke-width:0.374027"
         id="path584" />
      <path
         d="m 116.37598,8.5904712 q 0.32143,0 0.54059,0.226462 0.22646,0.2191567 0.22646,0.5405866 0,0.3141246 -0.22646,0.5405866 -0.22647,0.2264616 -0.54059,0.2264616 -0.31413,0 -0.54059,-0.2264616 -0.22646,-0.226462 -0.22646,-0.5405866 0,-0.3214299 0.21916,-0.5405866 0.22646,-0.226462 0.54789,-0.226462 z"
         style="font-style:normal;font-variant:normal;font-weight:normal;font-stretch:normal;font-family:'Times New Roman';-inkscape-font-specification:'Times New Roman, ';stroke-width:0.374027"
         id="path586" />
      <path
         d="m 124.66833,4.3607463 v 3.4261502 h -0.27029 q -0.1315,-0.9862053 -0.47484,-1.5706232 -0.33604,-0.584418 -0.96429,-0.9277635 -0.62825,-0.3433456 -1.30033,-0.3433456 -0.75974,0 -1.2565,0.4675344 -0.49676,0.4602291 -0.49676,1.0519523 0,0.4529239 0.31413,0.8254904 0.45292,0.5478918 2.15504,1.4610448 1.38799,0.7451329 1.89205,1.1469203 0.51137,0.3944816 0.78166,0.9350686 0.2776,0.540587 0.2776,1.13231 0,1.125004 -0.87663,1.94319 -0.86932,0.810879 -2.2427,0.810879 -0.43101,0 -0.81088,-0.06575 -0.22646,-0.03653 -0.94237,-0.262988 -0.70861,-0.233767 -0.89855,-0.233767 -0.18263,0 -0.29221,0.109579 -0.10227,0.109578 -0.1534,0.452923 h -0.2703 v -3.396929 h 0.2703 q 0.18993,1.066563 0.51136,1.599844 0.32143,0.525976 0.9789,0.876627 0.66478,0.350651 1.45374,0.350651 0.91315,0 1.43913,-0.482145 0.53328,-0.482145 0.53328,-1.139615 0,-0.365261 -0.20455,-0.737828 -0.19724,-0.372566 -0.62094,-0.693996 -0.2849,-0.219157 -1.55601,-0.927763 -1.27111,-0.7159123 -1.8117,-1.1396153 -0.53328,-0.4237031 -0.81088,-0.9350688 -0.2776,-0.5113657 -0.2776,-1.1250045 0,-1.0665628 0.81819,-1.8336114 0.81818,-0.7743537 2.08199,-0.7743537 0.78896,0 1.67289,0.3871769 0.4091,0.1826306 0.57712,0.1826306 0.18993,0 0.30682,-0.1095784 0.12419,-0.1168836 0.19724,-0.4602291 z"
         style="font-style:normal;font-variant:normal;font-weight:normal;font-stretch:normal;font-family:'Times New Roman';-inkscape-font-specification:'Times New Roman, ';stroke-width:0.374027"
         id="path588" />
      <path
         d="m 128.19768,5.1277948 v 3.9156003 h 2.17696 q 0.84741,0 1.13231,-0.2556828 0.37987,-0.3360404 0.4237,-1.1834464 h 0.2703 v 3.4480661 h -0.2703 q -0.10227,-0.723217 -0.20454,-0.927764 -0.1315,-0.2556825 -0.43101,-0.401787 -0.29952,-0.1461045 -0.92046,-0.1461045 h -2.17696 v 3.2654355 q 0,0.65747 0.0584,0.803575 0.0584,0.138799 0.20455,0.226461 0.14611,0.08036 0.5552,0.08036 h 1.6802 q 0.8401,0 1.21997,-0.116884 0.37987,-0.116883 0.73052,-0.460229 0.45293,-0.452924 0.92777,-1.366077 h 0.29221 l -0.85471,2.483777 h -7.63396 v -0.270294 h 0.35065 q 0.35065,0 0.66477,-0.16802 0.23377,-0.116884 0.31413,-0.350651 0.0877,-0.233767 0.0877,-0.956984 V 6.3112412 q 0,-0.942374 -0.18994,-1.1615307 -0.26298,-0.292209 -0.87662,-0.292209 h -0.35065 V 4.5872082 h 7.63396 l 0.10957,2.1696517 h -0.2849 q -0.15341,-0.781659 -0.34335,-1.073868 -0.18263,-0.292209 -0.54789,-0.4456187 -0.29221,-0.1095784 -1.03003,-0.1095784 z"
         style="font-style:normal;font-variant:normal;font-weight:normal;font-stretch:normal;font-family:'Times New Roman';-inkscape-font-specification:'Times New Roman, ';stroke-width:0.374027"
         id="path590" />
      <path
         d="m 143.26199,14.493093 h -2.64449 l -3.3531,-4.6315127 q -0.37257,0.01461 -0.60633,0.01461 -0.095,0 -0.20455,0 -0.10958,-0.00731 -0.22646,-0.01461 v 2.8782587 q 0,0.935068 0.20455,1.16153 0.27759,0.32143 0.83279,0.32143 h 0.38718 v 0.270294 h -4.24434 v -0.270294 h 0.37257 q 0.62825,0 0.89854,-0.409092 0.15341,-0.226462 0.15341,-1.073868 V 6.3404621 q 0,-0.9350687 -0.20454,-1.1615307 -0.28491,-0.3214299 -0.84741,-0.3214299 h -0.37257 V 4.5872082 h 3.60878 q 1.57793,0 2.32306,0.2337672 0.75244,0.226462 1.27111,0.847406 0.52598,0.6136389 0.52598,1.4683501 0,0.9131531 -0.59903,1.5852337 -0.59172,0.6720807 -1.84091,0.9496792 l 2.04546,2.8417326 q 0.7013,0.9789 1.20536,1.30033 0.50406,0.32143 1.31494,0.409092 z m -7.03493,-5.0917419 q 0.1388,0 0.24107,0.00731 0.10227,0 0.16802,0 1.41722,0 2.13313,-0.6136388 0.72321,-0.6136389 0.72321,-1.563318 0,-0.9277635 -0.58441,-1.5048763 -0.57712,-0.5844179 -1.5341,-0.5844179 -0.4237,0 -1.14692,0.1387992 z"
         style="font-style:normal;font-variant:normal;font-weight:normal;font-stretch:normal;font-family:'Times New Roman';-inkscape-font-specification:'Times New Roman, ';stroke-width:0.374027"
         id="path592" />
      <path
         d="m 147.54377,4.3607463 q 1.92858,0 3.33848,1.4683501 1.41722,1.4610449 1.41722,3.6526122 0,2.2573144 -1.42452,3.7475804 -1.42452,1.490265 -3.44807,1.490265 -2.04546,0 -3.44076,-1.453739 -1.38799,-1.45374 -1.38799,-3.7621907 0,-2.3595875 1.60715,-3.8498533 1.3953,-1.2930247 3.33849,-1.2930247 z m -0.1388,0.5332813 q -1.32955,0 -2.13313,0.9862053 -1.00081,1.2272777 -1.00081,3.5941705 0,2.4253346 1.03734,3.7329696 0.79627,0.993511 2.1039,0.993511 1.3953,0 2.30115,-1.088479 0.91315,-1.088478 0.91315,-3.4334554 0,-2.5422181 -1.00081,-3.7914114 -0.80358,-0.9935106 -2.22079,-0.9935106 z"
         style="font-style:normal;font-variant:normal;font-weight:normal;font-stretch:normal;font-family:'Times New Roman';-inkscape-font-specification:'Times New Roman, ';stroke-width:0.374027"
         id="path594" />
      <path
         d="m 154.30934,8.5904712 q 0.32143,0 0.54059,0.226462 0.22646,0.2191567 0.22646,0.5405866 0,0.3141246 -0.22646,0.5405866 -0.22646,0.2264616 -0.54059,0.2264616 -0.31412,0 -0.54058,-0.2264616 -0.22647,-0.226462 -0.22647,-0.5405866 0,-0.3214299 0.21916,-0.5405866 0.22646,-0.226462 0.54789,-0.226462 z"
         style="font-style:normal;font-variant:normal;font-weight:normal;font-stretch:normal;font-family:'Times New Roman';-inkscape-font-specification:'Times New Roman, ';stroke-width:0.374027"
         id="path596" />
      <path
         d="m 164.74943,4.3607463 0.22646,3.3677084 h -0.22646 q -0.45292,-1.5121814 -1.29302,-2.1769569 -0.8401,-0.6647754 -2.01624,-0.6647754 -0.98621,0 -1.78248,0.5040605 -0.79627,0.4967553 -1.2565,1.5925389 -0.45292,1.0957837 -0.45292,2.7248487 0,1.3441615 0.43101,2.3303665 0.431,0.986205 1.29302,1.512182 0.86932,0.525976 1.97972,0.525976 0.96429,0 1.70211,-0.409093 0.73783,-0.416398 1.62176,-1.643675 l 0.22647,0.146104 q -0.74514,1.322246 -1.73865,1.935885 -0.99351,0.613638 -2.35959,0.613638 -2.46186,0 -3.81332,-1.826306 -1.00812,-1.358771 -1.00812,-3.1996879 0,-1.4829606 0.66477,-2.7248487 0.66478,-1.2418882 1.82631,-1.921274 1.16883,-0.6866911 2.54952,-0.6866911 1.07387,0 2.11852,0.5259761 0.30682,0.160715 0.43831,0.160715 0.19724,0 0.34335,-0.1387993 0.18993,-0.1972411 0.27029,-0.5478918 z"
         style="font-style:normal;font-variant:normal;font-weight:normal;font-stretch:normal;font-family:'Times New Roman';-inkscape-font-specification:'Times New Roman, ';stroke-width:0.374027"
         id="path598" />
      <path
         d="m 167.78933,5.1277948 v 3.9156003 h 2.17696 q 0.84741,0 1.13231,-0.2556828 0.37987,-0.3360404 0.4237,-1.1834464 h 0.2703 v 3.4480661 h -0.2703 q -0.10227,-0.723217 -0.20454,-0.927764 -0.1315,-0.2556825 -0.43101,-0.401787 -0.29951,-0.1461045 -0.92046,-0.1461045 h -2.17696 v 3.2654355 q 0,0.65747 0.0584,0.803575 0.0584,0.138799 0.20454,0.226461 0.14611,0.08036 0.5552,0.08036 h 1.6802 q 0.8401,0 1.21997,-0.116884 0.37988,-0.116883 0.73053,-0.460229 0.45292,-0.452924 0.92776,-1.366077 h 0.29221 l -0.85471,2.483777 h -7.63396 v -0.270294 h 0.35065 q 0.35065,0 0.66477,-0.16802 0.23377,-0.116884 0.31413,-0.350651 0.0877,-0.233767 0.0877,-0.956984 V 6.3112412 q 0,-0.942374 -0.18993,-1.1615307 -0.26299,-0.292209 -0.87663,-0.292209 h -0.35065 V 4.5872082 h 7.63396 l 0.10958,2.1696517 h -0.28491 q -0.15341,-0.781659 -0.34334,-1.073868 -0.18263,-0.292209 -0.5479,-0.4456187 -0.2922,-0.1095784 -1.03003,-0.1095784 z"
         style="font-style:normal;font-variant:normal;font-weight:normal;font-stretch:normal;font-family:'Times New Roman';-inkscape-font-specification:'Times New Roman, ';stroke-width:0.374027"
         id="path600" />
      <path
         d="m 172.99889,14.493093 v -0.270294 h 0.37256 q 0.62825,0 0.89124,-0.401787 0.16072,-0.241073 0.16072,-1.081173 V 6.3404621 q 0,-0.9277635 -0.20455,-1.1615307 -0.2849,-0.3214299 -0.84741,-0.3214299 h -0.37256 V 4.5872082 h 4.03248 q 2.22079,0 3.37501,0.5040605 1.16154,0.5040605 1.86284,1.6802016 0.7086,1.1761412 0.7086,2.7175435 0,2.0673782 -1.2565,3.4553712 -1.4099,1.548708 -4.29547,1.548708 z m 2.82712,-0.715912 q 0.92776,0.204546 1.55601,0.204546 1.69481,0 2.81251,-1.190752 1.1177,-1.190751 1.1177,-3.228909 0,-2.052768 -1.1177,-3.2362144 -1.1177,-1.1834463 -2.87095,-1.1834463 -0.65747,0 -1.49757,0.2118515 z"
         style="font-style:normal;font-variant:normal;font-weight:normal;font-stretch:normal;font-family:'Times New Roman';-inkscape-font-specification:'Times New Roman, ';stroke-width:0.374027"
         id="path602" />
      <path
         d="m 185.61593,5.1277948 v 3.9156003 h 2.17696 q 0.84741,0 1.13231,-0.2556828 0.37987,-0.3360404 0.4237,-1.1834464 h 0.2703 v 3.4480661 h -0.2703 q -0.10227,-0.723217 -0.20454,-0.927764 -0.1315,-0.2556825 -0.43101,-0.401787 -0.29952,-0.1461045 -0.92046,-0.1461045 h -2.17696 v 3.2654355 q 0,0.65747 0.0585,0.803575 0.0584,0.138799 0.20454,0.226461 0.14611,0.08036 0.5552,0.08036 h 1.6802 q 0.8401,0 1.21997,-0.116884 0.37987,-0.116883 0.73053,-0.460229 0.45292,-0.452924 0.92776,-1.366077 h 0.29221 l -0.85471,2.483777 h -7.63396 v -0.270294 h 0.35065 q 0.35065,0 0.66477,-0.16802 0.23377,-0.116884 0.31413,-0.350651 0.0877,-0.233767 0.0877,-0.956984 V 6.3112412 q 0,-0.942374 -0.18994,-1.1615307 -0.26298,-0.292209 -0.87662,-0.292209 h -0.35065 V 4.5872082 h 7.63396 l 0.10958,2.1696517 h -0.28491 q -0.15341,-0.781659 -0.34334,-1.073868 -0.18263,-0.292209 -0.5479,-0.4456187 -0.29221,-0.1095784 -1.03003,-0.1095784 z"
         style="font-style:normal;font-variant:normal;font-weight:normal;font-stretch:normal;font-family:'Times New Roman';-inkscape-font-specification:'Times New Roman, ';stroke-width:0.374027"
         id="path604" />
      <path
         d="m 200.68023,14.493093 h -2.64449 l -3.3531,-4.6315127 q -0.37256,0.01461 -0.60633,0.01461 -0.095,0 -0.20455,0 -0.10957,-0.00731 -0.22646,-0.01461 v 2.8782587 q 0,0.935068 0.20455,1.16153 0.2776,0.32143 0.83279,0.32143 h 0.38718 v 0.270294 h -4.24433 v -0.270294 h 0.37256 q 0.62825,0 0.89855,-0.409092 0.1534,-0.226462 0.1534,-1.073868 V 6.3404621 q 0,-0.9350687 -0.20454,-1.1615307 -0.28491,-0.3214299 -0.84741,-0.3214299 h -0.37256 V 4.5872082 h 3.60878 q 1.57793,0 2.32306,0.2337672 0.75244,0.226462 1.27111,0.847406 0.52597,0.6136389 0.52597,1.4683501 0,0.9131531 -0.59902,1.5852337 -0.59173,0.6720807 -1.84092,0.9496792 l 2.04546,2.8417326 q 0.7013,0.9789 1.20536,1.30033 0.50406,0.32143 1.31494,0.409092 z M 193.6453,9.4013511 q 0.1388,0 0.24108,0.00731 0.10227,0 0.16802,0 1.41721,0 2.13312,-0.6136388 0.72322,-0.6136389 0.72322,-1.563318 0,-0.9277635 -0.58442,-1.5048763 -0.57711,-0.5844179 -1.5341,-0.5844179 -0.4237,0 -1.14692,0.1387992 z"
         style="font-style:normal;font-variant:normal;font-weight:normal;font-stretch:normal;font-family:'Times New Roman';-inkscape-font-specification:'Times New Roman, ';stroke-width:0.374027"
         id="path606" />
      <path
         d="m 202.61705,5.1277948 v 3.9156003 h 2.17695 q 0.84741,0 1.13231,-0.2556828 0.37988,-0.3360404 0.42371,-1.1834464 h 0.27029 v 3.4480661 h -0.27029 q -0.10228,-0.723217 -0.20455,-0.927764 -0.13149,-0.2556825 -0.43101,-0.401787 -0.29951,-0.1461045 -0.92046,-0.1461045 h -2.17695 v 3.2654355 q 0,0.65747 0.0584,0.803575 0.0584,0.138799 0.20455,0.226461 0.1461,0.08036 0.55519,0.08036 h 1.6802 q 0.84011,0 1.21998,-0.116884 0.37987,-0.116883 0.73052,-0.460229 0.45292,-0.452924 0.92776,-1.366077 h 0.29221 l -0.85471,2.483777 h -7.63396 v -0.270294 h 0.35065 q 0.35065,0 0.66478,-0.16802 0.23376,-0.116884 0.31412,-0.350651 0.0877,-0.233767 0.0877,-0.956984 V 6.3112412 q 0,-0.942374 -0.18993,-1.1615307 -0.26299,-0.292209 -0.87663,-0.292209 h -0.35065 V 4.5872082 h 7.63396 l 0.10958,2.1696517 h -0.2849 q -0.15341,-0.781659 -0.34335,-1.073868 -0.18263,-0.292209 -0.54789,-0.4456187 -0.29221,-0.1095784 -1.03004,-0.1095784 z"
         style="font-style:normal;font-variant:normal;font-weight:normal;font-stretch:normal;font-family:'Times New Roman';-inkscape-font-specification:'Times New Roman, ';stroke-width:0.374027"
         id="path608" />
    </g>
  </g>
</svg>
