<?xml version="1.0" encoding="UTF-8" standalone="no"?>
<svg
   xmlns:dc="http://purl.org/dc/elements/1.1/"
   xmlns:cc="http://creativecommons.org/ns#"
   xmlns:rdf="http://www.w3.org/1999/02/22-rdf-syntax-ns#"
   xmlns:svg="http://www.w3.org/2000/svg"
   xmlns="http://www.w3.org/2000/svg"
   xmlns:sodipodi="http://sodipodi.sourceforge.net/DTD/sodipodi-0.dtd"
   xmlns:inkscape="http://www.inkscape.org/namespaces/inkscape"
   width="210mm"
   height="297mm"
   viewBox="0 0 210 297"
   version="1.1"
   id="svg5"
   inkscape:version="1.0.1 (3bc2e813f5, 2020-09-07)"
   sodipodi:docname="sp-path.svg">
  <metadata
     id="metadata458">
    <rdf:RDF>
      <cc:Work
         rdf:about="">
        <dc:format>image/svg+xml</dc:format>
        <dc:type
           rdf:resource="http://purl.org/dc/dcmitype/StillImage" />
        <dc:title></dc:title>
      </cc:Work>
    </rdf:RDF>
  </metadata>
  <sodipodi:namedview
     id="namedview7"
     pagecolor="#ffffff"
     bordercolor="#666666"
     borderopacity="1.0"
     inkscape:showpageshadow="2"
     inkscape:pageopacity="0.0"
     inkscape:pagecheckerboard="0"
     inkscape:deskcolor="#d1d1d1"
     inkscape:document-units="mm"
     showgrid="false"
     inkscape:zoom="0.914906"
     inkscape:cx="297.8448"
     inkscape:cy="632.8519"
     inkscape:window-width="2560"
     inkscape:window-height="1377"
     inkscape:window-x="-8"
     inkscape:window-y="-8"
     inkscape:window-maximized="1"
     inkscape:current-layer="layer1"
     inkscape:document-rotation="0" />
  <defs
     id="defs2" />
  <g
     inkscape:label="Layer 1"
     inkscape:groupmode="layer"
     id="layer1">
    <g
       aria-label="Segoe Print ABCDEabcde12345"
       id="text531"
       style="font-size:16.9333px;line-height:125%;font-family:'Segoe Print';-inkscape-font-specification:'Segoe Print, Normal';letter-spacing:0px;word-spacing:0px;stroke-width:0.264583px"
       transform="translate(-5.4946446,-195.49367)">
      <path
         d="m 25.727814,209.69087 q 0,-1.09967 -0.570508,-1.33945 -0.570507,-0.24805 -1.422135,-0.24805 -1.752864,0 -3.183268,0.69453 -1.422135,0.68626 -1.422135,1.65365 0,0.69453 0.628385,1.21543 0.636654,0.51263 2.761588,1.13274 2.058789,0.59532 2.926953,1.23197 0.876433,0.62839 0.876433,1.52135 0,0.90124 -1.21543,1.95131 -1.21543,1.04179 -2.935221,1.5875 -1.711524,0.5457 -2.910417,0.5457 -1.000455,0 -1.521354,-0.23978 -0.51263,-0.23151 -0.51263,-0.58704 0,-0.24805 0.148828,-0.60358 0.157096,-0.36381 0.314193,-0.36381 0.165364,0 0.338997,0.0579 0.884701,0.33073 1.752865,0.33073 1.562695,0 3.315559,-0.90951 1.752865,-0.91777 1.752865,-1.71152 0,-0.339 -0.537435,-0.64492 -0.529167,-0.31419 -2.695443,-1.00046 -2.687174,-0.85162 -3.307291,-1.65364 -0.611849,-0.81029 -0.611849,-1.70326 0,-1.71979 1.976107,-2.76985 1.976106,-1.05834 4.134114,-1.05834 1.430404,0 2.199349,0.48783 0.768945,0.47956 0.768945,1.0666 0,0.28112 -0.173633,0.81855 -0.173632,0.53744 -0.876432,0.53744 z"
         style="font-size:16.9333px"
         id="path1004" />
      <path
         d="m 35.476056,216.11528 q 0,0.84336 -1.49655,2.03399 -1.488281,1.19062 -3.075781,1.19062 -1.331185,0 -2.058789,-0.78548 -0.719336,-0.78548 -0.719336,-2.19108 0,-2.36471 1.595769,-4.49792 1.595768,-2.1332 3.489192,-2.1332 0.620117,0 1.008724,0.40514 0.396875,0.40515 0.396875,0.97565 0,1.27331 -1.248503,2.43913 -1.248502,1.16582 -3.340364,2.2903 -0.429948,0.22324 -0.429948,0.57878 0,0.68626 0.396875,1.09967 0.396875,0.41341 1.174089,0.41341 1.777669,0 3.629752,-1.96783 0.272852,-0.27286 0.413411,-0.27286 0.264584,0 0.264584,0.42168 z m -5.746419,-1.28984 q 3.505729,-2.08359 3.505729,-3.34863 0,-0.4961 -0.446485,-0.4961 -0.760677,0 -1.719791,1.11621 -0.950846,1.11622 -1.339453,2.72852 z"
         style="font-size:16.9333px"
         id="path1006" />
      <path
         d="m 43.049753,215.92511 q -0.09922,-0.0744 -0.553972,0.46302 -0.752408,0.88471 -1.926497,1.57097 -1.16582,0.68626 -2.166276,0.68626 -0.74414,0 -1.16582,-0.46302 -0.42168,-0.47129 -0.42168,-1.29811 0,-1.28158 0.967383,-2.85254 0.967383,-1.57923 2.703711,-2.75332 1.744596,-1.17409 3.050976,-1.17409 0.686263,0 1.207162,0.39688 0.124023,0.0992 0.214974,0.16536 0.148828,0.10749 0.281119,0.43822 0.132292,0.32246 0.132292,0.5209 0,0.12402 -0.09095,0.38033 -0.504362,1.37253 -0.686263,2.27377 -0.181901,0.90123 -0.396875,3.03444 -0.198438,1.91823 -0.429948,2.95175 -0.231511,1.03353 -0.835091,2.00092 -0.603581,0.96738 -1.44694,1.44694 -0.84336,0.48782 -1.736328,0.48782 -1.546159,0 -3.050977,-1.0666 -1.504817,-1.0666 -1.504817,-1.71152 0,-0.40515 0.305924,-0.40515 0.148828,0 0.8847,0.48783 1.943034,1.29811 3.497461,1.29811 1.35599,0 2.058789,-1.44694 0.711068,-1.44694 0.967383,-4.32428 0.05788,-0.65319 0.14056,-1.10795 z m -0.01654,-4.53925 q -0.702799,0 -1.761132,0.7276 -1.050065,0.7276 -2.042253,2.1332 -0.992187,1.4056 -0.992187,2.35645 0,0.32246 0.198437,0.51263 0.206706,0.1819 0.454753,0.1819 0.735872,0 1.918229,-0.76068 1.190625,-0.76067 2.042252,-2.1084 0.859896,-1.35598 0.859896,-2.12493 0,-0.91777 -0.677995,-0.91777 z"
         style="font-size:16.9333px"
         id="path1008" />
      <path
         d="m 49.341876,219.33162 q -1.132747,0 -1.86862,-0.85989 -0.735872,-0.8599 -0.735872,-2.12494 0,-2.1332 1.430404,-4.20026 1.438671,-2.07532 3.439583,-2.07532 1.322916,0 2.141471,1.01699 0.826823,1.01699 0.826823,2.42259 0,2.14974 -1.703255,3.98529 -1.694987,1.83554 -3.530534,1.83554 z m -1.149284,-3.1998 q 0,0.83509 0.347266,1.36426 0.355534,0.52916 0.93431,0.52916 1.231966,0 2.4722,-1.34772 1.240235,-1.35599 1.240235,-3.00963 0,-1.01699 -0.479558,-1.64538 -0.471289,-0.63665 -1.273307,-0.63665 -1.331185,0 -2.290299,1.63711 -0.950847,1.62884 -0.950847,3.10885 z"
         style="font-size:16.9333px"
         id="path1010" />
      <path
         d="m 63.579765,216.11528 q 0,0.84336 -1.496549,2.03399 -1.488282,1.19062 -3.075781,1.19062 -1.331185,0 -2.058789,-0.78548 -0.719336,-0.78548 -0.719336,-2.19108 0,-2.36471 1.595768,-4.49792 1.595768,-2.1332 3.489192,-2.1332 0.620117,0 1.008724,0.40514 0.396875,0.40515 0.396875,0.97565 0,1.27331 -1.248502,2.43913 -1.248503,1.16582 -3.340365,2.2903 -0.429948,0.22324 -0.429948,0.57878 0,0.68626 0.396875,1.09967 0.396875,0.41341 1.174089,0.41341 1.777669,0 3.629752,-1.96783 0.272852,-0.27286 0.413412,-0.27286 0.264583,0 0.264583,0.42168 z m -5.746419,-1.28984 q 3.505729,-2.08359 3.505729,-3.34863 0,-0.4961 -0.446484,-0.4961 -0.760677,0 -1.719792,1.11621 -0.950846,1.11622 -1.339453,2.72852 z"
         style="font-size:16.9333px"
         id="path1012" />
      <path
         d="M 73.410689,209.10383 Q 72.9394,208.93846 72.9394,208.2522 q 0,-0.53744 2.182812,-1.0418 2.191081,-0.51263 3.819922,-0.51263 1.802474,0 2.860807,0.74414 1.058333,0.74414 1.058333,1.97611 0,1.82728 -2.017447,3.27422 -2.00918,1.44694 -5.423958,2.12493 -0.901237,0.1819 -1.016993,0.30593 -0.107486,0.11575 -0.173632,1.47174 -0.05788,1.34772 -0.05788,1.87689 0,0.37207 -0.239779,0.66973 -0.23151,0.29765 -0.545703,0.29765 -0.727604,0 -0.727604,-0.98392 0,-0.53743 0.297656,-2.9931 l 0.587045,-4.90306 q 0.0248,-0.12402 0.0083,-0.71106 -0.0083,-0.58705 -0.14056,-0.74414 z m 1.719792,-0.47129 q -0.05788,0.23977 -0.115756,0.8847 -0.115755,1.14928 -0.289388,2.53834 -0.09095,0.72761 -0.173632,1.57923 2.720247,-0.37207 4.828645,-1.52135 2.108399,-1.14928 2.108399,-2.52181 0,-1.68672 -2.612761,-1.68672 -1.711523,0 -3.745507,0.72761 z"
         style="font-size:16.9333px"
         id="path1014" />
      <path
         d="m 85.217719,215.63573 q 0.08268,-0.14883 0.198438,-0.41342 0.562239,-1.28984 1.033528,-2.01744 0.471289,-0.73588 1.033529,-1.4056 0.570508,-0.66973 1.033529,-1.01699 0.471289,-0.34727 0.851627,-0.47956 0.380339,-0.14056 0.735872,-0.14056 0.719336,0 1.174089,0.43821 0.454752,0.42995 0.454752,1.00873 0,0.25631 -0.165364,0.46302 -0.157096,0.20671 -0.487826,0.20671 -0.347265,0 -0.636653,-0.30593 -0.297656,-0.30592 -0.620117,-0.30592 -0.859896,0 -2.38125,2.08359 -1.521354,2.08359 -1.852083,4.58887 -0.08268,0.64492 -0.314193,0.85162 -0.231511,0.20671 -0.65319,0.20671 -0.405143,0 -0.587044,-0.60358 -0.181901,-0.60358 -0.181901,-2.03398 0,-0.38861 0.04134,-1.71153 0.04961,-1.56269 0.198437,-2.52181 0.02481,-0.15709 0.08268,-0.73587 0.05788,-0.63665 0.14056,-0.8847 0.09095,-0.24805 0.355534,-0.46302 0.272852,-0.21498 0.587044,-0.21498 0.305925,0 0.454753,0.19844 0.157096,0.19017 0.157096,0.41341 0,0.32246 -0.165364,0.90951 -0.19017,0.65319 -0.223242,0.90124 -0.02481,0.28112 -0.09095,0.58704 -0.08268,0.35553 -0.165365,1.86862 l -0.0083,0.30592 z"
         style="font-size:16.9333px"
         id="path1016" />
      <path
         d="m 94.999038,207.84705 q -0.173633,0 -0.264583,-0.37207 -0.03307,-0.11575 -0.09095,-0.25631 -0.223242,-0.53744 -0.223242,-0.93431 0,-0.33073 0.388607,-0.66973 0.396875,-0.34726 0.876432,-0.34726 0.239778,0 0.537435,0.19017 0.297656,0.1819 0.297656,0.35553 0,0.27285 -0.206706,0.92604 -0.198437,0.65319 -0.644922,0.8847 -0.438216,0.22324 -0.669727,0.22324 z m -1.083138,9.23562 q 0,0.62838 0.173633,1.41386 0.03307,0.14883 0.03307,0.24805 0,0.14883 -0.272852,0.38034 -0.272851,0.23978 -0.578776,0.23978 -0.802018,0 -0.802018,-1.47175 0,-1.52135 0.628385,-4.81211 0.214974,-1.14928 0.214974,-1.41386 0,-0.5209 0.190169,-0.8847 0.19017,-0.37207 0.537435,-0.37207 0.42168,0 0.661459,0.2067 0.248046,0.19844 0.248046,0.44649 0,0.24804 -0.115755,0.65319 -0.620117,2.18281 -0.768945,3.12539 -0.148828,0.94257 -0.148828,2.24069 z"
         style="font-size:16.9333px"
         id="path1018" />
      <path
         d="m 102.86212,212.55994 q -0.42995,0 -0.94258,0.56224 -0.50436,0.56224 -1.54615,2.52181 -1.37253,2.6293 -1.777673,2.9931 -0.396875,0.36381 -0.661459,0.36381 -0.975651,0 -0.975651,-0.94258 0,-0.39688 0.132292,-1.12448 0.454753,-2.49701 0.454753,-5.26686 0,-0.3142 0.264583,-0.69453 0.272851,-0.38861 0.51263,-0.38861 0.429948,0 0.611849,0.26458 0.181901,0.26458 0.181901,1.0666 0,0.83509 -0.496094,3.43959 -0.165364,0.85989 -0.165364,1.0914 0,0.13229 0.06615,0.13229 0.124023,0 1.149283,-1.9761 1.03352,-2.00918 1.81074,-2.82774 0.77721,-0.81855 1.71152,-0.81855 0.74414,0 1.20716,0.67799 0.47129,0.678 0.68627,2.4722 0.23151,2.04226 0.41341,2.54662 0.19017,0.49609 0.59531,0.49609 0.25632,0 0.64492,-0.1819 0.0662,-0.0331 0.0992,-0.0331 0.35553,0 0.35553,0.41341 0,0.3638 -0.48782,0.77721 -0.48783,0.40515 -1.17409,0.40515 -0.7028,0 -1.09141,-0.55398 -0.38033,-0.56223 -0.60358,-2.98483 -0.23151,-2.43086 -0.97565,-2.43086 z"
         style="font-size:16.9333px"
         id="path1020" />
      <path
         d="m 111.82488,210.57557 q 0.85163,-0.0661 1.60404,-0.1571 0.74414,-0.0827 1.24023,-0.0827 0.62839,0 0.79375,0.11576 0.16537,0.11575 0.16537,0.40514 0,0.66973 -0.93431,0.7276 -1.19889,0.0744 -2.20762,0.20671 -1.00872,0.13229 -1.0914,0.22324 -0.0744,0.0827 -0.4961,1.96784 -0.42168,1.87689 -0.42168,2.43913 0,0.9095 0.23978,1.21543 0.23978,0.29765 0.71934,0.29765 0.71107,0 1.9761,-1.0666 0.48783,-0.43821 0.75241,-0.43821 0.35554,0 0.35554,0.38033 0,0.59532 -1.14929,1.54616 -1.14101,0.94258 -2.33991,0.94258 -2.00091,0 -2.00091,-2.35644 0,-0.85163 0.41341,-2.63757 0.40515,-1.77767 0.40515,-2.1332 0,-0.12403 -0.19844,-0.12403 l -0.8599,0.0744 q -1.05833,0 -1.05833,-0.84336 0,-0.47956 0.48783,-0.47956 h 1.70325 q 0.17363,0 0.30593,-0.15709 0.13229,-0.1571 0.3886,-1.05007 0.25632,-0.90124 0.45476,-1.77767 0.19843,-0.86816 0.77721,-0.86816 0.35553,0 0.55397,0.24804 0.19844,0.24805 0.19844,0.46303 0,0.11575 -0.29766,1.18235 z"
         style="font-size:16.9333px"
         id="path1022" />
      <path
         d="m 24.48758,228.25301 q 0.07441,0.0579 0.07441,0.40514 0,0.35554 -0.07441,0.53744 l 0.107487,0.34726 q 0.272851,0.97565 0.537435,1.60404 0.330729,0.84336 0.65319,1.81074 0.735872,2.22416 1.529622,3.81166 0.802018,1.57923 1.463477,2.22415 0.413411,0.40514 0.51263,0.56224 0.107487,0.14883 0.107487,0.35553 0,0.3638 -0.248047,0.61185 -0.239779,0.25632 -0.578776,0.25632 -1.058333,0 -2.563151,-3.3321 -0.603581,-1.31465 -0.727604,-1.31465 -0.396875,0 -1.711524,0.23978 -1.30638,0.23978 -2.389518,0.56224 -0.620117,0.19017 -0.785481,0.19017 -0.206706,0 -0.429948,-0.20671 -0.04134,-0.0331 -0.09922,-0.0331 -0.181901,0 -0.785482,1.07487 -0.992187,1.77767 -1.256771,2.12494 -0.256315,0.33899 -0.570507,0.33899 -0.223243,0 -0.537435,-0.26458 -0.314193,-0.25632 -0.314193,-0.52917 0,-0.26458 0.297656,-0.71106 0.297657,-0.45476 1.21543,-1.81902 1.637109,-2.42259 2.761588,-4.54752 1.77767,-3.38171 2.257227,-3.98529 0.479557,-0.61185 0.735872,-0.61185 0.545703,0 0.818555,0.29766 z m 0.504362,6.57324 q -0.289388,-0.66146 -0.851628,-2.42259 -0.611849,-1.87689 -0.777213,-2.28203 -0.454753,0.95911 -1.405599,2.72025 l -1.49655,2.836 q 0.173633,-0.13229 0.917774,-0.21497 0.570508,-0.0579 0.992187,-0.14883 2.257227,-0.45476 2.621029,-0.48783 z"
         style="font-size:16.9333px"
         id="path1024" />
      <path
         d="m 38.667592,233.32143 q 0,0.1323 0.165365,0.17364 0.892968,0.25631 1.579231,1.00045 0.686263,0.73588 0.686263,1.75287 0,1.56269 -2.000911,3.21634 -2.000911,1.65364 -4.208528,1.65364 -0.620118,0 -0.975651,-0.16536 -0.347266,-0.1571 -0.347266,-0.37207 0,-1.0418 1.471745,-1.0418 0.206705,0 0.636653,0.0165 0.438216,0.0165 1.000456,-0.20671 0.570508,-0.23151 1.107943,-0.58704 0.537434,-0.3638 0.917773,-0.74414 0.388607,-0.38861 0.620117,-0.81856 0.239779,-0.42994 0.239779,-0.86816 0,-0.71107 -0.620117,-1.26504 -0.611849,-0.55397 -1.63711,-0.55397 -0.165364,0 -0.785481,0.26458 -0.620118,0.27285 -0.810287,0.27285 -0.644922,0 -0.810286,-0.16536 -0.157097,-0.16536 -0.157097,-0.58704 0,-0.25632 1.397331,-0.82683 1.16582,-0.46302 2.257227,-1.51308 1.099674,-1.05007 1.099674,-1.77767 0,-0.50436 -0.413411,-0.80202 -0.413412,-0.29766 -1.157553,-0.29766 -1.231966,0 -2.447395,0.30593 -1.21543,0.29765 -1.339453,0.56224 -0.115755,0.26458 -0.669727,4.01009 -0.553971,3.73724 -0.553971,4.32428 0,0.57878 0.02481,1.08314 0.0248,0.49609 -0.181901,0.85163 -0.198438,0.3638 -0.686263,0.3638 -0.446485,0 -0.694532,-0.35553 -0.239778,-0.34727 -0.239778,-0.88471 0,-0.14055 0.07441,-0.42994 0.429948,-1.77767 0.810286,-4.54753 0.380339,-2.76986 0.380339,-3.1998 0,-0.34727 -0.09922,-0.51263 -0.09095,-0.16537 -0.429948,-0.16537 -0.132292,0 -0.264583,0.008 -0.124024,0.008 -0.256315,-0.1571 -0.124024,-0.16536 -0.124024,-0.39687 0,-0.72761 2.339909,-1.4304 2.339909,-0.7028 4.754231,-0.7028 1.240235,0 2.025717,0.66972 0.793749,0.66146 0.793749,1.55443 0,0.66146 -0.677994,1.56269 -0.669727,0.89297 -1.794206,1.72806 z"
         style="font-size:16.9333px"
         id="path1026" />
      <path
         d="m 51.822344,237.58784 q 0.322461,0 0.322461,0.39688 0,0.41341 -0.917773,1.18235 -0.917774,0.76895 -2.124935,1.2237 -1.198893,0.45475 -2.199349,0.45475 -1.463476,0 -2.670638,-0.96738 -1.198893,-0.96738 -1.198893,-2.80293 0,-3.34863 2.877344,-6.51536 2.885611,-3.175 5.556249,-3.175 1.000456,0 1.595769,0.62011 0.60358,0.61185 0.60358,1.43041 0,0.76067 -0.09095,1.19889 -0.08268,0.43822 -0.520899,0.74414 -0.438216,0.29766 -0.702799,0.29766 -0.190169,0 -0.330729,-0.16537 -0.14056,-0.16536 -0.14056,-0.44648 0,-0.19017 0.14056,-0.79375 0.14056,-0.59531 0.14056,-0.8847 0,-0.84336 -0.735873,-0.84336 -1.141015,0 -2.827734,1.31465 -1.67845,1.30638 -2.852539,3.32382 -1.174088,2.00918 -1.174088,3.70417 0,1.13275 0.669726,1.88516 0.677995,0.74414 1.926497,0.74414 0.719336,0 1.744597,-0.35554 1.033528,-0.3638 1.893424,-0.96738 0.859896,-0.60358 1.016992,-0.60358 z"
         style="font-size:16.9333px"
         id="path1028" />
      <path
         d="m 56.650987,230.10509 q 0,-0.32246 -0.37207,-0.42168 -0.677995,-0.16536 -0.677995,-0.5705 0,-0.30593 0.264584,-0.59532 0.272851,-0.29765 0.578776,-0.29765 l 1.157552,0.0331 q 0.810286,0 2.133203,-0.10749 1.314648,-0.10748 1.967838,-0.10748 2.282031,0 3.662826,1.28984 1.389062,1.28158 1.389062,3.38171 0,2.30683 -1.984375,4.20852 -1.976107,1.89343 -5.638932,2.76986 -1.44694,0.34727 -1.95957,0.7028 -0.677995,0.46302 -1.124479,0.46302 -0.314193,0 -0.56224,-0.339 -0.239778,-0.33073 -0.239778,-0.52916 0,-0.0827 0.165364,-0.42995 0.173633,-0.37207 0.239779,-0.75241 0.07441,-0.38034 0.124023,-1.36426 0.04134,-0.97565 0.297656,-3.15019 0.264584,-2.18282 0.429948,-3.09232 0.148828,-0.79375 0.148828,-1.09141 z m 1.49655,-0.55397 q -0.983919,5.91179 -0.983919,8.34264 0,0.53744 0.107487,0.81029 0.06614,0.0579 0.256315,0.0579 0.529166,0 2.769856,-0.69453 2.24069,-0.69453 3.638021,-2.14147 1.397331,-1.44694 1.397331,-3.29076 0,-1.52962 -1.083138,-2.43913 -1.07487,-0.91777 -2.844271,-0.91777 -1.07487,0 -2.587956,0.19844 -0.338997,0.0496 -0.669726,0.0744 z"
         style="font-size:16.9333px"
         id="path1030" />
      <path
         d="m 78.0657,229.41883 q -0.02481,0.008 -0.454753,-0.008 -0.42168,-0.0165 -0.868164,0.0827 -0.446484,0.10749 -0.79375,0.1323 -0.239779,0.0165 -0.520898,0.0661 -0.355534,0.0662 -1.405599,0.0744 -1.579232,0.0248 -1.992643,0.21497 -0.405144,0.19017 -0.454753,0.78548 -0.04134,0.45475 -0.173633,1.00046 -0.405143,1.62884 -0.405143,2.16627 l 0.124023,0.008 q 0.388607,0.0248 1.570964,-0.10749 1.182357,-0.13229 1.769401,-0.26458 1.207161,-0.28939 1.843815,-0.28939 1.033528,0 1.033528,0.55397 0,0.678 -0.694531,0.8351 -0.686263,0.14882 -2.877343,0.3886 -2.678906,0.29766 -2.860807,0.53744 -0.173633,0.23151 -0.372071,1.51308 -0.198437,1.28158 -0.198437,1.63711 v 0.091 q 0.04134,0.41341 0.529166,0.47129 l 0.148828,0.008 q 0.454753,0.0248 1.083138,-0.0744 l 1.5875,-0.23151 q 0.884701,-0.12403 1.794206,-0.28939 1.132747,-0.23978 1.438672,-0.23978 0.23151,0 0.51263,0.19844 0.289388,0.19017 0.289388,0.61185 0,0.30592 -0.148828,0.42168 -0.843359,0.37207 -2.174544,0.41341 -1.149284,0.0413 -3.588412,0.3886 -1.231966,0.1819 -1.620572,0.1819 -0.967383,0 -1.21543,-0.15709 -0.239779,-0.14883 -0.289388,-0.74414 l -0.03307,-0.28112 v -0.0331 q 0,-0.13229 0.148828,-0.53743 0.206706,-0.58704 0.479557,-2.23242 0.28112,-1.64538 0.363803,-2.60449 0.04134,-0.33073 0.132291,-0.80202 0.363802,-1.97611 0.363802,-3.12539 0,-0.0579 -0.165364,-0.30593 -0.04134,-0.0496 -0.05788,-0.0827 -0.05788,-0.19017 -0.107487,-0.31419 -0.05788,-0.11576 -0.05788,-0.27285 v -0.0827 q 0,-0.1819 0.223243,-0.32246 0.223242,-0.14056 0.429948,-0.14056 h 0.0248 q 0.347266,0 0.79375,0.0496 h 0.03307 q 0.190169,0 1.835547,-0.15709 1.645377,-0.1571 3.927409,-0.54571 0.239778,-0.0413 0.289388,-0.0413 l 0.124023,-0.008 q 0.644922,-0.0413 0.8847,0.1323 0.248047,0.16536 0.305925,0.65319 0,0.23151 -0.214974,0.44648 -0.214974,0.21497 -0.338997,0.23151 z"
         style="font-size:16.9333px"
         id="path1032" />
      <path
         d="m 85.63113,237.07521 q -1.157552,1.55443 -2.290299,2.33164 -1.132747,0.77721 -2.075326,0.77721 -0.636653,0 -1.099674,-0.53743 -0.463021,-0.53744 -0.463021,-1.38079 0,-2.17455 1.943034,-4.67982 1.943034,-2.51354 3.861263,-2.51354 0.694531,0 1.033528,0.79375 0.107487,0.26458 0.338998,0.26458 0.661458,0 0.661458,0.51263 0,0.25631 -0.08268,0.7028 -0.446485,2.43913 -0.446485,3.43958 0,2.00091 0.760677,2.39779 0.363803,0.19844 0.363803,0.48782 0,0.25632 -0.355534,0.51263 -0.355534,0.26459 -0.686263,0.26459 -0.636654,0 -1.050065,-0.87643 -0.413412,-0.87644 -0.413412,-2.49701 z m -0.504362,-4.65501 q -1.091406,0 -2.538346,2.05052 -1.44694,2.04225 -1.44694,3.38997 0,0.95085 0.628385,0.95085 0.909506,0 2.52181,-1.83555 1.612305,-1.83555 1.612305,-3.37344 0,-1.18235 -0.777214,-1.18235 z"
         style="font-size:16.9333px"
         id="path1034" />
      <path
         d="m 91.509842,235.38022 q 1.058333,-1.92649 2.530078,-3.11712 1.471744,-1.19889 2.654101,-1.19889 0.65319,0 1.107943,0.60358 0.454752,0.60358 0.454752,1.47174 0,2.57142 -1.943033,4.82865 -1.934766,2.24896 -4.092774,2.24896 -0.587044,0 -1.083138,-0.3142 -0.487825,-0.32246 -0.545703,-0.80201 -0.03307,-0.38861 -0.223242,-0.57878 -0.355534,-0.35553 -0.355534,-0.76068 0,-0.75241 0.413412,-3.21634 l 0.851627,-4.9444 q 0.438216,-2.48874 0.636654,-3.07578 0.206706,-0.58704 0.454752,-0.78548 0.248047,-0.19844 0.611849,-0.19844 0.578776,0 0.578776,1.00046 0,0.95084 -0.636653,2.66237 -0.611849,1.64537 -1.413867,6.17636 z m -0.198438,2.75332 q 0.429948,0.80202 1.041797,0.80202 0.942578,0 1.992643,-0.77721 1.050065,-0.78548 1.810742,-2.19935 0.768945,-1.42214 0.768945,-2.39779 0,-0.43821 -0.157096,-0.75241 -0.157096,-0.31419 -0.396875,-0.31419 -1.149284,0 -2.811198,1.88516 -1.653645,1.87689 -2.248958,3.75377 z"
         style="font-size:16.9333px"
         id="path1036" />
      <path
         d="m 102.10971,240.55613 q -1.24023,0 -1.90996,-0.71106 -0.661459,-0.71107 -0.661459,-1.99265 0,-2.158 1.711519,-4.54752 1.71153,-2.39779 3.18327,-2.39779 0.66973,0 1.14929,0.72761 0.48782,0.71933 0.48782,1.52962 0,0.48782 -0.21497,0.84336 -0.20671,0.34726 -0.42168,0.34726 -0.47956,0 -0.678,-0.96738 -0.22324,-1.0418 -0.64492,-1.0418 -0.85989,0 -2.03398,2.04226 -1.17409,2.04225 -1.17409,3.44785 0,1.4056 1.59577,1.4056 1.21543,0 2.8608,-1.14102 0.57878,-0.40514 0.85163,-0.40514 0.28112,0 0.28112,0.32246 0,0.62838 -1.48001,1.5875 -1.48001,0.95084 -2.90215,0.95084 z"
         style="font-size:16.9333px"
         id="path1038" />
      <path
         d="m 114.36322,236.6618 q -1.10794,1.77767 -2.34817,2.74505 -1.24024,0.95912 -2.28203,0.95912 -0.80202,0 -1.27331,-0.61185 -0.46302,-0.62012 -0.46302,-1.64538 0,-2.09186 1.69499,-4.29121 1.70325,-2.19935 3.67109,-2.19935 0.85989,0 1.59577,0.73587 l 1.15755,-5.40742 q 0.12402,-0.55397 0.45475,-0.74414 0.339,-0.19017 0.52917,-0.19017 0.57877,0 0.57877,1.02526 0,0.1819 -0.38033,1.35599 -0.60359,1.81901 -1.14929,4.47311 -0.53743,2.64584 -0.53743,4.24987 0,1.65365 0.71933,1.65365 0.46302,0 0.95912,-0.30593 0.2067,-0.14883 0.3886,-0.14883 0.26459,0 0.26459,0.34727 0,0.42168 -0.74414,0.97565 -0.73588,0.55397 -1.51309,0.55397 -1.36426,0 -1.36426,-2.62929 0,-0.44649 0.0413,-0.90124 z m -1.08313,-3.86953 q -1.33946,0 -2.65411,1.81901 -1.31464,1.81074 -1.31464,3.34863 0,1.03353 0.68626,1.03353 0.64492,0 1.56269,-0.678 0.92605,-0.67799 1.9017,-2.158 0.97565,-1.48828 0.97565,-2.23242 0,-0.36381 -0.339,-0.74415 -0.33073,-0.3886 -0.81855,-0.3886 z"
         style="font-size:16.9333px"
         id="path1040" />
      <path
         d="m 126.70769,237.28192 q 0,0.84336 -1.49655,2.03398 -1.48828,1.19063 -3.07578,1.19063 -1.33118,0 -2.05879,-0.78549 -0.71933,-0.78548 -0.71933,-2.19108 0,-2.36471 1.59576,-4.49791 1.59577,-2.13321 3.4892,-2.13321 0.62011,0 1.00872,0.40515 0.39688,0.40514 0.39688,0.97565 0,1.2733 -1.24851,2.43913 -1.2485,1.16582 -3.34036,2.29029 -0.42995,0.22325 -0.42995,0.57878 0,0.68626 0.39688,1.09967 0.39687,0.41342 1.17408,0.41342 1.77767,0 3.62976,-1.96784 0.27285,-0.27285 0.41341,-0.27285 0.26458,0 0.26458,0.42168 z m -5.74642,-1.28985 q 3.50573,-2.08359 3.50573,-3.34863 0,-0.49609 -0.44648,-0.49609 -0.76068,0 -1.7198,1.11621 -0.95084,1.11621 -1.33945,2.72851 z"
         style="font-size:16.9333px"
         id="path1042" />
      <path
         d="m 134.29793,239.03478 0.0331,0.48783 q 0,0.42994 -1.08314,0.42994 -0.11575,0 -0.33073,-0.28112 -0.19844,-0.26458 -0.29766,-0.23151 -0.091,0 -0.9095,0.22325 -0.81029,0.22324 -0.96738,0.28938 -1.00046,0.32246 -1.4056,0.32246 -0.38034,0 -0.61185,-0.25631 -0.22324,-0.25632 -0.22324,-0.49609 0,-0.43822 0.74414,-0.63666 0.75241,-0.2067 1.30638,-0.30592 1.77767,-0.3638 2.08359,-0.54571 0.0909,-1.57923 0.37207,-3.62148 l 0.47129,-3.48919 q -0.47956,0 -1.33118,0.57877 -1.51309,0.99219 -2.66237,0.99219 -0.37207,0 -0.37207,-0.5209 0,-0.33073 0.12402,-0.43821 0.13229,-0.10749 1.15755,-0.54571 1.02526,-0.44648 2.57969,-1.37252 1.55443,-0.92604 1.69499,-0.92604 0.26458,0 0.45475,0.3638 0.19017,0.3638 0.19017,0.63665 0,0.23151 -0.23978,0.47129 -0.81029,3.5388 -0.94258,5.42396 -0.13229,1.87689 -0.0413,2.19108 0.62838,-0.0248 1.81074,-0.35553 1.62884,-0.43822 2.6293,-0.43822 0.19844,0.38034 0.19844,0.64492 0,0.28112 -0.0827,0.3638 -0.0827,0.0827 -0.5457,0.23978 -0.46302,0.1571 -1.59577,0.30593 -1.66191,0.23151 -2.20761,0.49609 z"
         style="font-size:16.9333px"
         id="path1044" />
      <path
         d="m 144.195,237.98472 q 0.42994,-0.0331 1.30638,-0.0331 1.08313,0 3.59667,0.1571 0.68627,0.0331 0.87644,0.0248 0.19843,-0.008 0.51263,-0.13229 0.33899,-0.13229 0.51263,-0.13229 0.14056,0 0.32246,0.21497 0.19017,0.20671 0.19017,0.35554 0,0.53743 -0.56224,0.84336 -0.56224,0.29765 -1.00046,0.29765 h -0.30592 q -0.79375,0 -1.16582,-0.10748 -1.14929,-0.30593 -2.86081,-0.30593 -1.46348,0 -2.57142,0.35554 -1.10794,0.35553 -1.43867,0.7524 -0.37207,0.44649 -0.56224,0.55398 -0.1819,0.11575 -0.50436,0.11575 -0.64492,0 -0.64492,-0.57051 0,-0.86816 0.71106,-1.52962 0.71107,-0.66973 2.38952,-1.52135 0.98392,-0.48783 1.1989,-0.66973 0.21497,-0.1819 1.18235,-1.0666 0.97565,-0.8847 1.48001,-1.52135 0.50437,-0.63666 0.71934,-1.13275 0.22324,-0.50436 0.22324,-0.92604 0,-0.57878 -0.68626,-1.17409 -0.68626,-0.60358 -1.27331,-0.60358 -0.50436,0 -1.52135,0.63665 -1.01699,0.62839 -1.51309,1.21543 -0.32246,0.38034 -0.98392,0.38034 -0.15709,0 -0.33899,-0.35554 -0.1819,-0.35553 -0.1819,-0.5705 0,-0.1571 0.0413,-0.21498 0.0413,-0.0579 0.82682,-0.62011 0.79375,-0.56224 1.42213,-0.96739 0.63666,-0.41341 1.27331,-0.62838 0.63666,-0.21498 1.63711,-0.21498 0.85163,0 1.59577,0.71107 0.75241,0.7028 1.11621,1.38906 0.3638,0.678 0.3638,0.77722 0,1.13274 -1.69498,3.13366 -1.68672,2.00091 -3.68763,3.08405 z"
         style="font-size:16.9333px"
         id="path1046" />
      <path
         d="m 155.99376,235.02469 q -0.60358,0 -0.60358,-0.35553 0,-0.19844 0.11575,-0.43822 0.11576,-0.24805 0.66973,-0.7276 l 1.47174,-1.25678 q 0.90951,-0.77721 1.99265,-1.54615 -0.45476,-0.0744 -2.43086,0.16536 -1.52962,0.19017 -2.14147,0.19017 -1.42214,0 -1.42214,-1.29811 0,-0.25632 0.16537,-0.44649 0.17363,-0.19843 0.42168,-0.19843 0.1819,0 0.44648,0.19017 0.33073,0.23151 0.51263,0.29765 0.19017,0.0661 0.55397,0.0661 0.58705,0 2.14974,-0.14883 2.05879,-0.23978 3.28249,-0.23978 1.01699,0 1.01699,0.66146 0,0.47129 -0.42168,0.80202 -0.41341,0.33073 -1.20716,0.80202 -1.05007,0.62838 -1.47175,0.94257 -0.41341,0.30593 -0.82682,0.81029 0.90951,-0.0661 1.37253,-0.0661 1.00045,0 1.71979,0.25632 0.71933,0.24805 1.07487,0.65319 0.3638,0.40514 0.55397,0.65319 0.19017,0.24805 0.19017,0.89297 0,0.55397 -0.81029,1.7942 -0.81028,1.23197 -2.6789,1.95957 -1.86862,0.72761 -3.64629,0.72761 -0.51263,0 -1.48002,-0.12403 -0.95911,-0.13229 -1.18235,-0.47128 -0.21498,-0.339 -0.21498,-0.68627 0,-0.86816 0.81856,-0.86816 0.0331,0 0.12402,0.0413 l 0.57051,0.23978 q 0.94258,0.42995 1.71979,0.42995 0.678,0 2.06706,-0.26459 1.38906,-0.27285 2.33164,-1.14928 0.94258,-0.8847 0.94258,-1.41387 0,-0.90124 -0.95085,-1.19062 -0.94258,-0.29766 -2.10013,-0.29766 -1.6123,0 -2.69544,0.61185 z"
         style="font-size:16.9333px"
         id="path1048" />
      <path
         d="m 175.29181,236.12436 q -1.14101,-0.41341 -2.74505,-0.32246 -0.27285,0.94258 -0.27285,1.76114 l 0.008,0.37207 v 0.33899 l 0.008,0.37207 q 0.008,0.32246 0,0.43822 -0.008,0.10749 0.21498,0.38034 0.21497,0.26458 0.21497,0.3638 0,0.24805 -0.27285,0.5457 -0.26458,0.30593 -0.51263,0.30593 -0.65319,0 -0.86816,-0.30593 -0.21498,-0.29765 -0.21498,-0.90123 0,-0.32246 0.0662,-1.017 0.0579,-0.66972 0.0744,-1.00872 0.0331,-0.80202 0.19844,-1.54616 -0.19844,-0.0331 -0.58704,-0.0331 -1.76114,0 -2.85254,0.28939 -1.19063,0.32246 -2.14974,0.32246 -0.39688,0 -0.89297,-0.56224 0.37207,-1.02526 4.04316,-3.92741 1.17409,-0.91777 1.9017,-1.57923 0.76067,-0.7028 1.69498,-1.39733 0.93431,-0.69453 1.09968,-0.69453 0.66972,0 0.66972,0.33899 -0.0579,0.23978 -0.47129,1.7198 -0.71933,2.81946 -0.9095,4.11757 0.53743,0.20671 1.9513,0.20671 h 0.57051 q 0.47129,0 0.68626,0.19844 0.22324,0.19017 0.22324,0.81855 0,0.19017 -0.14882,0.339 -0.14883,0.14883 -0.339,0.14883 -0.23151,0 -0.38861,-0.0827 z m -3.00137,-5.53971 q -0.30592,0.30593 -1.40559,1.17409 -0.91778,0.7276 -1.29812,1.13275 -0.8847,0.93431 -2.42259,2.04225 0,0.12402 0.14883,0.12402 0.32246,-0.13229 2.42259,-0.27285 1.18236,-0.0827 1.72806,-0.23978 0.0662,-0.52916 0.23978,-1.19062 0.58704,-2.23242 0.58704,-2.76986 z"
         style="font-size:16.9333px"
         id="path1050" />
      <path
         d="m 182.61745,230.97326 q -0.47128,0.44648 -1.11621,1.4056 -0.17363,0.25631 -0.28112,0.40514 -0.11575,0.1571 -0.15709,0.22324 0.46302,0.28112 1.7942,0.47129 1.70326,0.24805 2.53008,0.56224 0.83509,0.31419 1.19889,0.91777 0.37207,0.59532 0.37207,1.62884 0,0.64493 -0.59531,1.44694 -0.59531,0.80202 -1.98437,1.52136 -1.38907,0.71933 -3.07578,0.71933 -1.3808,0 -2.37299,-0.5457 -0.98391,-0.5457 -0.98391,-0.91777 0,-0.79375 1.00045,-0.79375 0.22324,0 0.47956,0.2067 0.91777,0.64493 2.1084,0.64493 1.26504,0 2.59622,-0.75241 1.33945,-0.75241 1.33945,-1.43867 0,-0.87644 -0.65319,-1.33946 -0.64492,-0.47129 -2.01744,-0.62011 l -1.86862,-0.20671 q -0.78549,-0.0992 -1.21543,-0.40514 -0.42995,-0.3142 -0.42995,-0.57878 0,-0.28112 0.30592,-0.63665 0.0661,-0.0909 0.71934,-1.0418 1.34772,-2.00918 1.69499,-2.11667 0.35553,-0.11575 4.46484,-0.24804 0.7276,-0.0165 1.50482,-0.23978 0.61185,-0.16537 0.76067,-0.16537 0.51263,0 0.89297,0.30593 0.27285,0.14056 0.27285,0.30592 0,0.23978 -0.30592,0.60358 -0.30592,0.3638 -0.8847,0.44649 -0.57051,0.0827 -1.4304,0.0827 l -2.76159,-0.0827 q -1.21543,0 -1.9017,0.23151 z"
         style="font-size:16.9333px"
         id="path1052" />
    </g>
  </g>
</svg>
