<?xml version="1.0" encoding="UTF-8" standalone="no"?>
<svg
   xmlns:dc="http://purl.org/dc/elements/1.1/"
   xmlns:cc="http://creativecommons.org/ns#"
   xmlns:rdf="http://www.w3.org/1999/02/22-rdf-syntax-ns#"
   xmlns:svg="http://www.w3.org/2000/svg"
   xmlns="http://www.w3.org/2000/svg"
   xmlns:sodipodi="http://sodipodi.sourceforge.net/DTD/sodipodi-0.dtd"
   xmlns:inkscape="http://www.inkscape.org/namespaces/inkscape"
   width="210mm"
   height="297mm"
   viewBox="0 0 210 297"
   version="1.1"
   id="svg5"
   inkscape:version="1.0.1 (3bc2e813f5, 2020-09-07)"
   sodipodi:docname="tnr-path.svg">
  <metadata
     id="metadata458">
    <rdf:RDF>
      <cc:Work
         rdf:about="">
        <dc:format>image/svg+xml</dc:format>
        <dc:type
           rdf:resource="http://purl.org/dc/dcmitype/StillImage" />
        <dc:title></dc:title>
      </cc:Work>
    </rdf:RDF>
  </metadata>
  <sodipodi:namedview
     id="namedview7"
     pagecolor="#ffffff"
     bordercolor="#666666"
     borderopacity="1.0"
     inkscape:showpageshadow="2"
     inkscape:pageopacity="0.0"
     inkscape:pagecheckerboard="0"
     inkscape:deskcolor="#d1d1d1"
     inkscape:document-units="mm"
     showgrid="false"
     inkscape:zoom="0.914906"
     inkscape:cx="297.8448"
     inkscape:cy="632.8519"
     inkscape:window-width="2560"
     inkscape:window-height="1377"
     inkscape:window-x="-8"
     inkscape:window-y="-8"
     inkscape:window-maximized="1"
     inkscape:current-layer="layer1"
     inkscape:document-rotation="0" />
  <defs
     id="defs2" />
  <g
     inkscape:label="Layer 1"
     inkscape:groupmode="layer"
     id="layer1">
    <g
       aria-label="Times New Roman ABCDEabcde12345"
       id="text525"
       style="font-size:16.9333px;line-height:125%;font-family:'Times New Roman';-inkscape-font-specification:'Times New Roman, Normal';letter-spacing:0px;word-spacing:0px;stroke-width:0.264583px"
       transform="translate(-4.3378773,-148.93379)">
      <path
         d="m 26.281785,160.56822 0.124024,2.6293 h -0.314193 q -0.09095,-0.69453 -0.248047,-0.99219 -0.256315,-0.47956 -0.686263,-0.7028 -0.421679,-0.23151 -1.116211,-0.23151 h -1.579231 v 8.56588 q 0,1.03353 0.223242,1.28985 0.314193,0.34726 0.967383,0.34726 h 0.388606 v 0.30593 h -4.754231 v -0.30593 h 0.396875 q 0.711068,0 1.008724,-0.42994 0.181901,-0.26459 0.181901,-1.20717 v -8.56588 h -1.347721 q -0.785482,0 -1.116211,0.11575 -0.429948,0.1571 -0.735873,0.60358 -0.305924,0.44649 -0.363802,1.20717 h -0.314192 l 0.132291,-2.6293 z"
         style="font-size:16.9333px"
         id="path947" />
      <path
         d="m 28.68784,160.02252 q 0.347265,0 0.587044,0.24804 0.248047,0.23978 0.248047,0.58705 0,0.34726 -0.248047,0.59531 -0.239779,0.24805 -0.587044,0.24805 -0.347266,0 -0.595313,-0.24805 -0.248047,-0.24805 -0.248047,-0.59531 0,-0.34727 0.239779,-0.58705 0.248047,-0.24804 0.603581,-0.24804 z m 0.686263,3.96048 v 6.08541 q 0,0.71107 0.09922,0.95085 0.107487,0.23151 0.305925,0.34727 0.206706,0.11575 0.744141,0.11575 v 0.29766 h -3.679362 v -0.29766 q 0.553971,0 0.74414,-0.10749 0.19017,-0.10748 0.297657,-0.35553 0.115755,-0.24805 0.115755,-0.95085 v -2.91868 q 0,-1.23197 -0.07441,-1.59577 -0.05788,-0.26458 -0.181901,-0.3638 -0.124024,-0.10749 -0.338998,-0.10749 -0.23151,0 -0.562239,0.12403 l -0.115755,-0.29766 2.282031,-0.92604 z"
         style="font-size:16.9333px"
         id="path949" />
      <path
         d="m 33.714923,165.5953 q 0.826823,-0.82682 0.975651,-0.95084 0.37207,-0.3142 0.802018,-0.48783 0.429948,-0.17363 0.851628,-0.17363 0.711067,0 1.223698,0.41341 0.51263,0.41341 0.686263,1.19889 0.851627,-0.99218 1.438671,-1.29811 0.587045,-0.31419 1.207162,-0.31419 0.60358,0 1.066601,0.31419 0.471289,0.30593 0.744141,1.00872 0.181901,0.47956 0.181901,1.50482 v 3.25768 q 0,0.71107 0.107487,0.97566 0.08268,0.1819 0.305924,0.31419 0.223242,0.12402 0.727604,0.12402 v 0.29766 h -3.737239 v -0.29766 h 0.157096 q 0.487826,0 0.760677,-0.19017 0.19017,-0.13229 0.272852,-0.42168 0.03307,-0.14056 0.03307,-0.80202 v -3.25768 q 0,-0.92604 -0.223242,-1.30638 -0.322461,-0.52916 -1.033529,-0.52916 -0.438216,0 -0.8847,0.22324 -0.438216,0.21497 -1.066602,0.81028 l -0.01654,0.0909 0.01654,0.35554 v 3.61321 q 0,0.77722 0.08268,0.96739 0.09095,0.19017 0.33073,0.32246 0.239778,0.12402 0.818554,0.12402 v 0.29766 h -3.82819 v -0.29766 q 0.628386,0 0.859896,-0.14883 0.239779,-0.14882 0.330729,-0.44648 0.04134,-0.14056 0.04134,-0.81856 v -3.25768 q 0,-0.92604 -0.272851,-1.33118 -0.363802,-0.52917 -1.016992,-0.52917 -0.446485,0 -0.884701,0.23978 -0.686263,0.3638 -1.058333,0.81855 v 4.0597 q 0,0.74414 0.09922,0.96739 0.107487,0.22324 0.305924,0.33899 0.206706,0.10749 0.826823,0.10749 v 0.29766 h -3.745508 v -0.29766 q 0.520899,0 0.727605,-0.10749 0.206705,-0.11575 0.314192,-0.35553 0.107487,-0.24805 0.107487,-0.95085 v -2.89388 q 0,-1.2485 -0.07441,-1.6123 -0.05788,-0.27285 -0.181901,-0.37207 -0.124023,-0.10749 -0.338997,-0.10749 -0.231511,0 -0.553972,0.12403 l -0.124023,-0.29766 2.282031,-0.92604 h 0.355534 z"
         style="font-size:16.9333px"
         id="path951" />
      <path
         d="m 45.910561,167.05878 q -0.0083,1.68672 0.818555,2.64583 0.826823,0.95912 1.943034,0.95912 0.74414,0 1.289843,-0.40515 0.553972,-0.41341 0.926042,-1.4056 l 0.256315,0.16537 q -0.173633,1.13275 -1.008724,2.06706 -0.835091,0.92604 -2.091862,0.92604 -1.364257,0 -2.339908,-1.05834 -0.967383,-1.0666 -0.967383,-2.8608 0,-1.94304 0.992187,-3.02617 1.000456,-1.09141 2.505274,-1.09141 1.273307,0 2.091862,0.84336 0.818554,0.83509 0.818554,2.24069 z m 0,-0.47956 h 3.505729 q -0.04134,-0.7276 -0.173632,-1.02526 -0.206706,-0.46302 -0.620118,-0.7276 -0.405143,-0.26459 -0.851627,-0.26459 -0.686263,0 -1.231966,0.53744 -0.537435,0.52917 -0.628386,1.48001 z"
         style="font-size:16.9333px"
         id="path953" />
      <path
         d="m 57.047865,163.983 v 2.57969 h -0.272851 q -0.314193,-1.21543 -0.810287,-1.65365 -0.487825,-0.43822 -1.248502,-0.43822 -0.578776,0 -0.93431,0.30593 -0.355534,0.30592 -0.355534,0.67799 0,0.46302 0.264583,0.79375 0.256315,0.339 1.041797,0.71934 l 1.207161,0.58704 q 1.678451,0.81856 1.678451,2.15801 0,1.03353 -0.785482,1.67018 -0.777213,0.62839 -1.744596,0.62839 -0.694531,0 -1.5875,-0.24805 -0.272852,-0.0827 -0.446484,-0.0827 -0.19017,0 -0.297657,0.21497 h -0.272851 v -2.70371 h 0.272851 q 0.231511,1.15755 0.884701,1.7446 0.65319,0.58704 1.463476,0.58704 0.570508,0 0.926042,-0.33073 0.363802,-0.33899 0.363802,-0.81028 0,-0.57051 -0.405143,-0.95912 -0.396875,-0.3886 -1.595768,-0.98392 -1.198893,-0.59531 -1.570964,-1.07487 -0.37207,-0.47129 -0.37207,-1.19062 0,-0.93431 0.636654,-1.5627 0.644921,-0.62838 1.661914,-0.62838 0.446484,0 1.083138,0.19017 0.421679,0.12402 0.562239,0.12402 0.132292,0 0.206706,-0.0579 0.07441,-0.0579 0.173633,-0.25631 z"
         style="font-size:16.9333px"
         id="path955" />
      <path
         d="m 62.223777,160.56822 h 3.042709 l 6.854361,8.40879 v -6.46576 q 0,-1.03353 -0.23151,-1.28984 -0.305925,-0.34727 -0.967383,-0.34727 h -0.388607 v -0.30592 h 3.902604 v 0.30592 h -0.396875 q -0.711067,0 -1.008724,0.42995 -0.181901,0.26459 -0.181901,1.20716 v 9.45059 h -0.297656 l -7.391796,-9.02891 v 6.90397 q 0,1.03353 0.223242,1.28985 0.314192,0.34726 0.967383,0.34726 h 0.396875 v 0.30593 h -3.902604 v -0.30593 h 0.388606 q 0.719336,0 1.016992,-0.42994 0.181901,-0.26459 0.181901,-1.20717 v -7.79694 q -0.487825,-0.5705 -0.74414,-0.7524 -0.248047,-0.18191 -0.735872,-0.339 -0.239779,-0.0744 -0.727605,-0.0744 z"
         style="font-size:16.9333px"
         id="path957" />
      <path
         d="m 76.478204,167.05878 q -0.0083,1.68672 0.818554,2.64583 0.826823,0.95912 1.943034,0.95912 0.744141,0 1.289844,-0.40515 0.553971,-0.41341 0.926041,-1.4056 l 0.256315,0.16537 q -0.173632,1.13275 -1.008724,2.06706 -0.835091,0.92604 -2.091861,0.92604 -1.364258,0 -2.339909,-1.05834 -0.967383,-1.0666 -0.967383,-2.8608 0,-1.94304 0.992188,-3.02617 1.000455,-1.09141 2.505273,-1.09141 1.273307,0 2.091862,0.84336 0.818554,0.83509 0.818554,2.24069 z m 0,-0.47956 h 3.505729 q -0.04134,-0.7276 -0.173633,-1.02526 -0.206706,-0.46302 -0.620117,-0.7276 -0.405144,-0.26459 -0.851628,-0.26459 -0.686263,0 -1.231966,0.53744 -0.537435,0.52917 -0.628385,1.48001 z"
         style="font-size:16.9333px"
         id="path959" />
      <path
         d="m 82.299032,164.20624 h 3.175 v 0.30592 q -0.438216,0.0331 -0.578776,0.1571 -0.132291,0.12402 -0.132291,0.35553 0,0.25632 0.14056,0.62012 l 1.620572,4.35736 1.628841,-3.54707 -0.429947,-1.11621 q -0.198438,-0.4961 -0.520899,-0.68627 -0.181901,-0.11575 -0.677995,-0.14056 v -0.30592 h 3.604948 v 0.30592 q -0.595312,0.0248 -0.843359,0.21498 -0.165365,0.13229 -0.165365,0.42168 0,0.16536 0.06615,0.339 l 1.719792,4.34908 1.595768,-4.19199 q 0.165364,-0.44648 0.165364,-0.71107 0,-0.15709 -0.165364,-0.28112 -0.157097,-0.12402 -0.628386,-0.14056 v -0.30592 h 2.389518 v 0.30592 q -0.719335,0.10749 -1.058333,0.97566 l -2.530078,6.52363 h -0.338997 l -1.893425,-4.83692 -2.207617,4.83692 h -0.305924 l -2.430859,-6.36654 q -0.239779,-0.60358 -0.471289,-0.81028 -0.231511,-0.21498 -0.727605,-0.32247 z"
         style="font-size:16.9333px"
         id="path961" />
      <path
         d="m 110.09682,171.77994 h -2.9931 l -3.79512,-5.24206 q -0.42168,0.0165 -0.68626,0.0165 -0.10749,0 -0.23151,0 -0.12402,-0.008 -0.25632,-0.0165 v 3.25768 q 0,1.05834 0.23151,1.31465 0.3142,0.3638 0.94258,0.3638 h 0.43822 v 0.30593 h -4.803843 v -0.30593 h 0.42168 q 0.711063,0 1.016993,-0.46302 0.17363,-0.25631 0.17363,-1.21543 v -7.24297 q 0,-1.05833 -0.23151,-1.31464 -0.32246,-0.36381 -0.959113,-0.36381 h -0.42168 v -0.30592 h 4.084503 q 1.78594,0 2.6293,0.26458 0.85163,0.25632 1.43867,0.95912 0.59531,0.69453 0.59531,1.66191 0,1.03353 -0.67799,1.79421 -0.66973,0.76067 -2.0836,1.07487 l 2.31511,3.21634 q 0.79375,1.10794 1.36426,1.47174 0.5705,0.3638 1.48828,0.46302 z m -7.96231,-5.76296 q 0.1571,0 0.27286,0.008 0.11575,0 0.19016,0 1.60404,0 2.41433,-0.69453 0.81855,-0.69453 0.81855,-1.7694 0,-1.05007 -0.66146,-1.70326 -0.65319,-0.66146 -1.73632,-0.66146 -0.47956,0 -1.29812,0.1571 z"
         style="font-size:16.9333px"
         id="path963" />
      <path
         d="m 114.18133,163.983 q 1.71979,0 2.76158,1.30638 0.8847,1.11621 0.8847,2.56315 0,1.01699 -0.48782,2.05879 -0.48783,1.04179 -1.34772,1.57096 -0.85163,0.52917 -1.9017,0.52917 -1.71152,0 -2.72024,-1.36426 -0.85163,-1.14928 -0.85163,-2.57969 0,-1.04179 0.51263,-2.06705 0.5209,-1.03353 1.36426,-1.52136 0.84336,-0.49609 1.78594,-0.49609 z m -0.25632,0.53743 q -0.43822,0 -0.8847,0.26459 -0.43822,0.25631 -0.71107,0.9095 -0.27285,0.65319 -0.27285,1.67845 0,1.65365 0.65319,2.85254 0.66146,1.19889 1.73633,1.19889 0.80202,0 1.32292,-0.66145 0.52089,-0.66146 0.52089,-2.27377 0,-2.01745 -0.86816,-3.175 -0.58704,-0.79375 -1.49655,-0.79375 z"
         style="font-size:16.9333px"
         id="path965" />
      <path
         d="m 121.19278,165.5953 q 0.82683,-0.82682 0.97566,-0.95084 0.37207,-0.3142 0.80201,-0.48783 0.42995,-0.17363 0.85163,-0.17363 0.71107,0 1.2237,0.41341 0.51263,0.41341 0.68626,1.19889 0.85163,-0.99218 1.43867,-1.29811 0.58705,-0.31419 1.20717,-0.31419 0.60358,0 1.0666,0.31419 0.47129,0.30593 0.74414,1.00872 0.1819,0.47956 0.1819,1.50482 v 3.25768 q 0,0.71107 0.10749,0.97566 0.0827,0.1819 0.30592,0.31419 0.22324,0.12402 0.7276,0.12402 v 0.29766 h -3.73724 v -0.29766 h 0.1571 q 0.48783,0 0.76068,-0.19017 0.19017,-0.13229 0.27285,-0.42168 0.0331,-0.14056 0.0331,-0.80202 v -3.25768 q 0,-0.92604 -0.22324,-1.30638 -0.32246,-0.52916 -1.03353,-0.52916 -0.43821,0 -0.8847,0.22324 -0.43822,0.21497 -1.0666,0.81028 l -0.0165,0.0909 0.0165,0.35554 v 3.61321 q 0,0.77722 0.0827,0.96739 0.0909,0.19017 0.33073,0.32246 0.23978,0.12402 0.81856,0.12402 v 0.29766 h -3.82819 v -0.29766 q 0.62838,0 0.85989,-0.14883 0.23978,-0.14882 0.33073,-0.44648 0.0413,-0.14056 0.0413,-0.81856 v -3.25768 q 0,-0.92604 -0.27285,-1.33118 -0.3638,-0.52917 -1.01699,-0.52917 -0.44649,0 -0.8847,0.23978 -0.68627,0.3638 -1.05834,0.81855 v 4.0597 q 0,0.74414 0.0992,0.96739 0.10749,0.22324 0.30593,0.33899 0.2067,0.10749 0.82682,0.10749 v 0.29766 h -3.74551 v -0.29766 q 0.5209,0 0.72761,-0.10749 0.2067,-0.11575 0.31419,-0.35553 0.10749,-0.24805 0.10749,-0.95085 v -2.89388 q 0,-1.2485 -0.0744,-1.6123 -0.0579,-0.27285 -0.1819,-0.37207 -0.12402,-0.10749 -0.339,-0.10749 -0.23151,0 -0.55397,0.12403 l -0.12402,-0.29766 2.28203,-0.92604 h 0.35553 z"
         style="font-size:16.9333px"
         id="path967" />
      <path
         d="m 136.40632,170.68853 q -1.16582,0.90124 -1.46347,1.0418 -0.44649,0.2067 -0.95085,0.2067 -0.78548,0 -1.29811,-0.53743 -0.50436,-0.53744 -0.50436,-1.41387 0,-0.55397 0.24804,-0.95911 0.339,-0.56224 1.17409,-1.05834 0.84336,-0.49609 2.79466,-1.20716 v -0.29765 q 0,-1.13275 -0.3638,-1.55443 -0.35553,-0.42168 -1.04179,-0.42168 -0.5209,0 -0.82683,0.28112 -0.31419,0.28112 -0.31419,0.64492 l 0.0165,0.47956 q 0,0.38034 -0.19844,0.58704 -0.19017,0.20671 -0.50436,0.20671 -0.30593,0 -0.50436,-0.21498 -0.19017,-0.21497 -0.19017,-0.58704 0,-0.71107 0.7276,-1.30638 0.7276,-0.59531 2.04225,-0.59531 1.00873,0 1.65365,0.339 0.48782,0.25631 0.71933,0.80201 0.14883,0.35554 0.14883,1.45521 v 2.57142 q 0,1.08314 0.0413,1.33119 0.0413,0.23977 0.13229,0.32246 0.0992,0.0827 0.22325,0.0827 0.13229,0 0.23151,-0.0579 0.17363,-0.10749 0.66972,-0.60358 v 0.46302 q -0.92604,1.24024 -1.7694,1.24024 -0.40514,0 -0.64492,-0.28112 -0.23978,-0.28112 -0.24805,-0.95912 z m 0,-0.53743 v -2.88562 q -1.2485,0.4961 -1.6123,0.7028 -0.65319,0.36381 -0.93431,0.76068 -0.28112,0.39688 -0.28112,0.86817 0,0.59531 0.35553,0.99218 0.35554,0.38861 0.81856,0.38861 0.62838,0 1.65364,-0.82682 z"
         style="font-size:16.9333px"
         id="path969" />
      <path
         d="m 141.83855,165.58703 q 1.33118,-1.60403 2.53834,-1.60403 0.62012,0 1.0666,0.31419 0.44649,0.30593 0.71107,1.01699 0.1819,0.4961 0.1819,1.52136 v 3.23287 q 0,0.71934 0.11576,0.97566 0.0909,0.2067 0.28939,0.32246 0.2067,0.11575 0.7524,0.11575 v 0.29766 h -3.7455 v -0.29766 h 0.15709 q 0.52917,0 0.73588,-0.15709 0.21497,-0.16537 0.29765,-0.47956 0.0331,-0.12403 0.0331,-0.77722 v -3.10058 q 0,-1.03353 -0.27286,-1.49655 -0.26458,-0.47129 -0.90123,-0.47129 -0.98392,0 -1.95957,1.07487 v 3.99355 q 0,0.76895 0.0909,0.95085 0.11575,0.23978 0.31419,0.35553 0.20671,0.10749 0.82682,0.10749 v 0.29766 H 139.325 v -0.29766 h 0.16537 q 0.57878,0 0.77721,-0.28939 0.20671,-0.29765 0.20671,-1.12448 v -2.81119 q 0,-1.36426 -0.0661,-1.66192 -0.0579,-0.29765 -0.19017,-0.40514 -0.12402,-0.10749 -0.33899,-0.10749 -0.23151,0 -0.55398,0.12403 l -0.12402,-0.29766 2.28203,-0.92604 h 0.35554 z"
         style="font-size:16.9333px"
         id="path971" />
      <path
         d="m 24.231265,189.1928 h -4.34082 l -0.760677,1.7694 q -0.28112,0.65319 -0.28112,0.97565 0,0.25631 0.239778,0.45475 0.248047,0.19017 1.058334,0.24805 v 0.30592 h -3.530534 v -0.30592 q 0.7028,-0.12403 0.909505,-0.32246 0.42168,-0.39688 0.93431,-1.61231 l 3.943945,-9.22734 h 0.289388 l 3.902604,9.32656 q 0.471289,1.12448 0.851628,1.46348 0.388606,0.33073 1.074869,0.37207 v 0.30592 h -4.423502 v -0.30592 q 0.669727,-0.0331 0.901237,-0.22325 0.239779,-0.19016 0.239779,-0.46302 0,-0.3638 -0.33073,-1.14928 z m -0.231511,-0.61185 -1.901692,-4.53099 -1.951302,4.53099 z"
         style="font-size:16.9333px"
         id="path973" />
      <path
         d="m 36.534389,187.22496 q 1.16582,0.24804 1.744596,0.79375 0.802018,0.76067 0.802018,1.86035 0,0.83509 -0.529166,1.60403 -0.529167,0.76068 -1.455208,1.11622 -0.917774,0.34726 -2.811198,0.34726 h -5.291667 v -0.30592 h 0.42168 q 0.702799,0 1.008724,-0.44649 0.190169,-0.28939 0.190169,-1.23196 v -7.24297 q 0,-1.0418 -0.239778,-1.31465 -0.322461,-0.3638 -0.959115,-0.3638 h -0.42168 v -0.30593 h 4.845182 q 1.35599,0 2.174545,0.19844 1.240234,0.29766 1.893424,1.05833 0.65319,0.75241 0.65319,1.73633 0,0.84336 -0.51263,1.51309 -0.51263,0.66146 -1.513086,0.98392 z m -4.332552,-0.44649 q 0.305925,0.0579 0.694531,0.0909 0.396875,0.0248 0.868164,0.0248 1.207162,0 1.810742,-0.25632 0.611849,-0.26458 0.93431,-0.80202 0.322461,-0.53743 0.322461,-1.17408 0,-0.98392 -0.802018,-1.67845 -0.802018,-0.69454 -2.339909,-0.69454 -0.826823,0 -1.488281,0.18191 z m 0,5.35781 q 0.959115,0.22325 1.893424,0.22325 1.49655,0 2.282032,-0.66973 0.785481,-0.67799 0.785481,-1.67018 0,-0.65319 -0.355533,-1.25677 -0.355534,-0.60358 -1.157553,-0.95085 -0.802018,-0.34726 -1.984374,-0.34726 -0.512631,0 -0.876433,0.0165 -0.363802,0.0165 -0.587044,0.0579 z"
         style="font-size:16.9333px"
         id="path975" />
      <path
         d="m 50.20177,181.47854 0.256315,3.81165 H 50.20177 q -0.51263,-1.71152 -1.463477,-2.46393 -0.950846,-0.75241 -2.282031,-0.75241 -1.116211,0 -2.017448,0.57051 -0.901236,0.56224 -1.422135,1.80247 -0.51263,1.24024 -0.51263,3.08405 0,1.52136 0.487825,2.63757 0.487826,1.11621 1.463477,1.71152 0.983919,0.59531 2.24069,0.59531 1.091406,0 1.926497,-0.46302 0.835091,-0.47129 1.835547,-1.86035 l 0.256315,0.16536 q -0.843359,1.49655 -1.967838,2.19109 -1.124479,0.69453 -2.670638,0.69453 -2.786393,0 -4.316016,-2.06706 -1.141015,-1.53789 -1.141015,-3.62148 0,-1.67846 0.752409,-3.08405 0.752408,-1.4056 2.067057,-2.17455 1.322916,-0.77721 2.885612,-0.77721 1.215429,0 2.397786,0.59531 0.347266,0.1819 0.496094,0.1819 0.223242,0 0.388606,-0.15709 0.214974,-0.22325 0.305925,-0.62012 z"
         style="font-size:16.9333px"
         id="path977" />
      <path
         d="m 51.590835,192.94657 v -0.30592 h 0.42168 q 0.711067,0 1.008723,-0.45476 0.181902,-0.27285 0.181902,-1.22369 v -7.24297 q 0,-1.05007 -0.231511,-1.31465 -0.322461,-0.3638 -0.959114,-0.3638 h -0.42168 v -0.30593 h 4.564062 q 2.513542,0 3.819922,0.57051 1.314648,0.57051 2.108398,1.90169 0.802018,1.33119 0.802018,3.07578 0,2.33991 -1.422135,3.91088 -1.595768,1.75286 -4.861718,1.75286 z m 3.199804,-0.81029 q 1.050065,0.23152 1.761133,0.23152 1.918229,0 3.183268,-1.34773 1.265039,-1.34772 1.265039,-3.65455 0,-2.32338 -1.265039,-3.66283 -1.265039,-1.33945 -3.249414,-1.33945 -0.74414,0 -1.694987,0.23978 z"
         style="font-size:16.9333px"
         id="path979" />
      <path
         d="m 67.068955,182.3467 v 4.43177 h 2.463932 q 0.959115,0 1.281576,-0.28939 0.429948,-0.38033 0.479557,-1.33945 h 0.305925 v 3.90261 H 71.29402 q -0.115755,-0.81856 -0.23151,-1.05007 -0.148828,-0.28939 -0.487826,-0.45475 -0.338997,-0.16537 -1.041797,-0.16537 h -2.463932 v 3.6959 q 0,0.74414 0.06615,0.90951 0.06615,0.15709 0.23151,0.25631 0.165365,0.0909 0.628386,0.0909 h 1.901692 q 0.950847,0 1.380795,-0.13229 0.429947,-0.13229 0.826822,-0.5209 0.512631,-0.51263 1.050066,-1.54616 h 0.330729 l -0.967383,2.8112 h -8.640299 v -0.30592 h 0.396875 q 0.396875,0 0.752409,-0.19017 0.264583,-0.13229 0.355534,-0.39688 0.09922,-0.26458 0.09922,-1.08314 v -7.2843 q 0,-1.06661 -0.214974,-1.31465 -0.297656,-0.33073 -0.992187,-0.33073 h -0.396875 v -0.30593 h 8.640299 l 0.124023,2.45567 H 72.31928 q -0.173632,-0.8847 -0.388606,-1.21543 -0.206706,-0.33073 -0.620117,-0.50436 -0.33073,-0.12403 -1.165821,-0.12403 z"
         style="font-size:16.9333px"
         id="path981" />
      <path
         d="m 78.694086,191.85517 q -1.16582,0.90123 -1.463476,1.04179 -0.446485,0.20671 -0.950847,0.20671 -0.785481,0 -1.298112,-0.53744 -0.504362,-0.53743 -0.504362,-1.41386 0,-0.55398 0.248047,-0.95912 0.338998,-0.56224 1.174089,-1.05833 0.843359,-0.4961 2.794661,-1.20716 v -0.29766 q 0,-1.13275 -0.363802,-1.55443 -0.355534,-0.42168 -1.041797,-0.42168 -0.520898,0 -0.826823,0.28112 -0.314192,0.28112 -0.314192,0.64493 l 0.01654,0.47955 q 0,0.38034 -0.198437,0.58705 -0.19017,0.2067 -0.504362,0.2067 -0.305925,0 -0.504362,-0.21497 -0.19017,-0.21498 -0.19017,-0.58705 0,-0.71106 0.727605,-1.30638 0.727604,-0.59531 2.042252,-0.59531 1.008724,0 1.653646,0.339 0.487825,0.25631 0.719336,0.80202 0.148828,0.35553 0.148828,1.45521 v 2.57141 q 0,1.08314 0.04134,1.33119 0.04134,0.23978 0.132292,0.32246 0.09922,0.0827 0.223242,0.0827 0.132291,0 0.23151,-0.0579 0.173633,-0.10749 0.669727,-0.60359 v 0.46303 q -0.926042,1.24023 -1.769401,1.24023 -0.405143,0 -0.644922,-0.28112 -0.239779,-0.28112 -0.248047,-0.95911 z m 0,-0.53744 v -2.88561 q -1.248502,0.49609 -1.612305,0.7028 -0.65319,0.3638 -0.934309,0.76067 -0.28112,0.39688 -0.28112,0.86817 0,0.59531 0.355534,0.99219 0.355534,0.3886 0.818554,0.3886 0.628386,0 1.653646,-0.82682 z"
         style="font-size:16.9333px"
         id="path983" />
      <path
         d="m 83.99402,186.67925 q 1.099675,-1.52962 2.372982,-1.52962 1.16582,0 2.033984,1.00046 0.868164,0.99218 0.868164,2.72024 0,2.01745 -1.339453,3.24942 -1.149284,1.05833 -2.563151,1.05833 -0.661458,0 -1.347721,-0.23978 -0.677995,-0.23978 -1.389062,-0.71933 v -7.84655 q 0,-1.28985 -0.06615,-1.5875 -0.05788,-0.29766 -0.19017,-0.40514 -0.132291,-0.10749 -0.330729,-0.10749 -0.23151,0 -0.578776,0.13229 l -0.115755,-0.28939 2.273763,-0.92604 h 0.37207 z m 0,0.52917 v 4.53099 q 0.42168,0.41341 0.868164,0.62839 0.454753,0.2067 0.926042,0.2067 0.752409,0 1.397331,-0.82682 0.65319,-0.82682 0.65319,-2.40606 0,-1.4552 -0.65319,-2.23242 -0.644922,-0.78548 -1.471745,-0.78548 -0.438216,0 -0.876432,0.22324 -0.330729,0.16537 -0.84336,0.66146 z"
         style="font-size:16.9333px"
         id="path985" />
      <path
         d="m 96.818044,190.06923 q -0.305924,1.49655 -1.198893,2.30683 -0.892969,0.80202 -1.976107,0.80202 -1.289843,0 -2.248958,-1.08314 -0.959115,-1.08313 -0.959115,-2.92695 0,-1.78594 1.058334,-2.90215 1.066601,-1.11621 2.554882,-1.11621 1.116211,0 1.835547,0.59531 0.719336,0.58705 0.719336,1.2237 0,0.31419 -0.206706,0.51263 -0.198437,0.19017 -0.562239,0.19017 -0.487826,0 -0.735873,-0.31419 -0.140559,-0.17363 -0.190169,-0.66146 -0.04134,-0.48783 -0.330729,-0.74414 -0.289388,-0.24805 -0.802018,-0.24805 -0.826823,0 -1.331185,0.61185 -0.669726,0.81029 -0.669726,2.14147 0,1.35599 0.661458,2.39779 0.669726,1.03353 1.802474,1.03353 0.810286,0 1.455208,-0.55397 0.454753,-0.38034 0.8847,-1.3808 z"
         style="font-size:16.9333px"
         id="path987" />
      <path
         d="m 103.25073,192.09494 q -0.55397,0.57878 -1.08314,0.83509 -0.52917,0.24805 -1.14101,0.24805 -1.240238,0 -2.16628,-1.03353 -0.926042,-1.04179 -0.926042,-2.67063 0,-1.62885 1.025261,-2.97657 1.02526,-1.35599 2.637561,-1.35599 1.00046,0 1.65365,0.63666 v -1.39733 q 0,-1.29812 -0.0662,-1.59577 -0.0579,-0.29766 -0.19017,-0.40514 -0.13229,-0.10749 -0.33072,-0.10749 -0.21498,0 -0.57051,0.13229 l -0.10749,-0.28939 2.25723,-0.92604 h 0.37207 v 8.75605 q 0,1.33119 0.0579,1.62885 0.0661,0.28938 0.19844,0.40514 0.14056,0.11575 0.32246,0.11575 0.22325,0 0.59532,-0.14056 l 0.091,0.28939 -2.24896,0.93431 h -0.38034 z m 0,-0.57877 v -3.90261 q -0.0496,-0.56224 -0.29766,-1.02526 -0.24804,-0.46302 -0.66146,-0.69453 -0.40514,-0.23978 -0.79375,-0.23978 -0.7276,0 -1.29811,0.65319 -0.752406,0.8599 -0.752406,2.51355 0,1.67018 0.727606,2.56315 0.7276,0.8847 1.62057,0.8847 0.75241,0 1.45521,-0.75241 z"
         style="font-size:16.9333px"
         id="path989" />
      <path
         d="m 107.64116,188.22541 q -0.008,1.68672 0.81855,2.64584 0.82683,0.95911 1.94304,0.95911 0.74414,0 1.28984,-0.40514 0.55397,-0.41341 0.92604,-1.4056 l 0.25632,0.16536 q -0.17363,1.13275 -1.00873,2.06706 -0.83509,0.92604 -2.09186,0.92604 -1.36425,0 -2.33991,-1.05833 -0.96738,-1.0666 -0.96738,-2.86081 0,-1.94303 0.99219,-3.02617 1.00045,-1.09141 2.50527,-1.09141 1.27331,0 2.09186,0.84336 0.81856,0.83509 0.81856,2.24069 z m 0,-0.47955 h 3.50573 q -0.0413,-0.72761 -0.17363,-1.02526 -0.20671,-0.46303 -0.62012,-0.72761 -0.40514,-0.26458 -0.85163,-0.26458 -0.68626,0 -1.23196,0.53743 -0.53744,0.52917 -0.62839,1.48002 z"
         style="font-size:16.9333px"
         id="path991" />
      <path
         d="m 115.33888,182.83453 2.72851,-1.33119 h 0.27285 v 9.46712 q 0,0.94258 0.0744,1.17409 0.0827,0.23151 0.33073,0.35554 0.24804,0.12402 1.00872,0.14056 v 0.30592 h -4.2168 v -0.30592 q 0.79375,-0.0165 1.02526,-0.13229 0.23151,-0.12403 0.32247,-0.32247 0.0909,-0.2067 0.0909,-1.21543 v -6.05234 q 0,-1.2237 -0.0827,-1.57096 -0.0579,-0.26459 -0.21497,-0.38861 -0.14883,-0.12402 -0.3638,-0.12402 -0.30593,0 -0.85163,0.25631 z"
         style="font-size:16.9333px"
         id="path993" />
      <path
         d="m 129.58504,190.78856 -0.78549,2.15801 h -6.61458 v -0.30592 q 2.91869,-2.66237 4.10931,-4.34909 1.19063,-1.68672 1.19063,-3.08405 0,-1.0666 -0.65319,-1.75287 -0.65319,-0.68626 -1.5627,-0.68626 -0.82682,0 -1.48828,0.48783 -0.65319,0.47955 -0.96738,1.41386 h -0.30593 q 0.20671,-1.52962 1.05834,-2.34817 0.85989,-0.81856 2.14147,-0.81856 1.36425,0 2.27376,0.87644 0.91777,0.87643 0.91777,2.06705 0,0.85163 -0.39687,1.70326 -0.61185,1.33945 -1.98438,2.836 -2.05879,2.24896 -2.57142,2.71198 h 2.92696 q 0.89297,0 1.2485,-0.0661 0.3638,-0.0661 0.65319,-0.26458 0.28939,-0.20671 0.50436,-0.57878 z"
         style="font-size:16.9333px"
         id="path995" />
      <path
         d="m 131.14773,183.86806 q 0.47956,-1.13275 1.20716,-1.7446 0.73588,-0.62012 1.82728,-0.62012 1.34772,0 2.06706,0.87644 0.5457,0.65319 0.5457,1.39733 0,1.22369 -1.53789,2.53007 1.03353,0.40515 1.5627,1.15756 0.52916,0.7524 0.52916,1.7694 0,1.4552 -0.92604,2.52181 -1.20716,1.38906 -3.49746,1.38906 -1.13275,0 -1.54616,-0.28112 -0.40514,-0.28112 -0.40514,-0.60358 0,-0.23978 0.19017,-0.42168 0.19844,-0.1819 0.47129,-0.1819 0.2067,0 0.42168,0.0661 0.14056,0.0413 0.63665,0.30593 0.49609,0.25631 0.68626,0.30592 0.30593,0.0909 0.65319,0.0909 0.84336,0 1.46348,-0.65319 0.62839,-0.65319 0.62839,-1.54616 0,-0.65319 -0.28939,-1.2733 -0.21498,-0.46302 -0.47129,-0.7028 -0.35554,-0.33073 -0.97565,-0.59532 -0.62012,-0.27285 -1.26504,-0.27285 h -0.26458 v -0.24804 q 0.65319,-0.0827 1.30638,-0.47129 0.66145,-0.38861 0.95911,-0.93431 0.29766,-0.54571 0.29766,-1.1989 0,-0.85162 -0.53744,-1.37252 -0.52917,-0.52917 -1.32292,-0.52917 -1.28157,0 -2.14147,1.37253 z"
         style="font-size:16.9333px"
         id="path997" />
      <path
         d="m 146.63413,188.81246 v 1.17409 h -1.50482 v 2.96002 h -1.36426 v -2.96002 h -4.74596 v -1.05834 l 5.20071,-7.42487 h 0.90951 v 7.30912 z m -2.86908,0 v -5.56452 l -3.93568,5.56452 z"
         style="font-size:16.9333px"
         id="path999" />
      <path
         d="m 154.57162,181.73485 -0.64492,1.4056 h -3.37344 l -0.73587,1.50482 q 2.19108,0.32246 3.47265,1.62884 1.09968,1.12448 1.09968,2.64583 0,0.8847 -0.3638,1.63711 -0.35554,0.75241 -0.90124,1.28158 -0.5457,0.52917 -1.21543,0.85163 -0.95085,0.45475 -1.9513,0.45475 -1.00873,0 -1.47175,-0.339 -0.45475,-0.34726 -0.45475,-0.76068 0,-0.23151 0.19017,-0.40514 0.19017,-0.1819 0.47956,-0.1819 0.21497,0 0.37207,0.0661 0.16536,0.0661 0.55397,0.33899 0.62011,0.42995 1.25677,0.42995 0.96738,0 1.69499,-0.7276 0.73587,-0.73588 0.73587,-1.78594 0,-1.01699 -0.65319,-1.89342 -0.65319,-0.88471 -1.80248,-1.36426 -0.90123,-0.37207 -2.45566,-0.42995 l 2.14974,-4.35736 z"
         style="font-size:16.9333px"
         id="path1001" />
    </g>
  </g>
</svg>
