<?xml version="1.0" encoding="UTF-8" standalone="no"?>
<!-- Created with Inkscape (http://www.inkscape.org/) -->

<svg
   width="210mm"
   height="297mm"
   viewBox="0 0 210 297"
   version="1.1"
   id="svg1215"
   inkscape:version="1.2.2 (732a01da63, 2022-12-09)"
   sodipodi:docname="tnt-a-path.svg"
   xmlns:inkscape="http://www.inkscape.org/namespaces/inkscape"
   xmlns:sodipodi="http://sodipodi.sourceforge.net/DTD/sodipodi-0.dtd"
   xmlns="http://www.w3.org/2000/svg"
   xmlns:svg="http://www.w3.org/2000/svg">
  <sodipodi:namedview
     id="namedview1217"
     pagecolor="#ffffff"
     bordercolor="#666666"
     borderopacity="1.0"
     inkscape:showpageshadow="2"
     inkscape:pageopacity="0.0"
     inkscape:pagecheckerboard="0"
     inkscape:deskcolor="#d1d1d1"
     inkscape:document-units="mm"
     showgrid="false"
     inkscape:zoom="0.914906"
     inkscape:cx="396.76207"
     inkscape:cy="560.71334"
     inkscape:window-width="2560"
     inkscape:window-height="1387"
     inkscape:window-x="-8"
     inkscape:window-y="-8"
     inkscape:window-maximized="1"
     inkscape:current-layer="layer1" />
  <defs
     id="defs1212" />
  <g
     inkscape:label="Layer 1"
     inkscape:groupmode="layer"
     id="layer1">
    <path
       d="M 63.958338,64.791693 H 27.500004 l -6.388888,14.8611 q -2.361113,5.48611 -2.361113,8.19444 0,2.15274 2.013883,3.81942 2.083335,1.59723 8.888895,2.08336 v 2.56941 H 0 v -2.56941 q 5.902783,-1.04172 7.638888,-2.70832 3.541669,-3.33338 7.847224,-13.54171 L 48.611112,0 h 2.430555 l 32.777782,78.333323 q 3.95833,9.44445 7.15278,12.2917 3.26388,2.77778 9.02777,3.12499 v 2.56941 H 62.847224 v -2.56941 q 5.625007,-0.278 7.569447,-1.87506 2.01389,-1.59715 2.01389,-3.88888 0,-3.05554 -2.77778,-9.65275 z M 62.013889,59.652793 46.041671,21.59723 29.652781,59.652793 Z"
       style="font-size:16.9333px;line-height:125%;font-family:'Times New Roman';-inkscape-font-specification:'Times New Roman, Normal';letter-spacing:0px;word-spacing:0px;stroke-width:2.22222px"
       id="path973" />
  </g>
</svg>
